<svg xmlns="http://www.w3.org/2000/svg" viewBox="0 0 1924.43 1340.71"><defs><style>.cls-1{isolation:isolate;}.cls-2{fill:#0e556b;}.cls-3{fill:#02aaac;}.cls-4{fill:#2d7f75;}.cls-14,.cls-4{opacity:0.36;mix-blend-mode:multiply;}.cls-5{fill:#ffdf7b;}.cls-6{fill:#ffcd69;}.cls-7{fill:#c6c6c6;}.cls-8{fill:#ffe08a;}.cls-9{fill:#aaa;}.cls-10{fill:#999;}.cls-11{opacity:0.31;}.cls-12{fill:#fff;}.cls-13,.cls-14{fill:#f46d36;}</style></defs><g class="cls-1"><g id="Layer_2" data-name="Layer 2"><g id="Layer_1-2" data-name="Layer 1"><rect class="cls-2" width="1924.43" height="1340.71"/><path class="cls-3" d="M180.22,532.46l-4.13,4.17-3,3L94.3,488.29s2.75-3.65,6.31-8.27c6.38-8.28,15.39-19.66,15.94-18.71C117.42,462.8,180.22,532.46,180.22,532.46Z"/><path class="cls-3" d="M168.59,552.82c1.07-.76,37.27-16.53,39-15.6s2.06,3.78,1.59,4-37.73,16-39.38,14.61A3,3,0,0,1,168.59,552.82Z"/><path class="cls-4" d="M176.09,536.63l-3,3L94.3,488.29s2.75-3.65,6.31-8.27Z"/><path class="cls-3" d="M218.11,560.15c-.49,1.49-56.66,24.21-57.43,23,0,0-1.7-2.62-3.05-5.28-1.27-2.47-2.23-5-1.27-5.51,2-1.08,55.66-23.35,57.44-23,.88.19,2.08,2.5,3,4.95S218.36,559.4,218.11,560.15Z"/><path class="cls-5" d="M159.38,559c-10.13,2.82-23.73.13-31.18-7.61s-6.66-19.86-2.32-29a46.23,46.23,0,0,1,11.51-14.62c2-1.73-1.51-9-3.93-6.91-9.77,8.54-16.34,20.57-15.71,33.79.65,13.83,9.09,26.2,22.3,30.73,7.1,2.43,15.07,3.24,22.37,1.21,2.59-.72-.18-8.38-3-7.59Z"/><polygon class="cls-5" points="157.62 540.96 179.74 515.7 182.93 518.93 160.8 543.48 157.62 540.96"/><path class="cls-4" d="M218.11,560.15c-.49,1.49-56.66,24.21-57.43,23,0,0-1.7-2.62-3.05-5.28l.72-.26c6.49-2.34,54.47-19.66,58.44-23.28C217.71,556.78,218.36,559.4,218.11,560.15Z"/><path class="cls-6" d="M145.46,504.7a12.32,12.32,0,0,1-23.2-8.12,11.85,11.85,0,0,1,.55-1.58,12.32,12.32,0,0,1,22.65,9.7Z"/><path class="cls-5" d="M146,496.58a12.32,12.32,0,0,1-23.31,1.31,13.44,13.44,0,0,1-.44-1.31,11.85,11.85,0,0,1,.55-1.58,12.32,12.32,0,0,1,23.2,1.58Z"/><path class="cls-6" d="M170,571.77a10.55,10.55,0,1,1,5.88-13.72,7.33,7.33,0,0,1,.3.86A10.55,10.55,0,0,1,170,571.77Z"/><path class="cls-5" d="M176.13,558.91a10.56,10.56,0,0,1-19.91.86c-.11-.29-.21-.57-.29-.86a10.55,10.55,0,0,1,19.9-.86A7.33,7.33,0,0,1,176.13,558.91Z"/><path class="cls-7" d="M178.86,833.44c-1.76,2.9-6.21,1.87-8.82,1a17.68,17.68,0,0,1-8.8-6,12,12,0,0,1-1.54-11.61c1.93-5,6.6-9.65,12.11-10.28Z"/><path class="cls-8" d="M211.93,804.33c-3.2-2.88-7.57-5.59-12.05-5.27a2.5,2.5,0,0,0-2.46,3c.78,5,1.78,9.91,2.24,14.93a143.83,143.83,0,0,1,.15,14.83c0,2.11-.17,4.83,1.66,6.2a.71.71,0,0,0,.66.38c2.28,1,5-.73,6.75-2.06a10.76,10.76,0,0,0,2.74-2.84,23.08,23.08,0,0,0,4.12-4.2,17.66,17.66,0,0,0,3.56-12.76C218.64,811.73,215.46,807.5,211.93,804.33Z"/><path class="cls-7" d="M206.9,780.49l6.37,74.24v0h0c-11.41,1.59-26.06-3.69-33.5-12.48-9.18-10.86-12.07-26.9-6.55-40A35.2,35.2,0,0,1,182.05,790a35.65,35.65,0,0,1,20-9.13A31.07,31.07,0,0,1,206.9,780.49Z"/><path class="cls-9" d="M206.92,780.71l6.35,74s0,0,0,0c-11.41,1.59-26.06-3.69-33.5-12.48-9.18-10.86-12.07-26.9-6.55-40A35.2,35.2,0,0,1,182.05,790c.21,4.27-.38,8.58-.32,12.87a62.24,62.24,0,0,0,1.56,12.9,64.6,64.6,0,0,0,8.83,21.14c1.36,2.07,4.49,7.75,7.52,5.19,2.82-2.39,3.28-7.52,3.62-10.92.89-8.77-.44-17.7-1.28-26.43-.46-4.81-1-9.63-1.37-14.45-.26-3.37-.18-6.57,1.47-9.43A31.25,31.25,0,0,1,206.92,780.71Z"/><path class="cls-10" d="M155.77,916.65c14.14,8.86,29.62,15.57,44.53,23s30,14.93,44.65,23c1.94,1.06,3.74-1.9,1.78-2.94q-22.35-11.88-45.08-23c-14.93-7.33-29.8-15.29-45.5-20.83-.51-.18-.82.57-.38.85Z"/><path class="cls-10" d="M162,911.08c6.83,4.28,14.24,7.61,21.36,11.4,7.31,3.89,14.53,7.95,21.79,11.93s14.53,7.88,22,11.37c3.64,1.69,7.31,3.31,11,4.81s7.48,3.23,11.34,3.9c1.78.32,3.41-2.27,1.42-3.21-3.51-1.65-7.34-2.71-10.93-4.19-3.87-1.6-7.66-3.35-11.41-5.21-7.52-3.74-14.9-7.76-22.27-11.78s-14.76-8.06-22.32-11.75c-7-3.39-14.15-6.77-21.83-8-.41-.06-.52.53-.22.73Z"/><path class="cls-10" d="M144.64,897.56c-2.73-9.95-5.9-19.76-8.46-29.76q-1.94-7.57-3.82-15.17-.9-3.57-1.78-7.13a35.3,35.3,0,0,0-2.11-7.16,1.5,1.5,0,0,0-2.79.66,34.84,34.84,0,0,0,1.37,6.9q.93,3.76,1.84,7.53c1.28,5.2,2.57,10.4,3.94,15.58,2.62,9.9,5.06,20.15,9,29.61.66,1.59,3.27.57,2.82-1.06Z"/><path class="cls-10" d="M149.83,896.94c1.19-1.59.06-4.2-.29-5.94-.54-2.7-1.13-5.39-1.79-8.07q-2.06-8.2-4.27-16.36c-2.89-10.73-6.1-21.38-9.21-32-.48-1.64-3-1.07-2.59.59,2.71,10.77,5.68,21.48,8.7,32.17q2.31,8.13,4.48,16.31c.67,2.55,1.37,5.08,2.08,7.61.49,1.78.64,4.88,2.46,5.83a.32.32,0,0,0,.43-.1Z"/><path class="cls-9" d="M137.33,823.78c3.23.69,6.57.45,9.83.69,3.47.27,6.94.51,10.4.95,4.36.56,4.43-6.82,0-7.06a77.53,77.53,0,0,0-10.67,0c-3.36.28-7,.43-10,1.77-1.41.61-1.14,3.28.47,3.63Z"/><path class="cls-8" d="M225.69,770.79c-1.26,1.22-2.1,3.32-2.89,4.87-.88,1.73-1.54,3.61-2.3,5.4s-1.47,3.53-2.17,5.31a23,23,0,0,0-1.78,5.64.88.88,0,0,0,1.47.66,22.44,22.44,0,0,0,2.81-4.87q1.32-2.71,2.56-5.46c.77-1.7,1.7-3.4,2.33-5.15s1.67-3.8,1.72-5.62A1,1,0,0,0,225.69,770.79Z"/><path class="cls-8" d="M238.34,782.15c-2.27,1.32-4,4-5.67,5.92-1.86,2.16-3.83,4.21-5.89,6.18-1.38,1.31.58,3.36,2,2.13a83.23,83.23,0,0,0,6.42-6c1.8-1.89,4.14-4.23,4.79-6.83A1.18,1.18,0,0,0,238.34,782.15Z"/><path class="cls-8" d="M248.93,807.33c-5.63-1.19-11.78-.14-17.31,1.09-1.63.36-1,2.73.58,2.49,5.52-.8,11.34-1.06,16.71-2.64C249.34,808.15,249.45,807.43,248.93,807.33Z"/><path class="cls-8" d="M241.73,832.6a32.22,32.22,0,0,0-4.59-2.75c-1.45-.76-3.21-1.81-4.89-1.39a1.41,1.41,0,0,0-.91,2c.68,1.41,2.4,2.11,3.7,2.86,1.46.85,2.86,1.79,4.31,2.66s2.66,1.75,4,2.61a51.65,51.65,0,0,0,4.41,2.91c.92.46,2.15-.46,1.56-1.48C247.58,837,244.47,834.66,241.73,832.6Z"/><path class="cls-8" d="M220.91,844.36c1.44,2.89,2.84,5.75,4.53,8.5s3.86,5.2,5.51,8a.55.55,0,0,0,1-.51c-1.35-2.94-2.2-6.1-3.62-9a74.48,74.48,0,0,0-4.93-8.29A1.39,1.39,0,0,0,220.91,844.36Z"/><path class="cls-7" d="M121.83,840.74c-5.33.14-10-4.56-10.82-9.84s1.88-10.67,5.95-14.11a13.74,13.74,0,0,1,3.44-2.21A11.82,11.82,0,0,1,131.72,816a14.72,14.72,0,0,1,.49,23c-3.86,2.94-9.67,3.27-13.56.36Z"/><path class="cls-9" d="M129,824.47a4.94,4.94,0,0,0-7.62,1,4.13,4.13,0,0,0-.22,3.93c.2,3.35,4.68,4.31,7.16,2.76A5,5,0,0,0,129,824.47Zm-4,4s.07,0,.08,0h0S124.92,828.55,124.93,828.52Z"/><path class="cls-7" d="M148.39,922.65c-5.93.16-11.2-5.08-12-11S138.43,899.8,143,896a15.45,15.45,0,0,1,3.83-2.46,13.15,13.15,0,0,1,12.61,1.58,16.42,16.42,0,0,1,.56,25.63c-4.31,3.28-10.78,3.64-15.12.4Z"/><path class="cls-9" d="M156.35,904.52a5.51,5.51,0,0,0-8.5,1.17,4.61,4.61,0,0,0-.24,4.38c.22,3.73,5.2,4.8,8,3.07A5.57,5.57,0,0,0,156.35,904.52ZM151.84,909s.09,0,.1,0v0C151.89,909.08,151.84,909.06,151.84,909Z"/><path class="cls-9" d="M230.67,978a35.6,35.6,0,0,0,6.41-5c2.13-1.87,4.23-3.76,6.35-5.64,4.23-3.76,8.34-7.66,12.48-11.51L268,944.63l6.22-5.77c2.15-2,4.55-3.87,6-6.42a3,3,0,0,0-4-4.22c-2.52,1.26-4.43,3.41-6.44,5.34l-6.12,5.88L251.44,951.2c-4,3.81-8,7.58-11.86,11.47l-6,6c-2,2-4.24,4-5.67,6.43a2.09,2.09,0,0,0,2.76,2.9Z"/><path class="cls-9" d="M230.07,976.14c-.74-1.79-2.61-2.9-3.88-4.32l-.06,2.86c8.27-7.27,16.47-14.62,24.51-22.15l11.71-11c2-1.91,4.06-3.83,6.11-5.74a34.68,34.68,0,0,1,6.57-4.58,2.62,2.62,0,0,0-1.83-4.83c-5.06.85-9.24,5.71-12.76,9.08l-12.62,12.06q-12.45,11.9-24.5,24.21a2.06,2.06,0,0,0-.06,2.87c1.63,1.58,3.8,3.46,6.21,2.83a.93.93,0,0,0,.6-1.32Z"/><g class="cls-11"><path class="cls-12" d="M951.57,727.24a163.93,163.93,0,0,1,30.2,31.17c1.82,2.45-2.3,4.82-4.1,2.39a159.9,159.9,0,0,0-29.46-30.2C945.81,728.71,949.2,725.36,951.57,727.24Z"/><path class="cls-12" d="M998,773.35a41,41,0,0,0,36.94,1c2.4-1.15,4.52,2.44,2.1,3.6a45.38,45.38,0,0,1-41.14-1C993.57,775.66,995.67,772.07,998,773.35Z"/><path class="cls-12" d="M1127.05,808.05a73.26,73.26,0,0,1,16.39,38.3c.31,2.65-3.86,2.63-4.17,0A68.14,68.14,0,0,0,1124.11,811C1122.41,808.94,1125.34,806,1127.05,808.05Z"/><path class="cls-12" d="M1138.35,877.11c.18-2.66,4.35-2.68,4.16,0-1.19,16.68-2.26,35.37,8.29,49.51,1.61,2.15-2,4.23-3.59,2.1C1136.22,914,1137.11,894.48,1138.35,877.11Z"/><path class="cls-12" d="M1163.38,936.72a46.23,46.23,0,0,0,16.81,10.06c2.52.86,1.44,4.88-1.11,4a51.2,51.2,0,0,1-18.64-11.13C1158.48,937.83,1161.42,934.89,1163.38,936.72Z"/><path class="cls-12" d="M1336.06,913.73A345.89,345.89,0,0,1,1377,887.14c2.35-1.3,4.45,2.29,2.1,3.59a345.89,345.89,0,0,0-40.94,26.59C1336,918.94,1334,915.32,1336.06,913.73Z"/><path class="cls-12" d="M1397.23,880.51a84.68,84.68,0,0,1,56-4.83c2.59.68,1.49,4.69-1.11,4a80.12,80.12,0,0,0-52.83,4.4C1396.91,885.2,1394.79,881.61,1397.23,880.51Z"/><path class="cls-12" d="M1471.18,882.3l28.22,15.15c4.5,2.42,9,4.89,13.51,7.23s9.3,4.37,14.5,4.29c2.68,0,2.68,4.12,0,4.16-10.37.17-19.88-6.59-28.67-11.31l-29.67-15.92C1466.71,884.63,1468.81,881,1471.18,882.3Z"/><path class="cls-12" d="M1548.84,913.88c18.88-.14,39.79,4.79,57.05-5.35,2.32-1.36,4.42,2.24,2.1,3.6-18,10.6-39.4,5.76-59.15,5.91C1546.16,918.06,1546.16,913.9,1548.84,913.88Z"/><path class="cls-12" d="M1628,901.26a300.93,300.93,0,0,0,37.35-21.61,90.49,90.49,0,0,1-16.38,3.93c-2.62.37-3.75-3.64-1.11-4a89.31,89.31,0,0,0,24.52-7.13c1.71-.79,4.11,1,2.84,2.85l0,.07a2.21,2.21,0,0,1-.61,2.92c-.85.61-1.7,1.22-2.56,1.82q-6.62,9.95-13.25,19.88c-1.48,2.22-5.09.14-3.6-2.1l7.73-11.58a302.21,302.21,0,0,1-32.79,18.57C1627.68,906,1625.57,902.43,1628,901.26Z"/><path class="cls-12" d="M1794.56,749.67q11.76-11.32,22.39-23.73c1.74-2,4.68.92,2.94,2.95q-10.62,12.39-22.38,23.73C1795.58,754.48,1792.63,751.54,1794.56,749.67Z"/><path class="cls-12" d="M1827.54,705.22a111.33,111.33,0,0,0,11.7-36.68c.37-2.65,4.38-1.52,4,1.1a114.59,114.59,0,0,1-12.12,37.68C1829.89,709.7,1826.29,707.59,1827.54,705.22Z"/><path class="cls-12" d="M1840,611.1a68.27,68.27,0,0,1,4.38,30.31c-.22,2.65-4.38,2.68-4.16,0a65.51,65.51,0,0,0-4.24-29.2C1835,609.71,1839.06,608.63,1840,611.1Z"/><path class="cls-12" d="M1821.38,555.24l9.43,17.31c1.28,2.35-2.31,4.46-3.59,2.1l-9.44-17.31C1816.5,555,1820.09,552.88,1821.38,555.24Z"/><path class="cls-12" d="M1746.73,473.29a34.64,34.64,0,0,0,7.3,20.34c1.63,2.08-1.29,5.05-3,2.94a39.38,39.38,0,0,1-8.52-23.28C1742.48,470.61,1746.64,470.62,1746.73,473.29Z"/><path class="cls-12" d="M1755.38,444.68l18.14-25.84c1.53-2.17,5.14-.09,3.6,2.11L1759,446.78C1757.44,449,1753.83,446.88,1755.38,444.68Z"/><path class="cls-12" d="M1792.68,392a73.48,73.48,0,0,0,1.48-33c-.49-2.62,3.52-3.75,4-1.11a78,78,0,0,1-1.48,35.19C1796,395.67,1792,394.57,1792.68,392Z"/><path class="cls-12" d="M1764.39,304a39.88,39.88,0,0,1,21.62,24.1c.83,2.55-3.19,3.64-4,1.1a35.85,35.85,0,0,0-19.7-21.61C1759.84,306.52,1762,302.93,1764.39,304Z"/><path class="cls-12" d="M1565.66,268a56.38,56.38,0,0,1,41.16-8.53c2.63.47,1.51,4.48-1.11,4a52.22,52.22,0,0,0-38,8.11C1565.53,273.13,1563.44,269.52,1565.66,268Z"/><path class="cls-12" d="M1517.31,312.49l30-31.43c1.85-1.94,4.8,1,2.94,2.95q-15,15.71-30,31.42C1518.4,317.37,1515.46,314.43,1517.31,312.49Z"/><path class="cls-12" d="M1434.16,345.31a92,92,0,0,0,22.48-17.65c1.83-2,4.77,1,2.95,2.95a96,96,0,0,1-11.3,10.32,91.29,91.29,0,0,0,44.4-16.82c2.18-1.57,4.26,2,2.1,3.59a95,95,0,0,1-52.47,17.78,1.56,1.56,0,0,1-.38,0l-.29.18,22.16,2.14c2.64.25,2.67,4.42,0,4.16l-28.6-2.75C1433.28,349,1432.22,346.4,1434.16,345.31Z"/><path class="cls-12" d="M1267.28,283.65l20.09,12.3c3.25,2,6.48,4,9.74,5.95,3.09,1.86,6.27,3.57,10,3.43,2.68-.09,2.67,4.07,0,4.17-7.52.26-14.33-5.38-20.41-9.1l-21.51-13.15C1262.89,285.85,1265,282.25,1267.28,283.65Z"/><path class="cls-12" d="M1200.49,265.89a66.59,66.59,0,0,1,40.31,10.3c2.25,1.44.17,5-2.1,3.59a62.75,62.75,0,0,0-38.21-9.72C1197.82,270.24,1197.83,266.08,1200.49,265.89Z"/><path class="cls-12" d="M1144.57,270.53q17-3.54,34.33-5.46c2.66-.29,2.64,3.87,0,4.17q-16.73,1.86-33.23,5.31C1143.06,275.09,1141.94,271.08,1144.57,270.53Z"/><path class="cls-12" d="M1106.94,289.61a45.53,45.53,0,0,1,15.94-9.36c2.55-.87,3.64,3.15,1.11,4a40.49,40.49,0,0,0-14.11,8.29C1107.9,294.34,1104.94,291.41,1106.94,289.61Z"/><path class="cls-12" d="M1036,361.17c.76-2.56,4.78-1.47,4,1.11a89.28,89.28,0,0,0-3.62,29c.11,2.68-4.06,2.67-4.16,0A93,93,0,0,1,1036,361.17Z"/><path class="cls-12" d="M1044.57,417.8l17.82,28.07a1.89,1.89,0,0,1,.3,1.43l.63.3a50.24,50.24,0,0,0,1.89-14.29c0-2.68,4.14-2.68,4.17,0a54.51,54.51,0,0,1-2.75,17.74,2.13,2.13,0,0,1-3.06,1.25l-19-8.91c-2.43-1.14-.32-4.73,2.1-3.6l9.86,4.63L1041,419.9C1039.53,417.64,1043.13,415.54,1044.57,417.8Z"/><path class="cls-12" d="M617.21,383.28a97.46,97.46,0,0,1,16.58-31c1.65-2.08,5.21.09,3.54,2.18a94.44,94.44,0,0,0-16.14,30.06C620.38,387.05,616.39,385.84,617.21,383.28Z"/><path class="cls-12" d="M593.44,374.92l-4.37-19.66c-.58-2.61,3.48-3.53,4.07-.91q2.18,9.82,4.36,19.66C598.08,376.62,594,377.55,593.44,374.92Z"/><path class="cls-12" d="M561.28,367.13a161.66,161.66,0,0,1,26.91,22.33c1.87,1.93-1.16,4.79-3,2.86a157.22,157.22,0,0,0-26.08-21.65C556.86,369.19,559,365.64,561.28,367.13Z"/><path class="cls-12" d="M450.17,284.36a148.39,148.39,0,0,1,27.29,1.69c2.65.41,1.52,4.42-1.1,4a141.72,141.72,0,0,0-26.19-1.55C447.49,288.6,447.49,284.44,450.17,284.36Z"/><path class="cls-12" d="M407.34,293.37a105.29,105.29,0,0,1,27.45-6.48c2.66-.26,2.64,3.9,0,4.17a100.72,100.72,0,0,0-26.34,6.33C405.94,298.36,404.86,294.33,407.34,293.37Z"/><path class="cls-12" d="M368.3,338.51a71.7,71.7,0,0,1,19-26.46c2-1.76,5,1.18,3,2.94a67.09,67.09,0,0,0-17.91,24.63C371.3,342.05,367.27,341,368.3,338.51Z"/><path class="cls-12" d="M348.8,394.86q4.21-13.28,8.44-26.57c.81-2.54,4.83-1.46,4,1.11Q357,382.69,352.81,396C352,398.52,348,397.43,348.8,394.86Z"/><path class="cls-12" d="M264,464a112.56,112.56,0,0,0,30-16.59c2.09-1.62,5.06,1.31,2.94,2.95A119.32,119.32,0,0,1,265.14,468C262.62,469,261.54,464.93,264,464Z"/><path class="cls-12" d="M205.28,477.42a67.4,67.4,0,0,0,39.91-7.86c2.34-1.3,4.45,2.3,2.1,3.59a71.19,71.19,0,0,1-42,8.44C202.65,481.3,202.62,477.13,205.28,477.42Z"/><path class="cls-12" d="M155.71,483.38a45.3,45.3,0,0,1,32.54-4.7c2.61.6,1.5,4.62-1.11,4A40.83,40.83,0,0,0,157.81,487C155.48,488.3,153.38,484.7,155.71,483.38Z"/><path class="cls-12" d="M119.54,568.15A81.1,81.1,0,0,0,134.47,603c1.61,2.15-2,4.22-3.59,2.1a83.85,83.85,0,0,1-15.35-35.83C115.08,566.63,119.09,565.51,119.54,568.15Z"/><path class="cls-12" d="M151.09,612.6a65.26,65.26,0,0,0,27.38,9.8c2.63.31,2.66,4.48,0,4.17A70,70,0,0,1,149,616.2C146.73,614.77,148.82,611.16,151.09,612.6Z"/><path class="cls-12" d="M203.13,630a74.76,74.76,0,0,1,29.92,7.21c2.43,1.14.31,4.73-2.1,3.59a69.84,69.84,0,0,0-27.82-6.64C200.45,634,200.44,629.88,203.13,630Z"/><path class="cls-12" d="M253.84,644l4.19,4c2,1.86-1,4.8-2.94,2.95l-4.19-4C249,645.06,251.9,642.12,253.84,644Z"/><path class="cls-12" d="M305,754.49q3.35,12.87,6.7,25.74c.68,2.6-3.34,3.71-4,1.11q-3.36-12.87-6.71-25.74C300.33,753,304.35,751.89,305,754.49Z"/><path class="cls-12" d="M300.18,830.61a42.9,42.9,0,0,0,5.84-34c-.66-2.59,3.36-3.7,4-1.1a47,47,0,0,1-6.25,37.19C302.31,834.94,298.7,832.85,300.18,830.61Z"/><path class="cls-12" d="M268.11,870.46a165.9,165.9,0,0,1,7.7-24.67c1-2.46,5-1.39,4,1.1a167.34,167.34,0,0,0-7,21.81l.31,0a91,91,0,0,0,17.76-21c1.4-2.28,5-.19,3.6,2.1a95.77,95.77,0,0,1-13.89,17.66A61.64,61.64,0,0,0,298.44,860c2.29-1.4,4.38,2.2,2.1,3.6a65.4,65.4,0,0,1-25.67,9l-.25.22A2.14,2.14,0,0,1,272,873c-.61,0-1.23.1-1.84.13A2.1,2.1,0,0,1,268.11,870.46Z"/><path class="cls-12" d="M434.21,432.62a1.76,1.76,0,0,1-1-1.75l1.74-21.31c-7.37-1.83-14.74-4-21.93-6.4a1.75,1.75,0,0,1-.13-3.28,119.14,119.14,0,0,1,20-6.52l-4.07-18.59a1.76,1.76,0,0,1,2.9-1.68l14.1,12.7a110.52,110.52,0,0,0,18.43-8.56,1.76,1.76,0,0,1,2.5,2.21c-2.34,5.54-5.62,15.21-6.62,18.2l1.53,1.91c4.45,5.55,8.29,10.35,16,18.51a1.75,1.75,0,0,1-1.69,2.91c-6.52-1.57-10.37-2.69-14.09-3.76-2.53-.73-4.93-1.42-8-2.2-6.13,5.43-12.06,11.22-17.64,17.2a1.74,1.74,0,0,1-1.29.56A1.78,1.78,0,0,1,434.21,432.62Zm19.59-21.25c3.55.89,6.19,1.65,9,2.46,2.45.71,4.95,1.43,8.23,2.29-5.24-5.77-8.48-9.82-12.12-14.37l-2.13-2.66a1.75,1.75,0,0,1-.3-1.65c.13-.41,2.72-8.22,5.2-14.77a114.78,114.78,0,0,1-15.7,6.79,1.76,1.76,0,0,1-1.75-.36l-10.81-9.73,3.27,14.95a1.71,1.71,0,0,1-.24,1.32,1.73,1.73,0,0,1-1.11.77,116.8,116.8,0,0,0-16.65,4.91c6.11,1.94,12.32,3.67,18.52,5.18a1.76,1.76,0,0,1,1.34,1.85l-1.46,17.84c4.85-5,9.92-9.85,15.14-14.43a1.71,1.71,0,0,1,1.16-.44A2,2,0,0,1,453.8,411.37Z"/><path class="cls-12" d="M420.79,518.34a1.51,1.51,0,0,1-1.39-1.08l-5.3-17.67c-6.5.84-13.09,1.43-19.63,1.75a1.54,1.54,0,0,1-1.47-.9,1.52,1.52,0,0,1,.33-1.69,102.94,102.94,0,0,1,14-11.54l-9.12-13.65a1.52,1.52,0,0,1,1.8-2.26l15.33,5.77a95.44,95.44,0,0,0,12.11-12.67,1.51,1.51,0,0,1,1.71-.48,1.53,1.53,0,0,1,1,1.47c-.15,5.18.26,14,.4,16.7l1.83,1.05c5.32,3.06,9.91,5.71,18.64,9.86a1.5,1.5,0,0,1,.85,1.6,1.53,1.53,0,0,1-1.3,1.27c-5.73.78-9.17,1.1-12.5,1.4-2.26.21-4.4.41-7.1.74-3.21,6.29-6.16,12.8-8.76,19.37a1.5,1.5,0,0,1-.86.85A1.41,1.41,0,0,1,420.79,518.34Zm9.06-23.24c3.12-.4,5.49-.62,8-.85,2.19-.2,4.42-.4,7.33-.75-6-3-9.9-5.22-14.26-7.73l-2.54-1.46a1.52,1.52,0,0,1-.76-1.24c0-.37-.4-7.46-.47-13.5A97.82,97.82,0,0,1,416.67,480a1.53,1.53,0,0,1-1.52.27L403.4,475.8l7.33,11a1.52,1.52,0,0,1,.22,1.14,1.46,1.46,0,0,1-.65,1,100.87,100.87,0,0,0-11.83,9.18c5.52-.36,11-.92,16.51-1.66a1.5,1.5,0,0,1,1.65,1.07l4.44,14.79c2.32-5.55,4.88-11,7.62-16.36a1.56,1.56,0,0,1,.8-.72A1.9,1.9,0,0,1,429.85,495.1Z"/><path class="cls-12" d="M762.78,363.67a1.5,1.5,0,0,1,1.7.45l11.79,14.19c5.65-3.32,11.49-6.45,17.38-9.3a1.51,1.51,0,0,1,2.06,1.94,101.86,101.86,0,0,1-8.4,16.11l13.73,9a1.52,1.52,0,0,1-.77,2.79l-16.36.69a96,96,0,0,0-6.19,16.4,1.5,1.5,0,0,1-1.38,1.11,1.52,1.52,0,0,1-1.49-1c-1.9-4.83-5.72-12.77-6.91-15.21l-2.09-.25c-6.1-.74-11.36-1.38-21-1.78a1.52,1.52,0,0,1-.71-2.82c5-3,8-4.6,11-6.18,2-1.08,3.89-2.1,6.23-3.46.5-7.05.66-14.19.49-21.25a1.53,1.53,0,0,1,.45-1.12A1.55,1.55,0,0,1,762.78,363.67Zm.76,24.93c-2.72,1.59-4.81,2.72-7,3.91-1.93,1-3.9,2.1-6.45,3.55,6.71.4,11.16.94,16.15,1.54l2.91.35a1.51,1.51,0,0,1,1.18.84c.17.33,3.29,6.71,5.72,12.24a98.78,98.78,0,0,1,5.57-13.66,1.54,1.54,0,0,1,1.3-.84l12.54-.52-11-7.24a1.52,1.52,0,0,1-.43-2.11,99.5,99.5,0,0,0,7.3-13.08c-4.94,2.5-9.81,5.18-14.54,8a1.51,1.51,0,0,1-1.94-.34l-9.87-11.87c0,6-.17,12.06-.62,18a1.47,1.47,0,0,1-.45,1A1.63,1.63,0,0,1,763.54,388.6Z"/><path class="cls-12" d="M1076.56,612.36a1.51,1.51,0,0,1,1.7.45L1090.05,627c5.65-3.32,11.49-6.45,17.38-9.3a1.51,1.51,0,0,1,2.06,1.94,101.86,101.86,0,0,1-8.4,16.11l13.73,9a1.52,1.52,0,0,1-.77,2.79l-16.36.69a95.12,95.12,0,0,0-6.19,16.4,1.5,1.5,0,0,1-1.38,1.11,1.52,1.52,0,0,1-1.5-1c-1.9-4.83-5.71-12.77-6.9-15.21l-2.1-.25c-6.09-.74-11.36-1.38-21-1.78a1.52,1.52,0,0,1-.71-2.82c5-3,8-4.6,10.95-6.18,2-1.08,3.9-2.1,6.24-3.46.5-7.05.66-14.19.49-21.25a1.53,1.53,0,0,1,.45-1.12A1.55,1.55,0,0,1,1076.56,612.36Zm.75,24.93c-2.71,1.59-4.8,2.72-7,3.91-1.93,1-3.91,2.1-6.45,3.55,6.71.4,11.15.94,16.15,1.54l2.91.35a1.51,1.51,0,0,1,1.18.84c.17.33,3.29,6.71,5.72,12.24a98.78,98.78,0,0,1,5.57-13.66,1.54,1.54,0,0,1,1.29-.84l12.55-.52-11-7.24a1.52,1.52,0,0,1-.43-2.11,99.5,99.5,0,0,0,7.3-13.08c-4.94,2.5-9.81,5.18-14.54,8a1.52,1.52,0,0,1-2-.34l-9.86-11.87c0,6-.18,12.06-.62,18a1.52,1.52,0,0,1-.45,1A1.7,1.7,0,0,1,1077.31,637.29Z"/><path class="cls-12" d="M1444.64,934.27a16,16,0,0,0,7,4.85,7.77,7.77,0,0,0,8.21-1.63c3.09-2.69,5.33-8,3.24-11.5-1.69-5.26-8.74-6.45-13.63-4.7C1444.15,923.18,1440.94,929.42,1444.64,934.27Zm6-9.87c1.93-.66,5.24-.85,7.38.28a1.43,1.43,0,0,0,.75,1.8,3.67,3.67,0,0,1,1.31,1.07v.06a1.73,1.73,0,0,0,.49,1c.5,2.34-1.63,5.41-3.43,6.73-3,2.2-7.18-.24-9.4-2.63C1444.85,929.68,1447.05,925.6,1450.61,924.4Z"/><path class="cls-12" d="M1416.1,945.8c4.5,2.86,11,2.15,14.26-2.23,3.05-4.11,2-10.29-2.87-12.49a1.76,1.76,0,0,0-1.16-.1c-4.2-1.3-9-.86-11.92,2.83S1411.88,943.12,1416.1,945.8Zm1.37-10.45c2.61-2.61,6.84-2,9.81-.4a5.05,5.05,0,0,1,.07,7.07c-2.36,2.66-6.7,2.8-9.57.91C1415.07,941.14,1415.31,937.51,1417.47,935.35Z"/><path class="cls-12" d="M851.26,300c5.37,3.41,13.11,2.56,17-2.66,3.64-4.89,2.35-12.26-3.42-14.88a2,2,0,0,0-1.38-.12c-5-1.56-10.75-1-14.2,3.37C845.68,290.22,846.23,296.76,851.26,300Zm1.63-12.45c3.11-3.11,8.16-2.33,11.7-.48a6,6,0,0,1,.07,8.42c-2.8,3.17-8,3.34-11.4,1.08C850,294.39,850.31,290.07,852.89,287.5Z"/><path class="cls-12" d="M1438,964.24a7.69,7.69,0,0,0,11.56.69,6.66,6.66,0,0,0-.49-9.33,1.66,1.66,0,0,0-.09-1.19c-1.74-3.92-7.13-4.72-10.23-1.95A8.69,8.69,0,0,0,1438,964.24Zm2.89-9.25a3.25,3.25,0,0,1,4.72.31,1.52,1.52,0,0,0,.51,2.29,3.26,3.26,0,0,1,.41,5.57,4.41,4.41,0,0,1-6.3-1.51A5.32,5.32,0,0,1,1440.84,955Z"/><path class="cls-12" d="M1851.59,427.05c4.37,4.26,11.72,6.16,15.94.67,2.21-2.86,3.37-7.86,1.76-11.28a1.59,1.59,0,0,0-.09-1.4,13.82,13.82,0,0,0-6.79-6.45c-3.07-1.17-6.32.25-8.75,2.16a13.83,13.83,0,0,0-5,7.81C1847.93,421.84,1849.26,424.78,1851.59,427.05Zm4.57-14c1.92-1.34,4-2.08,6.11-.78a9.92,9.92,0,0,1,2,1.6,1.83,1.83,0,0,0,.81,2.71c1.77.68,1.77,3.41,1.54,4.95a8.53,8.53,0,0,1-2.24,4.82c-3.26,3.25-8.27.76-10.87-2.1C1850.13,420.55,1852.55,415.54,1856.16,413Z"/><path class="cls-12" d="M1843.76,399.78c3.44,3.1,9.44,4.16,13.23,1.09a8.2,8.2,0,0,0,.52-12.21,1.49,1.49,0,0,0-1.36-.47C1849.52,381,1835.5,392.35,1843.76,399.78Zm10.41-8.74a1.62,1.62,0,0,0,1.61.75,4.75,4.75,0,0,1-1,6.58c-2.29,1.74-5.84,1-8.07-.49C1840.3,393.46,1850.61,385.57,1854.17,391Z"/><path class="cls-12" d="M1875.5,401.46c3,.07,4.41-2.38,5-4.95a1.7,1.7,0,0,0,.85-.61c2-2.6-.73-5.94-3.5-6.2a6.54,6.54,0,0,0-6.63,5C1870.57,397.59,1872.2,401.37,1875.5,401.46Zm-1.06-5.84a3.43,3.43,0,0,1,2.39-2.57,2.22,2.22,0,0,1,1.06.09,1.7,1.7,0,0,0-.38,1c-.08,1.12-.16,3.8-1.74,4C1874.61,398.21,1874.27,396.49,1874.44,395.62Z"/><path class="cls-12" d="M1183.63,363.49a14.1,14.1,0,0,0,11.71,11.1A13.18,13.18,0,0,0,1209,366.8c1.93-4.55.73-9.38-1.71-13.44a1.66,1.66,0,0,0-.08-1.25c-3-6.67-11.51-7.72-17.17-3.88A15.27,15.27,0,0,0,1183.63,363.49Zm6-10.53c3-3.49,8.4-4.78,12-2.4a1.63,1.63,0,0,0,.42,1.33c4,4.41,6.73,11.39,2.06,16.35a9.89,9.89,0,0,1-14.38-.07C1185.64,364,1185.87,357.27,1189.62,353Z"/><path class="cls-12" d="M882.51,312.64a14.1,14.1,0,0,0,11.71,11.1A13.18,13.18,0,0,0,907.84,316c1.93-4.55.73-9.38-1.71-13.44a1.71,1.71,0,0,0-.08-1.25c-3-6.67-11.51-7.72-17.18-3.88A15.28,15.28,0,0,0,882.51,312.64Zm6-10.53c3-3.49,8.4-4.78,12-2.4a1.63,1.63,0,0,0,.42,1.33c4,4.41,6.72,11.39,2.06,16.35a9.89,9.89,0,0,1-14.38-.07C884.51,313.16,884.75,306.42,888.5,302.11Z"/><path class="cls-12" d="M1159.25,390.52c3.31,4.18,9.64,4.32,13.7,1.2a11.11,11.11,0,0,0,2.62-14.64,1.6,1.6,0,0,0-2.25-.55,10.06,10.06,0,0,0-4.62-2.85c-2.67-.66-5.29.5-7.28,2.24C1157.31,379.5,1155.66,386,1159.25,390.52Zm4.53-12.24c3.54-3,6.49-.34,8.93,2.51a1.41,1.41,0,0,0,1,.53,7.55,7.55,0,0,1-2.44,7.49c-2.62,2.25-7.09,2.56-9.4-.32C1159.29,385.25,1160.9,380.72,1163.78,378.28Z"/><path class="cls-12" d="M1193.12,402.63c4.65,2.91,10.62.42,12.83-4.32,2.11-4.52,1-12.71-5.49-12.29a1.65,1.65,0,0,0-1.49,1.13,8.24,8.24,0,0,0-8.07,3A8.5,8.5,0,0,0,1193.12,402.63Zm.76-10.83a5.26,5.26,0,0,1,7.58.26,1.52,1.52,0,0,0,2.12.14,9.19,9.19,0,0,1-1.09,5.52c-1.77,2.79-5.6,3.82-8.24,1.63A5.16,5.16,0,0,1,1193.88,391.8Z"/><path class="cls-12" d="M1099.14,589.38c3.31,4.18,9.64,4.31,13.7,1.2a11.11,11.11,0,0,0,2.62-14.64,1.6,1.6,0,0,0-2.25-.55,10,10,0,0,0-4.62-2.85c-2.67-.67-5.28.5-7.28,2.24C1097.21,578.36,1095.55,584.84,1099.14,589.38Zm4.53-12.25c3.54-3,6.49-.34,8.93,2.51a1.42,1.42,0,0,0,1,.54,7.57,7.57,0,0,1-2.43,7.49c-2.62,2.24-7.09,2.56-9.4-.33C1099.18,584.11,1100.79,579.58,1103.67,577.13Z"/><path class="cls-12" d="M1138.57,639.8c4.64,2.91,10.61.42,12.83-4.32,2.1-4.51.95-12.71-5.49-12.29a1.65,1.65,0,0,0-1.49,1.13,8.25,8.25,0,0,0-8.08,3A8.51,8.51,0,0,0,1138.57,639.8Zm.76-10.83a5.27,5.27,0,0,1,7.58.26,1.51,1.51,0,0,0,2.11.14,9.17,9.17,0,0,1-1.09,5.53,5.6,5.6,0,0,1-8.24,1.62A5.15,5.15,0,0,1,1139.33,629Z"/><path class="cls-12" d="M164.5,725c2.15,5.73,7.65,8.16,13.51,7.42a35,35,0,0,0,9.39-2.7c2.62-1.14,4.95-2.55,5.14-5.67.26-4.25-1.32-9-4.89-11.41a1.71,1.71,0,0,0-.71-1.33c-5.25-3.89-12.66-4.52-18-.45A12.4,12.4,0,0,0,164.5,725Zm6-11.15c3.89-3.31,9.19-3,13.36-.58a1.69,1.69,0,0,0,1.12,1.66c2.32.88,3.38,3.29,3.89,5.54a10.57,10.57,0,0,1,.34,3.58c-.23,1.52-1.89,2.09-3.14,2.64-4.78,2.12-12.42,4.57-16.63.13C165.82,723,166.63,717.08,170.5,713.8Z"/><path class="cls-12" d="M144.1,700.57c2.91,2.8,7.8,3.49,11.13,1a7.8,7.8,0,0,0,1.83-10.46,1.68,1.68,0,0,0-1.89-.67c-1.52-3.2-8.08-2.06-10.3-.49A6.78,6.78,0,0,0,144.1,700.57Zm1.93-7.2a4.9,4.9,0,0,1,3.14-1.55c.36-.05,3-.18,3.07.43a1.42,1.42,0,0,0,2.21,1c2.27,4-2.38,7.8-6.39,6C145.73,698.24,144.15,695.58,146,693.37Z"/><path class="cls-12" d="M140,723.63c1.72-3.6,5.62-6.35,9.69-5.21a1.67,1.67,0,0,1-.89,3.21c-4.07-1.14-9.07,6.79-4.66,7.7a13.44,13.44,0,0,0,6.1-.63c2.05-.71,4.24-3.83,1.22-5-2-.78-1.11-4,.89-3.21,3.58,1.42,5.18,5.64,2.69,8.84s-8.09,4.05-11.78,3.24C139,731.62,138.33,727.11,140,723.63Z"/><path class="cls-12" d="M188,367.24c3.39,4.9,9.1,4.31,14,2.18s9-6.66,8.38-12.27a8.33,8.33,0,0,0-6.12-7.1,1.7,1.7,0,0,0-1.12-1.84,12.76,12.76,0,0,0-15.16,19Zm2.82-12.45a9.41,9.41,0,0,1,8.78-4,1.74,1.74,0,0,0,2,2.37,4.68,4.68,0,0,1,5.16,2.87c1,2.22.2,4.87-1.19,6.74a12.53,12.53,0,0,1-6.05,4c-2.19.76-5,1.58-7.09.18C188.53,364.44,188.47,358.35,190.85,354.79Z"/><path class="cls-12" d="M199.48,331.87a8,8,0,0,0,12.2,2.66,7.45,7.45,0,0,0,1.7-9.3,1.41,1.41,0,0,0,.84-2.27,9.08,9.08,0,0,0-11.46-2.63C198.72,322.51,197.51,327.9,199.48,331.87Zm9.33-9.05a1.8,1.8,0,0,0,.44,2.4,4.36,4.36,0,0,1-.51,7.32c-2.83,1.54-6.09-.54-6.74-3.46A5.37,5.37,0,0,1,208.81,322.82Z"/><path class="cls-12" d="M180.42,339.33a9.35,9.35,0,0,0,9.35-7.93,6.68,6.68,0,0,0-2.21-6.07,5.49,5.49,0,0,0-1.84-1,1.57,1.57,0,0,0-.45-.32c-4.78-2.16-10,1.67-11.79,6.19S175.86,339.17,180.42,339.33Zm-3.95-7.62a8.32,8.32,0,0,1,3.45-4.28,1.54,1.54,0,0,0,.53,0c2.72-.33,6.32-.38,6.05,3.36a6,6,0,0,1-4.79,5.09C179.33,336.37,175.65,334.65,176.47,331.71Z"/><path class="cls-12" d="M885,266.6a9.37,9.37,0,0,0,9.35-7.94,6.7,6.7,0,0,0-2.21-6.07,5.88,5.88,0,0,0-1.84-1,1.43,1.43,0,0,0-.46-.31c-4.77-2.17-10,1.67-11.78,6.18S880.42,266.43,885,266.6ZM881,259a8.25,8.25,0,0,1,3.45-4.27,1.83,1.83,0,0,0,.53,0c2.72-.34,6.32-.38,6,3.36a6,6,0,0,1-4.79,5.08C883.88,263.64,880.21,261.91,881,259Z"/><path class="cls-12" d="M863.21,531.47l-21-6.19a47.73,47.73,0,0,0-14.35-2c-11.72.23-17.91,4.75-18,4.79a2,2,0,0,1-3.06-2.12l3-10.22-3.36-1a9.92,9.92,0,0,1-6.71-12.3l9.6-32.64a9.94,9.94,0,0,1,12.31-6.71l56.75,16.7h0a9.92,9.92,0,0,1,6.71,12.3l-9.6,32.64a9.93,9.93,0,0,1-9.5,7.11A10,10,0,0,1,863.21,531.47Zm-42.66-64.59a6,6,0,0,0-7.44,4.06l-9.6,32.63a6,6,0,0,0,4.06,7.44l3.75,1.11a3.49,3.49,0,0,1,2.37,4.34l-1.8,6.12a42.3,42.3,0,0,1,15.87-3.19,51.39,51.39,0,0,1,15.54,2.13l21,6.19a6,6,0,0,0,7.44-4.06l9.6-32.63a6,6,0,0,0-4.06-7.44Z"/><path class="cls-12" d="M874.49,492.56l-55.1-16.21a1.54,1.54,0,0,1-1-1.9h0a1.54,1.54,0,0,1,1.9-1l55.1,16.22a1.53,1.53,0,0,1,1,1.89h0A1.53,1.53,0,0,1,874.49,492.56Z"/><path class="cls-12" d="M837.35,489.39l-20.06-5.9a1.53,1.53,0,0,1-1-1.9h0a1.53,1.53,0,0,1,1.9-1l20.06,5.9a1.53,1.53,0,0,1,1,1.9h0A1.53,1.53,0,0,1,837.35,489.39Z"/><path class="cls-12" d="M851.26,493.48,842.7,491a1.53,1.53,0,0,1-1-1.89h0a1.53,1.53,0,0,1,1.9-1l8.57,2.52a1.53,1.53,0,0,1,1,1.9h0A1.53,1.53,0,0,1,851.26,493.48Z"/><path class="cls-12" d="M872.39,499.7l-15.66-4.61a1.53,1.53,0,0,1-1-1.9h0a1.53,1.53,0,0,1,1.9-1l15.66,4.61a1.52,1.52,0,0,1,1,1.89h0A1.52,1.52,0,0,1,872.39,499.7Z"/><path class="cls-12" d="M824.27,493.3l-9.08-2.67a1.53,1.53,0,0,1-1-1.9h0a1.53,1.53,0,0,1,1.9-1l9.08,2.67a1.53,1.53,0,0,1,1,1.9h0A1.53,1.53,0,0,1,824.27,493.3Z"/><path class="cls-12" d="M858.76,503.45l-27.94-8.22a1.53,1.53,0,0,1-1-1.9h0a1.53,1.53,0,0,1,1.9-1l27.94,8.22a1.53,1.53,0,0,1,1,1.9h0A1.53,1.53,0,0,1,858.76,503.45Z"/><path class="cls-12" d="M838.5,505.25l-25.42-7.48a1.54,1.54,0,0,1-1-1.9h0a1.53,1.53,0,0,1,1.9-1l25.41,7.48a1.53,1.53,0,0,1,1,1.89h0A1.53,1.53,0,0,1,838.5,505.25Z"/><path class="cls-12" d="M856.66,510.59,844.48,507a1.53,1.53,0,0,1-1-1.9h0a1.54,1.54,0,0,1,1.9-1l12.19,3.59a1.53,1.53,0,0,1,1,1.9h0A1.53,1.53,0,0,1,856.66,510.59Z"/><path class="cls-12" d="M870.29,506.84,865,505.28a1.53,1.53,0,0,1-1-1.9h0a1.53,1.53,0,0,1,1.9-1l5.31,1.56a1.53,1.53,0,0,1,1,1.9h0A1.51,1.51,0,0,1,870.29,506.84Z"/><path class="cls-12" d="M919,399.32l-17.45,6.77a40.8,40.8,0,0,0-10.75,6.15c-7.8,6.27-9.64,12.56-9.66,12.61A1.68,1.68,0,0,1,878,425l-3.29-8.49-2.78,1.08a8.48,8.48,0,0,1-11-4.83l-10.52-27.09a8.48,8.48,0,0,1,4.83-11l47.11-18.29h0a8.48,8.48,0,0,1,11,4.83l10.51,27.09a8.47,8.47,0,0,1-2.71,9.77A8.76,8.76,0,0,1,919,399.32Zm-62.55-21.47a5.14,5.14,0,0,0-2.92,6.63l10.52,27.09a5.12,5.12,0,0,0,6.62,2.92l3.12-1.21a3,3,0,0,1,3.87,1.7l2,5.09a36.3,36.3,0,0,1,9.08-10.44A43.73,43.73,0,0,1,900.37,403l17.44-6.77a5.09,5.09,0,0,0,2.83-2.71,5,5,0,0,0,.09-3.92l-10.52-27.09a5.12,5.12,0,0,0-6.62-2.92Z"/><path class="cls-12" d="M906.37,367.11l-45.74,17.76a1.31,1.31,0,0,1-1.69-.75h0a1.31,1.31,0,0,1,.74-1.69l45.75-17.76a1.3,1.3,0,0,1,1.68.75h0A1.3,1.3,0,0,1,906.37,367.11Z"/><path class="cls-12" d="M879.59,384.33l-16.66,6.46a1.3,1.3,0,0,1-1.69-.74h0a1.31,1.31,0,0,1,.74-1.69l16.66-6.47a1.31,1.31,0,0,1,1.69.75h0A1.31,1.31,0,0,1,879.59,384.33Z"/><path class="cls-12" d="M891.14,379.84,884,382.6a1.3,1.3,0,0,1-1.69-.74h0a1.3,1.3,0,0,1,.74-1.69l7.11-2.76a1.31,1.31,0,0,1,1.69.74h0A1.3,1.3,0,0,1,891.14,379.84Z"/><path class="cls-12" d="M908.67,373l-13,5a1.31,1.31,0,0,1-1.69-.74h0a1.3,1.3,0,0,1,.75-1.69l13-5a1.3,1.3,0,0,1,1.69.75h0A1.32,1.32,0,0,1,908.67,373Z"/><path class="cls-12" d="M872.77,393.8l-7.54,2.92a1.31,1.31,0,0,1-1.69-.74h0a1.3,1.3,0,0,1,.75-1.69l7.54-2.93a1.3,1.3,0,0,1,1.69.75h0A1.32,1.32,0,0,1,872.77,393.8Z"/><path class="cls-12" d="M901.41,382.68l-23.2,9a1.31,1.31,0,0,1-1.69-.74h0a1.31,1.31,0,0,1,.75-1.69l23.19-9a1.31,1.31,0,0,1,1.69.75h0A1.31,1.31,0,0,1,901.41,382.68Z"/><path class="cls-12" d="M888.63,394.46l-21.1,8.19a1.31,1.31,0,0,1-1.69-.74h0a1.31,1.31,0,0,1,.75-1.69l21.1-8.19a1.31,1.31,0,0,1,1.69.74h0A1.31,1.31,0,0,1,888.63,394.46Z"/><path class="cls-12" d="M903.71,388.61l-10.12,3.93a1.31,1.31,0,0,1-1.69-.75h0a1.31,1.31,0,0,1,.75-1.69l10.12-3.93a1.32,1.32,0,0,1,1.69.75h0A1.31,1.31,0,0,1,903.71,388.61Z"/><path class="cls-12" d="M911,379l-4.41,1.72a1.32,1.32,0,0,1-1.69-.75h0a1.31,1.31,0,0,1,.75-1.69l4.41-1.71a1.3,1.3,0,0,1,1.69.75h0A1.29,1.29,0,0,1,911,379Z"/></g><path class="cls-3" d="M283.41,672.74c.58,1.89,3.14,3.35,4.39,4.89a25.73,25.73,0,0,1,4,7.14c2.22,5.89,2,12.21,1.9,18.38a.56.56,0,0,0,1.09.15,28.31,28.31,0,0,0-.56-19.86,25.82,25.82,0,0,0-4.27-7.08c-1.31-1.54-3.76-4.54-6-4.35a.58.58,0,0,0-.55.73Z"/><path class="cls-13" d="M310.32,725.87a32.73,32.73,0,0,1-9.66,3.9,36.13,36.13,0,0,1-13.67-.1c-6.14-1.12-12.78-3-17.64-7.15A19.91,19.91,0,0,1,262.26,708a18.8,18.8,0,0,1,6.12-14.15c4.65-4.45,11.31-6.42,17.64-6.43a25.11,25.11,0,0,1,8.61,1.49c3.83-3.54,10.14-4.51,15.42-3.84a20.77,20.77,0,0,1,3.53.75c6.6,2,11.28,6.89,12.5,13.73C328.1,710.94,319.57,720.63,310.32,725.87Z"/><path class="cls-3" d="M313.57,662.23c-1,2.17-.56,10.47-7.34,16.35-2.67,2.32-8.41,3-11.91,3h0c-1.74,0-2.93-.18-2.91-.41h-.52c.84-4.66,3.17-10.3,7.06-13a32.55,32.55,0,0,1,10.86-4.7C310.48,663,312.07,662.67,313.57,662.23Z"/><path class="cls-14" d="M310.32,725.87a32.73,32.73,0,0,1-9.66,3.9,36.13,36.13,0,0,1-13.67-.1c-6.14-1.12-12.78-3-17.64-7.15a19.57,19.57,0,0,1-3.1-3.27c7.92,3.53,26.68,9.67,40.76-3.13,18.32-16.66,3-31,3-31a20.77,20.77,0,0,1,3.53.75c6.6,2,11.28,6.89,12.5,13.73C328.1,710.94,319.57,720.63,310.32,725.87Z"/><path class="cls-4" d="M313.57,662.23c-1,2.17-.56,10.47-7.34,16.35-2.67,2.32-8.41,3-11.91,3,7.75-2.63,12.75-13.63,14.49-18.11C310.48,663,312.07,662.67,313.57,662.23Z"/><path class="cls-12" d="M281.26,692.19c-2.29-.61-5.3.15-7.41,1.12a15.23,15.23,0,0,0-6.33,5.18c-2.77,4-4.68,12.45.26,15.69,1.77,1.15,3.74-1.08,2.79-2.78a11.72,11.72,0,0,1,.3-11.72,13.18,13.18,0,0,1,4.29-4.79c2-1.29,4-1.72,6.1-2.5A.1.1,0,0,0,281.26,692.19Z"/></g></g></g></svg>