<svg xmlns="http://www.w3.org/2000/svg" viewBox="0 0 1918.59 1085.19"><defs><style>.cls-1{fill:#9d77e8;}.cls-2{fill:#b79bf9;}</style></defs><g id="Layer_2" data-name="Layer 2"><g id="Layer_1-2" data-name="Layer 1"><path class="cls-1" d="M393.41,923.21H340q18-.5,37-.29C382.45,923,387.9,923.08,393.41,923.21Z"/><path class="cls-1" d="M1655.76,0C1576.52,59.2,1426,309.51,1338.23,359.34c-95.55,54.23-208.29,82.38-320.38,104.72C956.91,476.21,894.08,487.39,841.43,516,734.19,574.3,694.13,689.45,608.86,769.53c-36.42,34.18-111.74,82.09-166.79,115.3-34.58,20.86-61.12,35.91-65,38.09q-19-.2-37,.29C115.3,929,0,1007.78,0,1007.78v-120H1.45V0Z"/><path class="cls-2" d="M1918.59,875v55.4s-539,283.61-1086.22,83.11c-172.66-63.27-319.22-87.18-439-90.27-5.51-.13-11-.24-16.36-.29,3.9-2.18,30.44-17.23,65-38.09,55.05-33.21,130.37-81.12,166.79-115.3C694.13,689.45,734.19,574.3,841.43,516c52.65-28.6,115.48-39.78,176.42-51.93,112.09-22.34,224.83-50.49,320.38-104.72C1426,309.51,1576.52,59.2,1655.76,0h260.41V875Z"/><path class="cls-2" d="M393.41,923.21H376.55l.5-.29C382.45,923,387.9,923.08,393.41,923.21Z"/></g></g></svg>