<svg xmlns="http://www.w3.org/2000/svg" xmlns:xlink="http://www.w3.org/1999/xlink" viewBox="0 0 650.18 519.38"><defs><style>.cls-1{isolation:isolate;}.cls-2{fill:#6b6b6b;}.cls-2,.cls-48{opacity:0.42;}.cls-11,.cls-18,.cls-2,.cls-22,.cls-23,.cls-25,.cls-32,.cls-33,.cls-34,.cls-38,.cls-4,.cls-40,.cls-46,.cls-48,.cls-52,.cls-6,.cls-9{mix-blend-mode:multiply;}.cls-3{fill:#ff8155;}.cls-4{fill:#f46d36;}.cls-4,.cls-40{opacity:0.36;}.cls-5{fill:#cc9281;}.cls-6{opacity:0.44;}.cls-7{fill:url(#linear-gradient);}.cls-8{opacity:0.51;fill:url(#linear-gradient-2);}.cls-31,.cls-49,.cls-8{mix-blend-mode:screen;}.cls-9{opacity:0.45;fill:url(#linear-gradient-3);}.cls-10,.cls-11{fill:#ffae43;}.cls-11{opacity:0.56;}.cls-12{fill:url(#linear-gradient-4);}.cls-13{fill:#495059;}.cls-14{fill:#f2f2f2;}.cls-15,.cls-34{fill:#d6d6d6;}.cls-16{fill:#ea9573;}.cls-17{fill:#3da6c0;}.cls-18{opacity:0.4;}.cls-19{fill:#1f6884;}.cls-20{fill:#f8a37a;}.cls-21{fill:#fff;}.cls-22,.cls-23,.cls-29,.cls-33{fill:#dd7258;}.cls-22{opacity:0.31;}.cls-23{opacity:0.09;}.cls-24,.cls-25{fill:#672410;}.cls-25{opacity:0.32;}.cls-26{fill:#2d2d2d;}.cls-27{fill:#a33;}.cls-28{fill:#e56e6e;}.cls-30{fill:#56170d;}.cls-31{opacity:0.28;}.cls-32,.cls-33{opacity:0.12;}.cls-34{opacity:0.33;}.cls-35{fill:#e7a68d;}.cls-36{fill:#f4b5a2;}.cls-37{fill:#ffdf7b;}.cls-39{fill:#02aaac;}.cls-40{fill:#2d7f75;}.cls-41{fill:#c6bfb9;}.cls-42{fill:#d3ccc7;}.cls-43{fill:#f9c853;}.cls-44{fill:#70ceeb;}.cls-45{fill:#277789;}.cls-46{fill:#712e57;opacity:0.26;}.cls-47{fill:#f2704f;}.cls-49{opacity:0.24;}.cls-50{fill:#848484;}.cls-51{fill:#a0a0a0;}.cls-52{fill:#b7b7b7;opacity:0.35;}</style><linearGradient id="linear-gradient" x1="328.06" y1="323.71" x2="316.18" y2="163.6" gradientUnits="userSpaceOnUse"><stop offset="0" stop-color="#ffd247"/><stop offset="1" stop-color="#ffdf7b"/></linearGradient><linearGradient id="linear-gradient-2" x1="320.51" y1="296.92" x2="323.95" y2="158.13" xlink:href="#linear-gradient"/><linearGradient id="linear-gradient-3" x1="212.75" y1="313.83" x2="447.02" y2="313.83" xlink:href="#linear-gradient"/><linearGradient id="linear-gradient-4" x1="326.98" y1="398.05" x2="329.66" y2="289.81" gradientUnits="userSpaceOnUse"><stop offset="0" stop-color="#ffcb64"/><stop offset="1" stop-color="#ffa538"/></linearGradient></defs><g class="cls-1"><g id="Layer_2" data-name="Layer 2"><g id="Layer_1-2" data-name="Layer 1"><ellipse class="cls-2" cx="325.09" cy="504.65" rx="325.09" ry="14.74"/><polygon class="cls-3" points="619.26 213.69 619.26 233.81 538.25 233.81 538.25 215.78 619.26 213.69"/><path class="cls-4" d="M619.26,217.71V233.8h-81V221.46c4.1,1.72,11.76,3.46,26,3.64C592.11,225.44,612.66,224.46,619.26,217.71Z"/><path class="cls-5" d="M263.12,378.82l-8.62,22.09L215,502.14H202.1S223.21,428,233,393.38c2.87-10.12,4.78-16.87,4.92-17.38L250,377.35Z"/><g class="cls-6"><polygon class="cls-5" points="263.12 378.82 254.5 400.91 214.97 502.14 211 502.14 250.02 377.35 263.12 378.82"/></g><g class="cls-6"><path class="cls-5" d="M238,376l25.16,2.82-8.62,22.09A171.68,171.68,0,0,1,233,393.38C235.91,383.26,237.82,376.51,238,376Z"/></g><path class="cls-5" d="M342,502.14H329.56l-12.45-92.47-4.85-36,1.44.2,23.64,3.24c0,.76.51,14.18,1.17,32C339.91,446.14,342,502.14,342,502.14Z"/><g class="cls-6"><polygon class="cls-5" points="333.86 502.14 329.56 502.14 317.11 409.67 312.26 373.68 313.7 373.88 324.07 391.88 324.24 393.82 333.86 502.14"/></g><g class="cls-6"><path class="cls-5" d="M337.34,377.12c0,.76.51,14.18,1.17,32-7.44.5-14.58.67-21.4.58l-4.85-36Z"/></g><path class="cls-5" d="M445.21,502.14H432.34L392.58,400.31l-8.39-21.49,11.19-1.25,14-1.57c.14.52,2.11,7.48,5.07,17.88C424.31,428.7,445.21,502.14,445.21,502.14Z"/><g class="cls-6"><path class="cls-5" d="M436.12,502.14h-3.78L392.58,400.31l-8.39-21.49,11.19-1.25C402.46,399.8,427.6,476.24,436.12,502.14Z"/></g><g class="cls-6"><path class="cls-5" d="M414.42,393.88q-11.18,3.71-21.84,6.43l-8.39-21.49L409.35,376C409.49,376.52,411.46,383.48,414.42,393.88Z"/></g><path class="cls-7" d="M447,272.23a158.72,158.72,0,0,1-4,18.51c-6.24,22.22-9.22,44.34-33.5,58.91-4.68,2.8-10.75,4.78-15.49,7.44A130.44,130.44,0,0,1,364.39,369c-30.87,8.46-65.54,12.15-96.68,3.14a63,63,0,0,1-24.53-13.85c-10.07-9-17.79-20.84-23.58-33.26a182.66,182.66,0,0,1-6.85-17.08c-1.67-4.81-3.2-9.68-4.64-14.59s-2.74-9.59-4.06-14.4c-6-21.69-11.87-43.84-10.94-66.33a100.69,100.69,0,0,1,54.76-85.9c14.55-7.38,30.85-11,46.91-13,17.5-2.21,35.51-3.67,53.12-2.2a103.65,103.65,0,0,1,34.69,9.19,112.75,112.75,0,0,1,39.19,30c17.19,20.45,24.13,49.85,26.54,75.93A187.08,187.08,0,0,1,447,272.23Z"/><path class="cls-8" d="M445.11,290.38C443.9,273.7,429.67,122,314.68,138.76c-121.65,17.72-99.75,159.4-99.75,159.4L208.24,293c-1.42-4.77-2.76-9.58-4.1-14.37-6-21.65-12-43.75-11-66.2a100.42,100.42,0,0,1,55.22-85.73c14.67-7.37,31.11-11,47.3-13,17.64-2.2,35.81-3.66,53.56-2.2a105.43,105.43,0,0,1,35,9.18,113.64,113.64,0,0,1,39.52,29.9C441,171,448,200.31,450.45,226.33,452.39,247.06,451,269.52,445.11,290.38Z"/><path class="cls-9" d="M447,272.23a158.72,158.72,0,0,1-4,18.51c-6.24,22.22-6,41.69-24,56.28-4.23,3.44-20.27,7.41-25,10.07l-150.86,1.19c-10.07-9-17.79-20.84-23.58-33.26a182.66,182.66,0,0,1-6.85-17.08l1.61-12.5s21.26,18.41,112.77,12.8,113-34.15,116-38.37C444,268.61,445.44,269.86,447,272.23Z"/><path class="cls-10" d="M425.56,330.35c-.63,1-1.27,1.95-1.92,2.9a86.2,86.2,0,0,1-14.11,16.4c-7.12,6.26-15.41,10.78-23.9,14.56-30.73,13.69-64.73,18-97.83,14.61a100.67,100.67,0,0,1-19.46-3.62c-16.15-5-30.49-16.46-39.59-31.66a57.55,57.55,0,0,1-2.88-5.48c-.42-.88-.82-1.79-1.21-2.73h0c-.42-1,24.75-10.21,100.75-9.94,72.85.27,92.69-.56,99.35,4.3A8.86,8.86,0,0,1,425.56,330.35Z"/><path class="cls-11" d="M424.76,329.68a15,15,0,0,0-1.12,1.27c-4.13,5.32-22.56,23.68-93.75,27.33s-96.51-15.51-97.28-14l-.75,1.49-6-7.75c-.42-.88-.82-1.79-1.21-2.73h0c-.42-1,24.75-10.21,100.75-9.94C398.26,325.65,418.1,324.82,424.76,329.68Z"/><path class="cls-12" d="M192.26,345.81s-23.1-41.86-6.8-59.31,27.19-6,34.09,18.05,41.25,73.86,104.52,70.75c78.11-3.83,103.2-36.44,114.74-74.47s14-44.71,28.17-44.71S492.3,301,448.2,352.72s-137.72,50.8-166.39,45.58S216.05,384.1,192.26,345.81Z"/><path class="cls-13" d="M301.32,450.3c-.08.29-.38.44-.65.55a54.42,54.42,0,0,1-7.09,2.21l-9.25,2.43c-9.56,2.52-19.13,5-28.83,6.92a17.88,17.88,0,0,1-5.82.45,3.92,3.92,0,0,1-2.41-1.06,4.35,4.35,0,0,1-.85-1.77,18.43,18.43,0,0,1-.4-8.35A20.2,20.2,0,0,1,253.68,439a21.56,21.56,0,0,1,22.38-1.6,9.47,9.47,0,0,0,2.65,1.12,2.47,2.47,0,0,0,2.55-1,3.13,3.13,0,0,0,.34-1.51,20.86,20.86,0,0,0-2.2-10.33l11.1-.94q4.17,8.38,7.71,17.06,1.57,3.9,3,7.84A1,1,0,0,1,301.32,450.3Z"/><path class="cls-13" d="M418.36,460a4.37,4.37,0,0,1-.86,1.77,3.9,3.9,0,0,1-2.41,1.06,17.84,17.84,0,0,1-5.81-.45c-9.71-1.89-19.28-4.4-28.84-6.92l-9.25-2.43a54.76,54.76,0,0,1-7.08-2.21c-.28-.11-.58-.26-.66-.55a1.09,1.09,0,0,1,.09-.61q1.43-3.88,3-7.72,3.54-8.75,7.75-17.18l11.11.94a20.76,20.76,0,0,0-2.21,10.33,3.25,3.25,0,0,0,.34,1.51,2.48,2.48,0,0,0,2.55,1,9.35,9.35,0,0,0,2.65-1.12,21.56,21.56,0,0,1,22.38,1.6A20.34,20.34,0,0,1,419,453.78,18.33,18.33,0,0,1,418.36,460Z"/><path class="cls-14" d="M404.4,261.06c.06,2.47-2.2,4.38-4.47,5.35-5.67,2.42-12.11,1.45-18.26,1-20.78-1.39-41.39,4.18-62.19,5.15-4,.18-7.92.2-11.88.21l-53.68.23c-2.07,0-4.35-.06-5.89-1.44s-1.39-4.55.63-5l-3-2.47c10.79-14.75,31-23.2,46.91-32.19,3-1.7,6-3.4,9.12-4.87.45-.22.9-.42,1.36-.63,1-.44,2-.85,3-1.24,12.91-5,27.2-5.63,41-3.27q3.89.66,7.7,1.64c1.09.28,2.18.58,3.26.89,18.52,5.4,36.22,16.47,45.36,33.47A7.22,7.22,0,0,1,404.4,261.06Z"/><path class="cls-15" d="M347,221.94c-.38.92-5.78,13.52-19.69,14.07-12.5.5-19.58-8.39-21.27-10.8C319,220.23,333.25,219.58,347,221.94Z"/><path class="cls-16" d="M340.57,221.61s-2.25,10.79-14,11-15.4-8.68-15.4-8.68l-.64-4.36h0l-.92-6.25,26.93-6.21,2.53-.58.16,1.61.82,8.34Z"/><path class="cls-17" d="M416.46,348.42a21.57,21.57,0,0,0-1-6.19,22,22,0,0,0-3.55-6.29c-5.74-7.43-14.15-12.3-22.67-16.25a97.24,97.24,0,0,0-15.58-5.86h0a61.77,61.77,0,0,0-7.4-1.5c-9.48-1.3-19.09-.05-28.67.23l.06-.23c-1.75.16-3.5.25-5.24.28s-3.5-.12-5.24-.28c0,.08,0,.16.05.23-9.58-.28-19.19-1.53-28.67-.23a63.1,63.1,0,0,0-10.93,2.56,107.86,107.86,0,0,0-12,4.81c-8.52,3.95-16.94,8.82-22.67,16.25a21.75,21.75,0,0,0-3.55,6.29,23.8,23.8,0,0,0-1,8.14,51.8,51.8,0,0,0,.45,6c1.12,8.66,4.18,17.06,7.2,25.31.31.87.66,1.77,1,2.7,7.26,18.1,24.1,46.64,24.1,46.64,2,.7,6.42-.67,9.28-1.71,1.52-.55,2.6-1,2.6-1s-.85-7.09-1.16-10.28q-1-10.71-3-21.32c-1.25-6.69-2.79-13.41-2.61-20.22.08-3,.54-6.12,2.2-8.63,2.6-3.9,7.49-5.48,12-6.6,4.77-1.18,9.6-2.15,14.41-3.21a80.55,80.55,0,0,1,35.1,0c4.8,1.06,9.63,2,14.4,3.21,4.56,1.12,9.44,2.7,12,6.6,1.66,2.51,2.12,5.63,2.2,8.63.18,6.81-1.36,13.53-2.61,20.22q-2,10.59-3,21.32c-.31,3.19-1.15,10.28-1.15,10.28s1.8.78,4.06,1.53c2.75.92,6.16,1.79,7.81,1.2,0,0,18.61-31.54,25.14-49.34.94-2.58,1.89-5.17,2.78-7.79,2.61-7.65,4.73-15.46,4.86-23.5C416.49,349.72,416.48,349.06,416.46,348.42Z"/><g class="cls-18"><path class="cls-17" d="M373.64,313.83h0s-9.13,12.47-39.78,14.56c-26,1.77-42-9.9-46.26-13.51a63.1,63.1,0,0,1,10.93-2.56c9.48-1.3,19.09-.05,28.67.23,0-.07,0-.15-.05-.23,1.74.16,3.49.25,5.24.28s3.49-.12,5.24-.28l-.06.23c9.58-.28,19.19-1.53,28.67-.23A59.9,59.9,0,0,1,373.64,313.83Z"/></g><path class="cls-14" d="M375.19,265c-1.29,9.84-2.31,16.06-3.39,23.06-.51,3.33-1,6.85-1.62,11-.2,1.45-.41,3-.62,4.62-.31,2.35-.65,4.79-1.91,6.8a13.29,13.29,0,0,1-4.88,4.22c-8.53,4.83-18.72,5.54-28.52,5.84-13.69.42-28.21,0-39.82-7.23a15.27,15.27,0,0,1-4.54-4,19.19,19.19,0,0,1-2.5-6.95c-.22-1-.46-2.13-.71-3.31-.67-3.24-1.45-7-2.25-11-1.92-9.54-4-20.17-5.37-26.8Z"/><path class="cls-19" d="M309.36,253.41a69.93,69.93,0,0,1-17.54-17.95,22.13,22.13,0,0,1-3.17-6.19c-.56-2-.44-4.46,1.31-5.47a3.75,3.75,0,0,1,3.74.28,10.89,10.89,0,0,1,2.77,2.77q10,12.75,19.61,25.78Z"/><path class="cls-16" d="M333.46,262.31l-11.5.32a100.48,100.48,0,0,0-11.63.76,50.92,50.92,0,0,0-11.75,3.16,1.88,1.88,0,0,0-1.19.93,1.64,1.64,0,0,0,.59,1.61,8.67,8.67,0,0,0,5,2,51.71,51.71,0,0,0,13.72-.29c6.89-.84,13.73-2,20.56-3.14Z"/><path class="cls-20" d="M301.46,264.4q2.09-4.93,4.6-9.69a7.65,7.65,0,0,1,2.26-2.94,6.78,6.78,0,0,1,3-.94,23.91,23.91,0,0,1,8,.35c1.9.41,4,1.32,4.5,3.19a4,4,0,0,1-.8,3.28,10.84,10.84,0,0,1-2.6,2.31,4.26,4.26,0,0,1,4.12,7.41c1.61-.2,3.64.6,3.75,2.22a2.59,2.59,0,0,1-1.27,2.22,6.93,6.93,0,0,1-2.52.87,43.43,43.43,0,0,1-23.35-2Z"/><path class="cls-21" d="M401.06,254c-17.63-12.64-55.47,1-71.58,8.34-.41,4.69,4,9.89,4.41,10.72,0,0,40.3-.68,54.57-1.1S414.32,263.48,401.06,254Z"/><path class="cls-21" d="M244.74,265a11.29,11.29,0,0,1,.87-1.65c2-3.15,8.81-7.49,12.47-8.14,21.67-3.84,38.55-.69,46.21,2.94.94.45,1.09,11,1.32,12.81a1.9,1.9,0,0,1-.19,1.45,1.93,1.93,0,0,1-1.36.55,256.87,256.87,0,0,1-50.36,1.08c-2.52-.2-5.13-.46-7.26-1.8C243.74,270.58,243.68,267.62,244.74,265Z"/><path class="cls-22" d="M340.07,216.49c-3.3,3-7.63,6.06-11.8,6.51-8.28.9-17.48-3.32-17.71-3.42h0l-.92-6.25,26.93-6.21,2.69,1Z"/><path class="cls-20" d="M384.17,149.14c0,.32,0,.63,0,1a46.63,46.63,0,0,1-2.57,15.22c-2.46,6.47-7,11.89-11.5,17.17-7.83,9.24-15.7,18.52-24.85,26.45-4.82,4.18-10.22,8.08-16.49,9.29-5.09,1-10.34.12-15.41-1a184.28,184.28,0,0,1-44.15-15.54c-4.56-2.29-9.13-4.86-12.46-8.73-3.44-4-5.29-9.13-7-14.15-.43-1.27-.84-2.55-1.25-3.84a376.7,376.7,0,0,1-16.11-76.53l-.06-2.22c-4.23-11.06,3.36-23.1,12-31.22a102.48,102.48,0,0,1,73.91-27.5c11.81.52,23.8,3.25,33.56,9.91,10.92,7.45,18.24,19.29,22.57,31.78s6,25.72,7.55,38.84C383.14,128.38,384.38,138.74,384.17,149.14Z"/><path class="cls-23" d="M384.15,150.09a46.63,46.63,0,0,1-2.57,15.22c-2.46,6.47-7,11.89-11.5,17.17-7.83,9.24-15.7,18.52-24.85,26.45-4.82,4.18-10.22,8.08-16.49,9.29-5.09,1-10.34.12-15.41-1a184.28,184.28,0,0,1-44.15-15.54c-4.56-2.29-9.13-4.86-12.46-8.73-3.44-4-5.29-9.13-7-14.15-.43-1.27-.84-2.55-1.25-3.84.75.3,3.07-1.16,4.19.13,13.25,15.06,48.69,32.21,74.39,28.64s53.54-53.89,53.54-53.89Z"/><path class="cls-22" d="M244.13,136.58l1.54,6.29s10.59-25.21,5.24-43.06c0,0,15.7,10.71,41.4,8.57s37.12-13.92,37.12-13.92-8.56-3.57-12.13-8.21c0,0,23.2,2.14,33.55-9.28,0,0,0,13.92,14.28,26.41s16.63,17.91,16.63,17.91l-8.12-44L346.57,47l-41.05,8.92L251.62,78.4l-13.56,2.85s-2.5,14.64-2.14,17.49S244.13,136.58,244.13,136.58Z"/><path class="cls-21" d="M341.67,154.21a13.54,13.54,0,0,1-5.1-10.4A15.7,15.7,0,0,1,340.92,133a15.2,15.2,0,0,1,10.56-4.84,12.56,12.56,0,0,1,10.33,5,17.84,17.84,0,0,1,1.77,3.24,16.55,16.55,0,0,1,1.61,6.74c-.06,3.65-2,7.06-4.56,9.67a12.92,12.92,0,0,1-7.25,4.11c-3,.41-6-.69-8.78-1.78-1.85-.72-3.86-1.6-4.65-3.41Z"/><path class="cls-24" d="M242.5,153.46q-4.45-6.86-8.68-13.85l-.92-1.52c-7.73-13-14.81-26.85-15.4-41.87a43.28,43.28,0,0,1,4.16-20.09,38,38,0,0,1,3.25-5.53,29.1,29.1,0,0,1,15.37-11.46l.22.6c-2.4,10.37-.59,20.81,1.86,31.3,1.95,8.33,4.31,16.7,5.27,25.1A76.63,76.63,0,0,1,242.5,153.46Z"/><path class="cls-20" d="M397.93,147.44a27,27,0,0,1-17.31,2.44h0a31.58,31.58,0,0,1-4.29-1l2.32-21.34c2-7.16,8.72-13.24,16.14-12.85a14.24,14.24,0,0,1,9.61,4.74,16.24,16.24,0,0,1,4.35,10C409.16,136.77,404.45,143.93,397.93,147.44Z"/><path class="cls-24" d="M389,103.12a80.36,80.36,0,0,1-6.38,21c-2.2-9.19-9.22-16.3-14.65-24a76.55,76.55,0,0,1-4.49-7.2,78.39,78.39,0,0,1-9-27.48l14.75-18.71,1.25-1.57a11.36,11.36,0,0,1,1.16.24c6,1.56,10,7.76,12.39,13.65A82.38,82.38,0,0,1,389,103.12Z"/><path class="cls-25" d="M389,103.12c-.93-14.75-4-38-13.87-32.57s-11.52,16.1-11.65,22.33a78.39,78.39,0,0,1-9-27.48l14.75-18.71,2.41-1.33c6,1.56,10,7.76,12.39,13.65A82.38,82.38,0,0,1,389,103.12Z"/><path class="cls-24" d="M272.92,119.14a1.07,1.07,0,0,0-1.15-1.06c-3.58.25-6.58,2.59-9.29,4.76a22.28,22.28,0,0,0-6.87,8.39c-.88,2.07-1.79,5.72,1.21,6.48,3.37.86,6.62-2.6,8.72-4.7,2.83-2.84,5.83-5.92,7.72-9.51A3.75,3.75,0,0,0,272.92,119.14Z"/><path class="cls-24" d="M359.65,109.68c-2.06-3.13-7.33-4.26-10.77-4.6-4.19-.4-9,.1-12.72,2.1a8,8,0,0,0-1.58,1,4.19,4.19,0,0,0-1.78,1.7c-1.81,3.78,6,4.91,8,5.21,4.6.7,9.64,1.85,14.29,1.12C358.13,115.78,361.89,113.09,359.65,109.68Z"/><path class="cls-26" d="M343.29,153c-2.42-4.06-2.43-9.53,1.33-12.8,3.44-3,9.59-3.7,13.12-.46,3.7,3.39,4.93,9.29.68,12.77-3.5,2.88-10.26,2.9-13.85.13-8.81-6.81,9.42-20.36,13.45-8.79,1.87,5.38-3.09,7.7-7.64,7.37-1.82-.13-4.31-.74-4.9-2.78-.67-2.31,1.83-5.15,3.8-6s5-.39,5.45,2.1a3.42,3.42,0,0,1-3.92,4.06c-1-.12-2.41-.67-2.61-1.73s1.29-2.29,2.39-2.34c.84,0,2.58,1,1.49,2-.39.35-1,.1-1.4.1-.66-.25-.71-.27-.14,0,.52-.06.77.25.73.91l3.06-1.75-.36-.4c-.84-2.32-4.44-1.42-3.76,1a4.92,4.92,0,0,0,2.07,2.86,2,2,0,0,0,3.05-1.75c-.16-1.95-1.3-3.88-3.48-4a3.42,3.42,0,0,0-3.39,4.24c1.46,4.56,8.41,1.1,6-3.21-2.25-4-9.35-1.56-8.26,3s8.49,4.23,10,.14c1.65-4.52-3.09-8.22-7.3-7-4.56,1.35-6.56,7-2.71,10.27,3.34,2.81,8.93,2.35,11.44-1.34a7.53,7.53,0,0,0-2.48-10.82c-9-4.76-19.71,9.94-10,15.5,4,2.28,9.86,1.8,13.57-.83,4.06-2.88,4.58-8.11,2.26-12.29-4.9-8.82-18.13-4.83-21.21,3.49a9.23,9.23,0,0,0,4.18,11.53c4,2.06,9.26,1.82,13.34,0,4.4-2,7.74-6.41,6.56-11.4a12.18,12.18,0,0,0-10.89-9.6c-4.79-.32-10,2.13-12.1,6.55-1.88,3.85-1.42,8.9,2.23,11.51.16.11.35-.11.26-.27Z"/><path class="cls-21" d="M291.65,161.21A13.53,13.53,0,0,0,290,149.75a15.65,15.65,0,0,0-9.7-6.51,15.22,15.22,0,0,0-11.45,1.93,12.58,12.58,0,0,0-5.74,9.93,17.61,17.61,0,0,0,.37,3.68,16.47,16.47,0,0,0,2.45,6.48c2.11,3,5.64,4.7,9.21,5.43a13,13,0,0,0,8.31-.69c2.71-1.34,4.55-3.93,6.26-6.42,1.12-1.62,2.29-3.49,1.92-5.43Z"/><path class="cls-21" d="M345.26,150.28a3.83,3.83,0,0,0,.6,3.06c.29,1.56,2.16,2.48,3.81,2.25a4.35,4.35,0,0,0,3.58-4.09C353.49,146.86,346.3,145.61,345.26,150.28Z"/><path class="cls-26" d="M290,161.2c1.39-3.77-.49-7.75-3.6-10a12,12,0,0,0-12-.91,11.48,11.48,0,0,0-7.11,10.26c-.08,4.73,1.8,9.24,6.57,10.81,7.91,2.62,21-4.88,17.7-14.28-3.11-8.81-17.42-9.34-22-1.51a10.69,10.69,0,0,0,1.47,12c3.42,3.68,9,3,13,.65s7.41-7.3,4.88-11.88c-2.15-3.9-7.94-5.56-12-4.31-4.35,1.32-7.17,6.13-5.14,10.43a7.57,7.57,0,0,0,11,3.16c3.4-2.22,5.38-7.55,1.66-10.44s-9.83-1-10.49,3.86c-.76,5.65,6.39,7.75,9.52,3.32,3.57-5.05-3.92-9.18-7-4.54a3.94,3.94,0,0,0,1,5.49,3.39,3.39,0,0,0,5.11-2.47,3.28,3.28,0,0,0-4.31-3.23c-2.45.77-2.81,3.64-1.69,5.63a2.06,2.06,0,0,0,3.71-.49,4.56,4.56,0,0,0,0-3.09c-.8-2.36-4.39-1.42-3.76,1l0,.49H280a1.5,1.5,0,0,1,.18-1.5,16.21,16.21,0,0,1-1.33,1.05c-1.49,0-.79-1.93-.15-2.42a2.69,2.69,0,0,1,2.85-.08c1.14.74.59,2-.11,2.94-3.24,4.18-9.06-1.59-4.63-4.64,3.55-2.43,11.05.79,7.64,5.47-2.24,3.08-8.18,6.05-11,2.21s-.93-8.67,3.25-10.37,10.67-.26,11.87,4.67c1.13,4.6-4,8.82-7.83,10.18-5.18,1.84-10.13-1.17-10.61-6.64-.27-3.08.4-5.76,2.73-7.89a11.12,11.12,0,0,1,6.91-2.9c5.67-.27,9.6,4.51,9.92,9.88a.19.19,0,0,0,.38,0Z"/><path class="cls-21" d="M286.47,160a3.83,3.83,0,0,1,1.22,2.87c.64,1.46-.39,3.27-1.88,4a4.36,4.36,0,0,1-5.26-1.37C277.73,161.79,283,156.71,286.47,160Z"/><path class="cls-27" d="M338.46,185.25a17.65,17.65,0,0,1-11.34,10.57,19,19,0,0,1-16.22-1.73h0a31.75,31.75,0,0,1-9.21-8.64,30.17,30.17,0,0,1-2.2-3.43c.56-.18,26.3-.18,40.11-13.61a32.36,32.36,0,0,1,.63,5.84A28.38,28.38,0,0,1,338.46,185.25Z"/><path class="cls-21" d="M340.23,174.24a36.25,36.25,0,0,1-16.86,10.38,48.89,48.89,0,0,1-21.68.82,30.17,30.17,0,0,1-2.2-3.43c.56-.18,26.3-.18,40.11-13.61A32.36,32.36,0,0,1,340.23,174.24Z"/><path class="cls-28" d="M338.46,185.25a17.65,17.65,0,0,1-11.34,10.57,19,19,0,0,1-16.22-1.73h0s5.84-5,13.45-3.61C324.35,190.47,325.76,185.87,338.46,185.25Z"/><path class="cls-22" d="M390.16,132.92c3.95-3.41,7-8.93,5.46-14.12a.32.32,0,0,0-.62,0c-1.13,5.3-2.56,10.06-7.29,13.26a1.12,1.12,0,0,0,0,1.91,12.23,12.23,0,0,1,4.19,4.21c.83,1.39,1.19,2.95,2.47,4a.54.54,0,0,0,.83-.11C396.69,138.7,393.08,135,390.16,132.92Z"/><path class="cls-29" d="M318.74,202.5a12.37,12.37,0,0,0,11.45,1.39c1.75-.71,6.52-3.88,5.2-6.25a.32.32,0,0,0-.35-.14c-1.05.26-1.36,1.39-2.06,2.15a10,10,0,0,1-3.56,2.41c-3.27,1.34-7.06.68-10.23-.64-.64-.26-1,.74-.45,1.08Z"/><path class="cls-24" d="M380.4,51.58C373.31,59.2,364.92,66,355,69s-21.71,1.62-29.3-5.5a27.37,27.37,0,0,0,14.08,15.3,32.82,32.82,0,0,1-37.29-3.75,33.1,33.1,0,0,0,19.07,20,62.41,62.41,0,0,1-52.86,4.39c-9.39-3.57-18.78-9.57-28.65-7.71L234.73,85l-9.86-12.66A53.49,53.49,0,0,1,223.62,64c-2.21-32.11,28.15-49.27,50.17-53.41,40.43-7.61,54.76.7,67.44-4.5A70,70,0,0,0,352.09.5c8.22-5.16,20.49,31.1,29.56,25.53C387.68,22.32,390.59,40.63,380.4,51.58Z"/><path class="cls-30" d="M242.5,153.46q-4.45-6.86-8.68-13.85l-.92-1.52c16.29-19.18-11.24-62-11.24-62a38,38,0,0,1,3.25-5.53A79.44,79.44,0,0,1,242.36,91c1.95,8.33,4.31,16.7,5.27,25.1A76.63,76.63,0,0,1,242.5,153.46Z"/><path class="cls-20" d="M255.53,171c-.9,1.33-1.84,2.69-2.86,4-2.87,3.71-6.3,7-10.81,7.74-6.3,1.1-14.69-1.71-18.57-6.87a16.78,16.78,0,0,1-3.09-9.7,28.8,28.8,0,0,1,.29-4.87,21,21,0,0,1,2.08-6.7c4.73-8.9,14.42-8.42,23.1-7.29Z"/><path class="cls-22" d="M240.76,165c-5-1.56-7.88-5.8-9.6-10.48a.48.48,0,0,0-.94.13c-.18,5.43,3.79,9.82,8.51,12a34.72,34.72,0,0,0-2.67,4.72c-.8,1.74-1.79,3.76-1.54,5.7a1.37,1.37,0,0,0,2.53.69c1-1.56,1.14-3.52,1.7-5.26a27.73,27.73,0,0,1,2.68-5.8A1.14,1.14,0,0,0,240.76,165Z"/><path class="cls-30" d="M380.4,51.58C373.31,59.2,364.92,66,355,69s-21.71,1.62-29.3-5.5a27.37,27.37,0,0,0,14.08,15.3,32.82,32.82,0,0,1-37.29-3.75,33.1,33.1,0,0,0,19.07,20,62.41,62.41,0,0,1-52.86,4.39c-8.61-3.28-17.22-8.59-26.19-8,0-.14-.07-.29-.11-.43a79.63,79.63,0,0,0-7.47-10.51c.37,0,23,2.93,42.79,10.36,20,7.5,21.77-8.92,6.07-22.84s19.27.35,29.62,0,2.14-16.78-5.71-21.06,34.62,19.63,57.47,2.85c10.4-7.64,14.81-16.47,16.52-23.81C387.68,22.32,390.59,40.63,380.4,51.58Z"/><g class="cls-31"><path class="cls-24" d="M351.81,1.83a35,35,0,0,1-23.06,24.76c-8.84,2.79-18.49,1.91-27.39,4.49a11.1,11.1,0,0,0-5.75,3.27c-2.15,2.7-1.93,6.78-4.19,9.4-2.12,2.46-5.82,2.86-9,2.27s-6.2-2-9.41-2.48-6.92.17-8.8,2.82c-3,4.23.43,10.18-.71,15.24-1,4.37-5.21,7.26-9.46,8.66-10.28,3.41-21.69.33-30.41-6.27-2.21-32.11,28.15-49.27,50.17-53.41,40.43-7.61,54.76.7,67.44-4.5C345,4.54,351.91,1.39,351.81,1.83Z"/></g><g class="cls-32"><path class="cls-29" d="M324.22,153.89a8.83,8.83,0,0,0-6.45-3,15.35,15.35,0,0,0-7,1.66c-3,1.43-5.85,3.58-6.27,7.12a3.51,3.51,0,0,0,.3,2.15,2,2,0,0,0,2.64.94,4.41,4.41,0,0,0,1.15-1.13c1.8-2.08,4.69-2.78,7.41-3.11s5.56-.39,8-1.59a1.89,1.89,0,0,0,.62-.42C325.28,155.84,324.84,154.65,324.22,153.89Z"/></g><path class="cls-29" d="M324.67,160.61c-1.65-2.62-7.32-.78-9.67,0-3.16,1.1-6.57,2.84-7.9,6.07-.05.13.11.27.23.23,3.05-1,5.65-3,8.78-3.82a19.22,19.22,0,0,1,5.33-.7c1.34,0,2.13.3,3.1-.75A.89.89,0,0,0,324.67,160.61Z"/><path class="cls-33" d="M252.67,175c-2.87,3.71-6.3,7-10.81,7.74-6.3,1.1-14.69-1.71-18.57-6.87a16.78,16.78,0,0,1-3.09-9.7,28.8,28.8,0,0,1,.29-4.87C221.83,165,228.66,179,252.67,175Z"/><path class="cls-33" d="M397.93,147.44a27,27,0,0,1-17.31,2.44c24.78-6.33,23.78-30.5,23.78-30.5a16.24,16.24,0,0,1,4.35,10C409.16,136.77,404.45,143.93,397.93,147.44Z"/><path class="cls-15" d="M254,257a39.67,39.67,0,0,0,5-1.08,52.84,52.84,0,0,1,5.62-.66c3.87-.32,7.77-.66,11.65-.75a91.6,91.6,0,0,1,11.83.53c2.16.24,4.31.52,6.44.92,1.82.34,3.69,1.08,5.54,1a.29.29,0,0,0,.14-.54c-1.53-1-3.56-1.32-5.33-1.78-2.16-.55-4.34-1.06-6.55-1.42a64.16,64.16,0,0,0-12.46-.85,108,108,0,0,0-11.5,1.08c-3.23.45-8,.95-10.43,3.36a.09.09,0,0,0,.06.15Z"/><path class="cls-15" d="M331.37,261.68c5.51-1.08,10.84-3.87,16.12-5.77a124.76,124.76,0,0,1,15.61-4.62,81.69,81.69,0,0,1,15.26-1.85c5-.12,10.56-.22,15.43,1.08a.05.05,0,0,0,0-.1,42.09,42.09,0,0,0-14.75-2.9,73.4,73.4,0,0,0-15.5,1.72,104.91,104.91,0,0,0-16.46,5.31c-5.22,2.07-11,4-15.79,7a.06.06,0,0,0,.05.11Z"/><g class="cls-18"><path class="cls-13" d="M301.32,450.3c-.08.29-.38.44-.65.55a54.42,54.42,0,0,1-7.09,2.21l-9.25,2.43c-9.56,2.52-19.13,5-28.83,6.92a17.88,17.88,0,0,1-5.82.45,3.92,3.92,0,0,1-2.41-1.06,4.35,4.35,0,0,1-.85-1.77,18.43,18.43,0,0,1-.4-8.35c3.91,2,16.56,6.8,37.06-.75,7.15-2.63,11.93-5.84,15.13-9.08q1.57,3.9,3,7.84A1,1,0,0,1,301.32,450.3Z"/></g><g class="cls-18"><path class="cls-13" d="M418.36,460a4.37,4.37,0,0,1-.86,1.77,3.9,3.9,0,0,1-2.41,1.06,17.84,17.84,0,0,1-5.81-.45c-9.71-1.89-19.28-4.4-28.84-6.92l-9.25-2.43a54.76,54.76,0,0,1-7.08-2.21c-.28-.11-.58-.26-.66-.55a1.09,1.09,0,0,1,.09-.61q1.43-3.88,3-7.72a58.48,58.48,0,0,0,28.14,12.62,66.09,66.09,0,0,0,24.35-.81A18.33,18.33,0,0,1,418.36,460Z"/></g><g class="cls-18"><path class="cls-17" d="M375.88,429.8c-2.26-.75-4.06-1.53-4.06-1.53s.84-7.09,1.15-10.28q1-10.71,3-21.32c1.25-6.69,2.79-13.41,2.61-20.22-.08-3-.54-6.12-2.2-8.63-2.6-3.9-7.48-5.48-12-6.6-4.77-1.18-9.6-2.15-14.4-3.21a80.55,80.55,0,0,0-35.1,0c-4.81,1.06-9.64,2-14.41,3.21-4.55,1.12-9.44,2.7-12,6.6-1.66,2.51-2.12,5.63-2.2,8.63-.18,6.81,1.36,13.53,2.61,20.22q2,10.59,3,21.32c.31,3.19,1.16,10.28,1.16,10.28s-1.08.47-2.6,1c0,0-22.78-55.53-11.3-67.54s39.75-17.57,55.42-17.42,41,5,49.71,14.42S374.24,419.65,375.88,429.8Z"/></g><g class="cls-18"><path class="cls-17" d="M416.47,350.37c-.13,8-2.25,15.85-4.86,23.5a15.92,15.92,0,0,1-1.5-1.09,17.77,17.77,0,0,1-6.2-9.21,4,4,0,0,1-.1-2.07c.36-1.28,1.71-2,2.87-2.63a24.09,24.09,0,0,0,9.78-10.45C416.48,349.06,416.49,349.72,416.47,350.37Z"/></g><g class="cls-18"><path class="cls-17" d="M264.33,373.48c-.39,3-2.85,5.34-4.87,7.66a33.6,33.6,0,0,0-2.48,3.22c-.37-.93-.72-1.83-1-2.7-3-8.25-6.08-16.65-7.2-25.31a41.71,41.71,0,0,0,4.41,5.16c3,3.06,6.45,5.76,9.75,8.56a5.22,5.22,0,0,1,1,1.11A3.5,3.5,0,0,1,264.33,373.48Z"/></g><path class="cls-34" d="M371.8,288.1c-.51,3.33-1,6.85-1.62,11l-12.68,3.13a123.18,123.18,0,0,1-61.76-.68l-9.06-2.45c-.67-3.24-1.45-7-2.25-11Z"/><path class="cls-35" d="M197.65,299.9l-2.07,4.56-5.5,12.16-84,185.52H90.28s49.25-132.31,68.66-185.43c4.65-12.71,7.58-20.88,7.72-21.63Z"/><g class="cls-6"><path class="cls-5" d="M166.66,295.08l31,4.82-7.57,16.72c-12.69,0-23.3.05-31.14.09C163.59,304,166.52,295.83,166.66,295.08Z"/></g><path class="cls-35" d="M558.78,502.14H542.93L459.06,316.78l-7.64-16.88,5-.77,26-4.05c.14.75,3.1,9,7.76,21.75C509.6,370,558.78,502.14,558.78,502.14Z"/><g class="cls-6"><path class="cls-5" d="M490.16,316.83l-31.1-.05-7.64-16.88,31-4.82C482.54,295.83,485.5,304.05,490.16,316.83Z"/></g><g class="cls-6"><polygon class="cls-5" points="548.12 502.14 542.93 502.14 459.06 316.78 451.42 299.9 456.38 299.13 467.93 304.46 548.12 502.14"/></g><rect class="cls-5" x="149.04" y="291.86" width="70.51" height="12.59"/><rect class="cls-5" x="429.51" y="291.86" width="70.51" height="12.59"/><rect class="cls-36" x="38.83" y="277.76" width="570.48" height="14.1"/><rect class="cls-35" x="38.83" y="280.97" width="570.48" height="10.89"/><g class="cls-6"><rect class="cls-5" x="149.04" y="291.86" width="70.51" height="12.59"/></g><g class="cls-6"><rect class="cls-5" x="429.51" y="291.86" width="70.51" height="12.59"/></g><g class="cls-6"><polygon class="cls-5" points="195.58 304.46 190.08 316.62 106.13 502.14 98.63 502.14 178.3 304.46 195.58 304.46"/></g><polygon class="cls-37" points="619.26 230.94 619.26 254.34 525.66 254.34 525.66 234.25 619.26 230.94"/><g class="cls-38"><path class="cls-37" d="M619.26,241v13.35h-93.6V242c2,2.32,6.23,4.9,15.43,4.9C555.21,246.87,599.45,248.39,619.26,241Z"/></g><polygon class="cls-39" points="623.04 250.2 623.04 277.76 540.35 277.76 539.38 266.91 538.25 254.34 623.04 250.2"/><path class="cls-40" d="M623,264v13.78H540.35l-1-10.85c.09.14,3,4.6,15.63,5.3C567.86,272.92,620.39,274.31,623,264Z"/><path class="cls-41" d="M396.07,270.59l-.55,1.62-1.09,3.21-62.89,1.5-62.88-1.5L267,270.59a129.51,129.51,0,0,0,29.11-3.8c14.34-3.79,29.1-4.21,35.42,2.11,6.33-6.32,21.09-5.9,35.43-2.11A129.45,129.45,0,0,0,396.07,270.59Z"/><polygon class="cls-19" points="395.23 277.76 267.86 277.76 267.86 274.81 269.7 274.81 395.23 274.81 395.23 277.76"/><path class="cls-42" d="M396.07,270.59l-.55,1.62c-8.14.36-21.8-1.2-36.56-5s-27,3.37-27.42,3.37V268.9c6.33-6.32,21.09-5.9,35.43-2.11A129.45,129.45,0,0,0,396.07,270.59Z"/><path class="cls-42" d="M267,270.59l.56,1.62c8.14.36,21.8-1.2,36.56-5s27,3.37,27.41,3.37V268.9c-6.32-6.32-21.08-5.9-35.42-2.11A129.51,129.51,0,0,1,267,270.59Z"/><path class="cls-43" d="M486.64,250.27a2.62,2.62,0,0,1-.82.14,2.4,2.4,0,0,1-2.26-1.58l-5.14-14h0l-2.67-7.28-9.42-25.74a2.4,2.4,0,1,1,4.51-1.65l10,27.39,2,5.45h0l.75,2.05,1.36,3.69,3.1,8.48A2.4,2.4,0,0,1,486.64,250.27Z"/><path class="cls-44" d="M485.82,236.43l.17,2.4h-.25a2,2,0,0,1-.77-.13c-1.31-.43-1.55-2-1.71-3.11l-.09-.58-.31-2.05h0l-.82-5.45L479.25,209a2.41,2.41,0,0,1,4.76-.71c.78,5.24,2,13.16,2.88,19.2.5,3.33.93,6.1,1.14,7.51.09.59.14.94.16,1l-2.37.39Z"/><path class="cls-45" d="M508.87,191.93,503,227.51,501.7,235l-.22,1.32a2.38,2.38,0,0,1-2.36,2l-.4,0a2.4,2.4,0,0,1-2-2.77l.09-.52,1.25-7.51,6.05-36.38a2.4,2.4,0,1,1,4.73.8Z"/><path class="cls-46" d="M488,235h-8.8l-.81-.23h0l-2.67-7.28h5.12l2,5.45-.82-5.45h4.85C487.39,230.84,487.82,233.61,488,235Z"/><polygon class="cls-46" points="502.96 227.51 501.7 235.02 496.84 235.02 498.09 227.51 502.96 227.51"/><rect class="cls-47" x="476.51" y="230.98" width="32.83" height="46.78"/><g class="cls-48"><path class="cls-47" d="M509.34,260.21v17.55H476.51V261.57a27.35,27.35,0,0,0,16.42,5.81A22,22,0,0,0,509.34,260.21Z"/></g><g class="cls-49"><path class="cls-21" d="M509.34,231v7.27a29,29,0,0,1-16.41,4.65,33.35,33.35,0,0,1-16.42-4.18V231Z"/></g><path class="cls-50" d="M153,266.57l-104.69,3-7.14-3L8.42,190.48H125.1l23,62.88Z"/><rect class="cls-51" x="41.15" y="266.57" width="147.68" height="11.19"/><path class="cls-52" d="M188.83,266.57v11.19H41.15V266.57L8.42,190.48c.56,1,37.81,66.42,138.68,62.91l1,0L153,266.57Z"/></g></g></g></svg>