<svg xmlns="http://www.w3.org/2000/svg" xmlns:xlink="http://www.w3.org/1999/xlink" viewBox="0 0 1948.07 1091.1"><defs><style>.cls-1{isolation:isolate;}.cls-2{fill:#303030;}.cls-3{opacity:0.06;}.cls-4{fill:#f1f1f1;}.cls-5{fill:#f2f2f2;}.cls-6{fill:#d2d3d5;}.cls-7{fill:url(#linear-gradient);}.cls-19,.cls-20,.cls-8{mix-blend-mode:screen;}.cls-9{fill:url(#linear-gradient-2);}.cls-10{fill:url(#linear-gradient-3);}.cls-11{fill:url(#linear-gradient-4);}.cls-12{fill:url(#linear-gradient-5);}.cls-13{fill:url(#linear-gradient-6);}.cls-14{fill:url(#linear-gradient-7);}.cls-15{fill:url(#linear-gradient-8);}.cls-16{fill:url(#linear-gradient-9);}.cls-17{fill:url(#linear-gradient-10);}.cls-18{fill:url(#linear-gradient-11);}.cls-19{fill:url(#radial-gradient);}.cls-20{fill:url(#radial-gradient-2);}</style><linearGradient id="linear-gradient" x1="450.35" y1="37.84" x2="1482.47" y2="1069.96" gradientUnits="userSpaceOnUse"><stop offset="0" stop-color="#18f2d9"/><stop offset="0.5" stop-color="#2389f7"/><stop offset="1" stop-color="#ad18f2"/></linearGradient><linearGradient id="linear-gradient-2" x1="346.47" y1="611.34" x2="346.47" y2="806.43" gradientUnits="userSpaceOnUse"><stop offset="0" stop-color="#b1f2eb"/><stop offset="1"/></linearGradient><linearGradient id="linear-gradient-3" x1="966.41" y1="611.34" x2="966.41" y2="806.43" xlink:href="#linear-gradient-2"/><linearGradient id="linear-gradient-4" x1="656.44" y1="611.34" x2="656.44" y2="806.43" xlink:href="#linear-gradient-2"/><linearGradient id="linear-gradient-5" x1="1586.35" y1="611.34" x2="1586.35" y2="806.43" xlink:href="#linear-gradient-2"/><linearGradient id="linear-gradient-6" x1="1276.38" y1="611.34" x2="1276.38" y2="806.43" xlink:href="#linear-gradient-2"/><linearGradient id="linear-gradient-7" x1="346.47" y1="301.36" x2="346.47" y2="496.46" xlink:href="#linear-gradient-2"/><linearGradient id="linear-gradient-8" x1="656.44" y1="301.36" x2="656.44" y2="496.46" xlink:href="#linear-gradient-2"/><linearGradient id="linear-gradient-9" x1="966.41" y1="301.36" x2="966.41" y2="496.46" xlink:href="#linear-gradient-2"/><linearGradient id="linear-gradient-10" x1="1276.38" y1="301.36" x2="1276.38" y2="496.46" xlink:href="#linear-gradient-2"/><linearGradient id="linear-gradient-11" x1="1586.35" y1="301.36" x2="1586.35" y2="496.46" xlink:href="#linear-gradient-2"/><radialGradient id="radial-gradient" cx="246.2" cy="375" r="283.87" gradientTransform="translate(182.81 -56.21) scale(1.12)" gradientUnits="userSpaceOnUse"><stop offset="0" stop-color="#0b2124"/><stop offset="1"/></radialGradient><radialGradient id="radial-gradient-2" cx="1333.35" cy="782.68" r="283.87" gradientTransform="translate(-17.19 -131.21) scale(1.12)" gradientUnits="userSpaceOnUse"><stop offset="0" stop-color="#200524"/><stop offset="1"/></radialGradient></defs><g class="cls-1"><g id="Layer_2" data-name="Layer 2"><g id="Layer_1-2" data-name="Layer 1"><rect class="cls-2" width="1948.07" height="1091.1"/><g class="cls-3"><path class="cls-4" d="M401.93,161.36a41.11,41.11,0,0,0,11.73-25.29.22.22,0,0,1,.44,0,40.53,40.53,0,0,0,37,37,.23.23,0,0,1,0,.45,40.53,40.53,0,0,0-37,37,.22.22,0,0,1-.44,0,40.53,40.53,0,0,0-37-37,.22.22,0,1,1,0-.45A41.13,41.13,0,0,0,401.93,161.36Z"/><path class="cls-4" d="M490.67,205.12a26.67,26.67,0,0,0,7.61-16.41.15.15,0,1,1,.29,0,26.33,26.33,0,0,0,24,24,.14.14,0,1,1,0,.28,26.33,26.33,0,0,0-24,24,.15.15,0,0,1-.29,0,26.31,26.31,0,0,0-24-24,.14.14,0,1,1,0-.28A26.76,26.76,0,0,0,490.67,205.12Z"/><path class="cls-4" d="M459.29,82.45A58.71,58.71,0,0,0,476,46.34a.31.31,0,0,1,.63,0,58.71,58.71,0,0,0,16.75,36.11A58.71,58.71,0,0,0,529.53,99.2a.32.32,0,0,1,0,.63,57.87,57.87,0,0,0-52.86,52.85.31.31,0,0,1-.63,0,57.87,57.87,0,0,0-52.86-52.85.32.32,0,0,1,0-.63A58.71,58.71,0,0,0,459.29,82.45Z"/><path class="cls-5" d="M509.49,303.55a96.91,96.91,0,0,0-18.77,3.11c-1.58.45-2.62.87-2.73,1.18s.69.51,2.79.51c6.85,0,14.59,1,17.77,3.06,5.51,3.56.81,5.55-2.73,5.15-5.49-.61-12.63-1.58-14.48-1.41-2.48.23-3.28,1.78-1.43,2.18s20.48,5.56,15.09,9c-4.44,2.82-15.38-4.65-21.76-3.43a49.34,49.34,0,0,0-7.58,2.71,19.74,19.74,0,0,0-7.68,6.08l-46.56,58.59,1,1.66-20.17,20.63C397.09,483.63,378.88,488,378.88,488c2,6.47-1.38,62.37-1.38,62.37l-12.53.12-1.78-.2c-1,9.88-5.8,43.12-8.83,57.05,0,0,21.13,11.11,20.06,14.12s-41.14,8.11-43.12,2.88.75-14.14.75-14.14,6.79-42.29,6.79-63.56l-8.3-.86L330,500l-42.44,20.67-4.34-8c-19.86,7.84-56.44,29.39-56.44,29.39s-7.48,12-13,12.13-19.89-38.88-17.5-41a.7.7,0,0,1,.24-.17h0c3.38-1.32,22.05,7.38,22.05,7.38,12-8,44.6-25,52.94-29.32l-3.63-6.74L305,459.17l22.18-34-22.42,1,0-2.18c-7.36.69-33.63-9.71-55.59-17.14a1.41,1.41,0,0,1-.32-.09,2.07,2.07,0,0,0-.48-.12c0-.06-.1,0-.17-.06-16.19-5.49-22.12-7.33-23.62-6.71-3.53,1.44-5.34,5.07-9.09,12.19-6.11,11.6-10.85,10.79-10.54,5.49.26-4.32,9-14.42,8.66-15.3-.58-1.38-8.32,4.11-13.35,8.7-1.14,1.05-4.47,4.58-5.3,5.24-2.4,1.92-7.61,4.65-8.1-1.87-.25-3.21,5.82-8.57,12.53-13.9,5.94-4.72,8.44-4.66,7.54-5.27-1.06-.74-5,.89-10.6,3.74-4.22,2.12-5.82,2.65-10.3,5.09-11.48,6.24-15.2,2.75-11.7-2.15,3.64-5.08,12.49-9,21.69-12.48,4-1.5,7.34-2.82,6.86-3.25s-3-.06-6.11.5c-5.65,1.06-13.27,3.9-16.3,4.48-4.64.89-8.92-2.49-2.83-6.83,3.65-2.59,12.55-4.48,20-5.64,3.82-.58,7.24-1,9.41-1.26,1.35-.13,4.19-3.37,4.08-4.71-.37-4.55-4-5.87-5.79-8.67-2.93-4.77-2.19-11.41,2.1-10.83,5,.68,20.05,25.11,26.32,30s74.76,18.22,74.76,18.22l.25-1.63,42.57-5.27c-2.49-2.17-5.15-4.13-5.15-4.13-17.19,1.9-27.73-11.26-27.73-11.26l-2.18,3.71c-6.08-8.34-23.09-24.09-24.55-37.71-1.91,1-9.47,5.6-9.47,5.6l7.92-10.21c-2.72-1.64-9.67-10.21-10.08-10.74l10.11,4.89c-2.62-8,1.77-26.4,15.22-37.12a214,214,0,0,0,23.19-21.45c.22,5.57-6,11.66-6,11.66,26.66-13.83,33.27-2.12,64-5.64,1,20.49-29.38,32.09-29.38,32.09,9.31.56,23-10.85,23-10.85,15.61,14,19.8,30.3,16.6,47.92s-25.14,28.59-25.14,28.59l5.3,8.74a46.57,46.57,0,0,0,8-4.95l19.5-14.83,1.39,1.1,50.29-53s5.11-9.06,4-16.45-5.14-16.17-1.91-19.17,8.26,5.34,8.79,10.48,6.31,6.92,12.91,3.06A54.16,54.16,0,0,1,499.93,288c5.75-.79,9.19,3.29,4.86,4-3.23.55-12.34,4.28-16.07,6.37-1.28.72-1.93,1.25-1.49,1.39a5.71,5.71,0,0,0,2.11,0c2.93-.4,8.22-1.71,15.33-2.28C515.35,296.57,517.22,303.43,509.49,303.55Z"/><path class="cls-6" d="M422.41,391.91l-20.17,20.64C397.1,483.62,378.89,488,378.89,488s-4,48.8-7.56,55.54c-2,3.82-8.13,6.74-8.13,6.74s-15.47,43-8.84,57.06c0,0,21.13,11.11,20.06,14.12s-41.14,8.11-43.12,2.88.76-14.15.76-14.15,6.79-42.29,6.79-63.56l-8.31-.85L330,500,287.53,520.7l-4.34-8c-19.86,7.83-56.44,29.38-56.44,29.38s-7.48,12-13,12.13-19.89-38.87-17.5-41a1.13,1.13,0,0,1,.24-.17h0c2.76,2.76,11.61,10.53,23.3,9.05,15.05-1.94,62.25-27.94,85.25-62.91l22.18-34-22.41,1V424c-7.36.69-33.61-9.72-55.58-17.15,32.86,7.09,62,13.68,79,11.33,0,0-7.88-1.86-10.26-4.83a94.47,94.47,0,0,0,28.58-.21c12.16-2.05-15.72,30.5-18.17,54.78-2.11,21,24.9,16.1,39.5,8.71,17.77-9,33.6-28.68,26.3-70.1,10.36,2.51,20.33-8.71,27.24-16.27Z"/><path class="cls-5" d="M435.47,601.83l-.06.06a229.21,229.21,0,0,1-191.9,103.7c-126.71,0-229.43-102.72-229.43-229.43A229.44,229.44,0,0,1,143.37,269.68a228.15,228.15,0,0,0-37.53,125.67c0,126.72,102.75,229.43,229.46,229.43A228.73,228.73,0,0,0,435.47,601.83Z"/><path class="cls-6" d="M196.15,659.49A25.87,25.87,0,0,1,185,610.29c-.45,0-.89-.07-1.35-.07a29.18,29.18,0,1,0,23,47A25.75,25.75,0,0,1,196.15,659.49Z"/><path class="cls-6" d="M86.9,507.73a25.88,25.88,0,0,1-11.2-49.21c-.44,0-.89-.06-1.34-.06a29.18,29.18,0,1,0,23,47A25.59,25.59,0,0,1,86.9,507.73Z"/><path class="cls-6" d="M275.8,673.67a17.37,17.37,0,0,1-7.51-33c-.3,0-.6,0-.9,0a19.59,19.59,0,1,0,15.47,31.56A17.32,17.32,0,0,1,275.8,673.67Z"/><path class="cls-6" d="M73.09,411.23a9.21,9.21,0,0,1-4-17.52c-.16,0-.31,0-.47,0a10.39,10.39,0,1,0,8.2,16.75A9.15,9.15,0,0,1,73.09,411.23Z"/><path class="cls-6" d="M145.89,581.59a11.71,11.71,0,0,1-5.07-22.26l-.6,0a13.2,13.2,0,1,0,10.43,21.28A11.84,11.84,0,0,1,145.89,581.59Z"/><path class="cls-6" d="M347,651.39a9.21,9.21,0,0,1-4-17.52l-.48,0a10.39,10.39,0,1,0,8.2,16.75A9.12,9.12,0,0,1,347,651.39Z"/><path class="cls-6" d="M435.41,601.89a229.21,229.21,0,0,1-191.9,103.7c-126.71,0-229.43-102.72-229.43-229.43A228.19,228.19,0,0,1,39.7,370.75c-39.89,149.88,39.12,284.08,167,309.52C332.76,705.35,432.66,604.7,435.41,601.89Z"/><circle class="cls-4" cx="72.58" cy="581.2" r="23.45"/><path class="cls-6" d="M81.85,593.75a17.37,17.37,0,0,1-7.51-33c-.3,0-.6,0-.9,0a19.59,19.59,0,1,0,15.47,31.56A17.32,17.32,0,0,1,81.85,593.75Z"/></g><path class="cls-7" d="M454.32,846.08H238.61a29.38,29.38,0,0,1-29.35-29.34V601a29.39,29.39,0,0,1,29.35-29.35H454.32A29.39,29.39,0,0,1,483.67,601V816.74A29.38,29.38,0,0,1,454.32,846.08ZM238.61,576.44A24.62,24.62,0,0,0,214,601V816.74a24.62,24.62,0,0,0,24.59,24.59H454.32a24.62,24.62,0,0,0,24.59-24.59V601a24.62,24.62,0,0,0-24.59-24.59Zm32.54,127.29a2.38,2.38,0,0,0,.23-3.36c-15.51-17.78-21.17-33.48-15.54-43.1,6.75-11.54,28.6-13,55.87-5.87A168.68,168.68,0,0,0,305.25,682a210.42,210.42,0,0,0-34.15,28.59,2.38,2.38,0,0,0,3.45,3.28,203.25,203.25,0,0,1,30-25.64c-.6,6.62-.92,13.52-.92,20.66s.32,14.06.93,20.72a218.89,218.89,0,0,1-20-15.92,2.38,2.38,0,0,0-3.19,3.54,229.24,229.24,0,0,0,23.84,18.64,171.77,171.77,0,0,0,6.44,30.6c-28,7.39-49.31,5.16-55.85-6-2.44-4.15-2.78-9.45-1-15.76a2.38,2.38,0,0,0-4.58-1.29c-2.14,7.6-1.64,14.15,1.48,19.46,4.9,8.34,15.75,12.61,30.77,12.61,8.89,0,19.26-1.52,30.7-4.56,7.79,21.78,19.7,35.47,33.27,35.47S372,792.74,379.76,771c4.81,1.26,9.5,2.27,14,3a2.38,2.38,0,1,0,.76-4.7c-4.28-.68-8.72-1.64-13.26-2.81a170.53,170.53,0,0,0,6.44-30.66,219.77,219.77,0,0,0,29.11-23.46c11.14,11.51,18.77,22.93,21.42,32.78,1.64,6.13,1.26,11.31-1.14,15.41a17,17,0,0,1-6.62,6.26,2.38,2.38,0,0,0,2.33,4.15,21.75,21.75,0,0,0,8.41-8c3-5.23,3.6-11.64,1.61-19-2.88-10.73-10.87-22.84-22.6-35,20.22-20.81,28.63-40.93,21-54-7.8-13.27-30.74-16.24-61.58-8.05-1.06-2.93-2.19-5.74-3.39-8.39a2.39,2.39,0,0,0-4.34,2c1.11,2.43,2.15,5,3.13,7.69a221.85,221.85,0,0,0-28.55,10.64A222,222,0,0,0,317.86,648c7.49-20.55,18.52-32.61,29.8-31.8a2.28,2.28,0,0,0,2.31-1.62c.54-2.06-.88-3.24-3.49-3.24-13.21,0-25.26,13.45-33.19,35.38-29.81-7.9-53.51-5.61-61.56,8.14-6.83,11.66-1.13,28.94,16.06,48.64A2.41,2.41,0,0,0,271.15,703.73Zm75.33,97.94c-11.21,0-21.47-12.53-28.5-32,6.11-1.79,12-3.78,17.77-6.09a2.38,2.38,0,0,0-1.76-4.43c-5.73,2.28-11.5,4.24-17.54,6a164.21,164.21,0,0,1-5.82-25.68q6.47,4.2,13.26,8A239.8,239.8,0,0,0,375,769.64C368,789.14,357.69,801.67,346.48,801.67Zm30.1-149.07a154.65,154.65,0,0,1,4.68,18.48,2.38,2.38,0,0,0,4.67-.9,160.67,160.67,0,0,0-4.76-18.86c28.09-7.39,49.41-5.17,55.95,5.95,6.35,10.89-2,29.2-20.33,48.18-12.66-12.34-29.05-24.56-47.71-35.18q-8.49-4.83-16.86-8.86A212.88,212.88,0,0,1,376.58,652.6Zm-9.86,21.81c18.13,10.31,34.25,22.36,46.67,34.47a207.78,207.78,0,0,1-25,20.65c.61-6.64.93-13.54.93-20.65,0-5.07-.13-9.45-.39-13.38a2.38,2.38,0,1,0-4.75.32c.26,3.82.38,8.09.38,13.06a211.11,211.11,0,0,1-1.38,24.25,238,238,0,0,1-26.46,15.61A2.38,2.38,0,1,0,358.9,753a257,257,0,0,0,23.44-13.56,164.45,164.45,0,0,1-5.83,25.72,235,235,0,0,1-50.26-21.77c-5.64-3.19-11.15-6.6-16.45-10.16a212.21,212.21,0,0,1-1.38-24.32,218.88,218.88,0,0,1,1.3-24.19A252.82,252.82,0,0,1,346.43,664C353.15,667.07,360,670.55,366.72,674.41Zm-50.44-21.75a216.75,216.75,0,0,1,24.39,8.78,278.12,278.12,0,0,0-30.16,17A160.11,160.11,0,0,1,316.28,652.66Zm30.2,68.12a11.9,11.9,0,1,0-11.89-11.9A11.91,11.91,0,0,0,346.48,720.78Zm0-19a7.14,7.14,0,1,1-7.13,7.13A7.14,7.14,0,0,1,346.48,701.75Zm17.6-66.62a11.9,11.9,0,1,0-11.89-11.9A11.91,11.91,0,0,0,364.08,635.13Zm0-19a7.14,7.14,0,1,1-7.13,7.13A7.14,7.14,0,0,1,364.08,616.1ZM260.83,738.86A11.9,11.9,0,1,0,248.94,727,11.91,11.91,0,0,0,260.83,738.86Zm0-19a7.14,7.14,0,1,1-7.14,7.14A7.14,7.14,0,0,1,260.83,719.83ZM413.1,785a11.9,11.9,0,1,0-11.9-11.9A11.92,11.92,0,0,0,413.1,785Zm0-19a7.14,7.14,0,1,1-7.14,7.14A7.15,7.15,0,0,1,413.1,766Zm661.17,80.1H858.55a29.37,29.37,0,0,1-29.34-29.34V601a29.38,29.38,0,0,1,29.34-29.35h215.72A29.38,29.38,0,0,1,1103.61,601V816.74A29.37,29.37,0,0,1,1074.27,846.08ZM858.55,576.44A24.61,24.61,0,0,0,834,601V816.74a24.61,24.61,0,0,0,24.58,24.59h215.72a24.61,24.61,0,0,0,24.58-24.59V601a24.61,24.61,0,0,0-24.58-24.59ZM1011.73,804.8a2.38,2.38,0,0,0,4.52,0l9.51-28.55a2.11,2.11,0,0,0,.13-.75v-157a7.15,7.15,0,0,0-7.14-7.14h-9.52a7.15,7.15,0,0,0-7.14,7.14v157a2.11,2.11,0,0,0,.13.75Zm2.26-8.27-6.79-20.39,6.79-6.79,6.79,6.79Zm7.14-26.77-4.76-4.76V644.65h4.76Zm-14.28-151.28a2.39,2.39,0,0,1,2.38-2.38h9.52a2.39,2.39,0,0,1,2.38,2.38v11.89h-14.28Zm0,16.65h14.28v4.76h-14.28Zm0,9.52h4.76V765l-4.76,4.76ZM901.47,681a2.38,2.38,0,0,0-4.06,1.79V775.5a2.38,2.38,0,0,0,2.38,2.38h92.85a2.38,2.38,0,0,0,1.68-4.06Zm.7,92.16V688.39l84.73,84.73Zm132.54.7a2.38,2.38,0,0,0-3.53.18,2.47,2.47,0,0,0,.26,3.28l24.39,24.39H1033a2.38,2.38,0,0,0-2.36,2.62,2.47,2.47,0,0,0,2.5,2.14h28.41a2.38,2.38,0,0,0,1.68-4.06ZM871.24,806.43H995a2.38,2.38,0,0,0,0-4.76H873.62v-4.76h7.14a2.38,2.38,0,1,0,0-4.75h-7.14V787.4h16.65a2.38,2.38,0,0,0,0-4.76H873.62v-4.76h7.14a2.38,2.38,0,0,0,0-4.76h-7.14v-4.76h16.65a2.38,2.38,0,1,0,0-4.75H873.62v-4.76h7.14a2.38,2.38,0,0,0,0-4.76h-7.14v-4.76h16.65a2.38,2.38,0,0,0,0-4.76H873.62v-4.76h7.14a2.38,2.38,0,1,0,0-4.75h-7.14V730.3h16.65a2.38,2.38,0,1,0,0-4.76H873.62v-4.76h7.14a2.38,2.38,0,1,0,0-4.76h-7.14v-4.76h16.65a2.38,2.38,0,1,0,0-4.75H873.62v-4.76h7.14a2.38,2.38,0,1,0,0-4.76h-7.14v-4.76h16.65a2.38,2.38,0,1,0,0-4.76H873.62v-4.76h7.14a2.38,2.38,0,1,0,0-4.75h-7.14V673.2h16.65a2.38,2.38,0,1,0,0-4.76H873.62v-4.76h7.14a2.38,2.38,0,0,0,0-4.76h-7.14v-4.76h16.65a2.38,2.38,0,1,0,0-4.75H873.62v-4.76h7.14a2.38,2.38,0,0,0,0-4.76h-7.14V619.46L993.27,739.12a2.38,2.38,0,0,0,3.37-3.37L872.92,612a2.36,2.36,0,0,0-2.59-.52,2.39,2.39,0,0,0-1.47,2.2V804.05A2.38,2.38,0,0,0,871.24,806.43Zm-107,39.65H548.58a29.37,29.37,0,0,1-29.34-29.34V601a29.38,29.38,0,0,1,29.34-29.35H764.29A29.39,29.39,0,0,1,793.64,601V816.74A29.38,29.38,0,0,1,764.29,846.08ZM548.58,576.44A24.61,24.61,0,0,0,524,601V816.74a24.61,24.61,0,0,0,24.58,24.59H764.29a24.62,24.62,0,0,0,24.59-24.59V601a24.62,24.62,0,0,0-24.59-24.59ZM725.43,763.85v-7.38a2.38,2.38,0,0,0-.69-1.68l-9.52-9.52a2.37,2.37,0,0,0-1.68-.7h-16.9a11.9,11.9,0,1,0,0,4.76h15.91l8.13,8.12v6.4a11.91,11.91,0,0,0-9.28,9.27H668.09a11.9,11.9,0,0,0-9.27-9.27V737.43a2.37,2.37,0,0,0-.7-1.68l-9.52-9.51a2.35,2.35,0,0,0-1.68-.7h-7.38a11.89,11.89,0,1,0,0,4.76h6.4l8.12,8.12v25.43a11.91,11.91,0,0,0-9.28,9.27h-43.3a11.93,11.93,0,0,0-9.28-9.27V739.57a11.9,11.9,0,1,0-4.76,0v24.28a11.9,11.9,0,1,0,14,14h43.3a11.89,11.89,0,0,0,23.31,0H711.4a11.89,11.89,0,1,0,14-14ZM685,754.09a7.14,7.14,0,1,1,7.14-7.14A7.15,7.15,0,0,1,685,754.09Zm-57.1-19a7.14,7.14,0,1,1,7.13-7.14A7.16,7.16,0,0,1,627.89,735.06Zm-45.21-7.14a7.14,7.14,0,1,1,7.14,7.14A7.15,7.15,0,0,1,582.68,727.92Zm7.14,54.72A7.14,7.14,0,1,1,597,775.5,7.15,7.15,0,0,1,589.82,782.64Zm66.62,0a7.14,7.14,0,1,1,7.13-7.14A7.15,7.15,0,0,1,656.44,782.64Zm66.61,0a7.14,7.14,0,1,1,7.14-7.14A7.14,7.14,0,0,1,723.05,782.64ZM589.82,701.75a11.9,11.9,0,0,0,2.38-23.56v-15.9l17.64-17.64h25.42a11.9,11.9,0,1,0,0-4.76H608.85a2.4,2.4,0,0,0-1.68.69l-19,19a2.35,2.35,0,0,0-.7,1.68v16.89a11.9,11.9,0,0,0,2.38,23.56Zm57.1-66.62a7.14,7.14,0,1,1-7.14,7.14A7.15,7.15,0,0,1,646.92,635.13Zm-57.1,47.58a7.14,7.14,0,1,1-7.14,7.14A7.15,7.15,0,0,1,589.82,682.71ZM735,642.27a11.9,11.9,0,1,0-14.27,11.65v43.31a11.93,11.93,0,0,0-9.28,9.27H696.64a11.9,11.9,0,1,0,0,4.76H711.4a11.89,11.89,0,1,0,14-14V653.92A11.9,11.9,0,0,0,735,642.27ZM685,716a7.14,7.14,0,1,1,7.14-7.14A7.15,7.15,0,0,1,685,716Zm45.2-7.14a7.14,7.14,0,1,1-7.14-7.13A7.14,7.14,0,0,1,730.19,708.88Zm-7.14-59.48a7.14,7.14,0,1,1,7.14-7.13A7.14,7.14,0,0,1,723.05,649.4Zm28.56-38.06H561.27a2.38,2.38,0,0,0-2.38,2.38V804.05a2.38,2.38,0,0,0,2.38,2.38H751.61a2.37,2.37,0,0,0,2.37-2.38V613.72A2.37,2.37,0,0,0,751.61,611.34Zm-2.38,190.33H563.65V616.1H749.23ZM665,687.47H649.06a11.9,11.9,0,1,0,0,4.76H666a2.38,2.38,0,0,0,1.69-.7l19-19a2.37,2.37,0,0,0,.7-1.68v-16.9a11.9,11.9,0,1,0-4.76,0v15.91ZM637.4,697a7.14,7.14,0,1,1,7.14-7.14A7.14,7.14,0,0,1,637.4,697Zm40.45-54.72A7.14,7.14,0,1,1,685,649.4,7.15,7.15,0,0,1,677.85,642.27ZM570.79,796.91h171.3a2.38,2.38,0,0,0,2.38-2.37V623.23a2.39,2.39,0,0,0-2.38-2.38H599.34a2.38,2.38,0,0,0-1.69.7L569.1,650.1a2.4,2.4,0,0,0-.69,1.68V794.54A2.38,2.38,0,0,0,570.79,796.91Zm2.38-144.14,27.15-27.16H739.71V792.16H573.17Zm1121,193.31H1478.5a29.38,29.38,0,0,1-29.35-29.34V601a29.39,29.39,0,0,1,29.35-29.35h215.71A29.38,29.38,0,0,1,1723.55,601V816.74A29.37,29.37,0,0,1,1694.21,846.08ZM1478.5,576.44A24.62,24.62,0,0,0,1453.91,601V816.74a24.62,24.62,0,0,0,24.59,24.59h215.71a24.62,24.62,0,0,0,24.59-24.59V601a24.62,24.62,0,0,0-24.59-24.59Zm65,230h133.23a7.14,7.14,0,0,0,7.14-7.14V618.47a7.14,7.14,0,0,0-7.14-7.13H1543.53a7.14,7.14,0,0,0-7.14,7.13V799.29A7.14,7.14,0,0,0,1543.53,806.43Zm-2.38-188a2.38,2.38,0,0,1,2.38-2.37h133.23a2.38,2.38,0,0,1,2.38,2.37V799.29a2.39,2.39,0,0,1-2.38,2.38H1543.53a2.39,2.39,0,0,1-2.38-2.38ZM1557.8,787.4h19a2.39,2.39,0,0,0,2.38-2.38V766a2.38,2.38,0,0,0-2.38-2.37h-19a2.38,2.38,0,0,0-2.38,2.37v19A2.39,2.39,0,0,0,1557.8,787.4Zm2.38-19h14.28v14.28h-14.28Zm45.21-4.75h-19A2.38,2.38,0,0,0,1584,766v19a2.39,2.39,0,0,0,2.38,2.38h19a2.39,2.39,0,0,0,2.38-2.38V766A2.38,2.38,0,0,0,1605.39,763.61Zm-2.38,19h-14.28V768.36H1603Zm30.93-19h-19a2.38,2.38,0,0,0-2.38,2.37v19a2.39,2.39,0,0,0,2.38,2.38h19a2.39,2.39,0,0,0,2.38-2.38V766A2.38,2.38,0,0,0,1633.94,763.61Zm-2.38,19h-14.28V768.36h14.28Zm-73.76-23.79h19a2.39,2.39,0,0,0,2.38-2.38v-19a2.38,2.38,0,0,0-2.38-2.37h-19a2.38,2.38,0,0,0-2.38,2.37v19A2.39,2.39,0,0,0,1557.8,758.85Zm2.38-19h14.28v14.28h-14.28Zm45.21-4.75h-19a2.38,2.38,0,0,0-2.38,2.37v19a2.39,2.39,0,0,0,2.38,2.38h19a2.39,2.39,0,0,0,2.38-2.38v-19A2.38,2.38,0,0,0,1605.39,735.06Zm-2.38,19h-14.28V739.81H1603Zm30.93-19h-19a2.38,2.38,0,0,0-2.38,2.37v19a2.39,2.39,0,0,0,2.38,2.38h19a2.39,2.39,0,0,0,2.38-2.38v-19A2.38,2.38,0,0,0,1633.94,735.06Zm-2.38,19h-14.28V739.81h14.28Zm30.93-19h-19a2.38,2.38,0,0,0-2.38,2.37V785a2.39,2.39,0,0,0,2.38,2.38h19a2.39,2.39,0,0,0,2.38-2.38V737.43A2.38,2.38,0,0,0,1662.49,735.06Zm-2.38,47.58h-14.28V739.81h14.28ZM1557.8,730.3h19a2.39,2.39,0,0,0,2.38-2.38v-19a2.39,2.39,0,0,0-2.38-2.38h-19a2.39,2.39,0,0,0-2.38,2.38v19A2.39,2.39,0,0,0,1557.8,730.3Zm2.38-19h14.28v14.28h-14.28Zm45.21-4.76h-19a2.39,2.39,0,0,0-2.38,2.38v19a2.39,2.39,0,0,0,2.38,2.38h19a2.39,2.39,0,0,0,2.38-2.38v-19A2.39,2.39,0,0,0,1605.39,706.5Zm-2.38,19h-14.28V711.26H1603Zm30.93-19h-19a2.39,2.39,0,0,0-2.38,2.38v19a2.39,2.39,0,0,0,2.38,2.38h19a2.39,2.39,0,0,0,2.38-2.38v-19A2.39,2.39,0,0,0,1633.94,706.5Zm-2.38,19h-14.28V711.26h14.28Zm30.93-19h-19a2.39,2.39,0,0,0-2.38,2.38v19a2.39,2.39,0,0,0,2.38,2.38h19a2.39,2.39,0,0,0,2.38-2.38v-19A2.39,2.39,0,0,0,1662.49,706.5Zm-2.38,19h-14.28V711.26h14.28ZM1557.8,701.75h19a2.39,2.39,0,0,0,2.38-2.38v-19a2.39,2.39,0,0,0-2.38-2.38h-19a2.39,2.39,0,0,0-2.38,2.38v19A2.39,2.39,0,0,0,1557.8,701.75Zm2.38-19h14.28V697h-14.28Zm-2.38-19h104.69a2.38,2.38,0,0,0,2.38-2.38V632.75a2.38,2.38,0,0,0-2.38-2.38H1557.8a2.38,2.38,0,0,0-2.38,2.38V661.3A2.38,2.38,0,0,0,1557.8,663.68Zm2.38-28.55h99.93v23.79h-99.93ZM1605.39,678h-19a2.39,2.39,0,0,0-2.38,2.38v19a2.39,2.39,0,0,0,2.38,2.38h19a2.39,2.39,0,0,0,2.38-2.38v-19A2.39,2.39,0,0,0,1605.39,678ZM1603,697h-14.28V682.71H1603Zm30.93-19h-19a2.39,2.39,0,0,0-2.38,2.38v19a2.39,2.39,0,0,0,2.38,2.38h19a2.39,2.39,0,0,0,2.38-2.38v-19A2.39,2.39,0,0,0,1633.94,678Zm-2.38,19h-14.28V682.71h14.28Zm30.93-19h-19a2.39,2.39,0,0,0-2.38,2.38v19a2.39,2.39,0,0,0,2.38,2.38h19a2.39,2.39,0,0,0,2.38-2.38v-19A2.39,2.39,0,0,0,1662.49,678Zm-2.38,19h-14.28V682.71h14.28ZM1491.18,806.43h28.56a2.37,2.37,0,0,0,2.37-2.38V613.72a2.37,2.37,0,0,0-2.37-2.38h-28.56a2.37,2.37,0,0,0-2.37,2.38V804.05A2.37,2.37,0,0,0,1491.18,806.43Zm2.38-9.52h16.66a2.38,2.38,0,1,0,0-4.75h-16.66V787.4h7.14a2.38,2.38,0,0,0,0-4.76h-7.14v-4.76h16.66a2.38,2.38,0,0,0,0-4.76h-16.66v-4.76h7.14a2.38,2.38,0,1,0,0-4.75h-7.14v-4.76h16.66a2.38,2.38,0,0,0,0-4.76h-16.66v-4.76h7.14a2.38,2.38,0,0,0,0-4.76h-7.14v-4.76h16.66a2.38,2.38,0,1,0,0-4.75h-16.66V730.3h7.14a2.38,2.38,0,0,0,0-4.76h-7.14v-4.76h16.66a2.38,2.38,0,0,0,0-4.76h-16.66v-4.76h7.14a2.38,2.38,0,0,0,0-4.76h-7.14v-4.75h16.66a2.38,2.38,0,0,0,0-4.76h-16.66v-4.76h7.14a2.38,2.38,0,0,0,0-4.76h-7.14v-4.76h16.66a2.38,2.38,0,0,0,0-4.76h-16.66V673.2h7.14a2.38,2.38,0,0,0,0-4.76h-7.14v-4.76h16.66a2.38,2.38,0,0,0,0-4.76h-16.66v-4.76h7.14a2.38,2.38,0,0,0,0-4.76h-7.14v-4.75h16.66a2.38,2.38,0,0,0,0-4.76h-16.66v-4.76h7.14a2.38,2.38,0,0,0,0-4.76h-7.14v-4.76h16.66a2.38,2.38,0,0,0,0-4.76h-16.66V616.1h23.8V801.67h-23.8Zm-109.32,49.17H1168.52a29.37,29.37,0,0,1-29.34-29.34V601a29.38,29.38,0,0,1,29.34-29.35h215.72A29.38,29.38,0,0,1,1413.58,601V816.74A29.37,29.37,0,0,1,1384.24,846.08ZM1168.52,576.44A24.61,24.61,0,0,0,1143.94,601V816.74a24.61,24.61,0,0,0,24.58,24.59h215.72a24.61,24.61,0,0,0,24.58-24.59V601a24.61,24.61,0,0,0-24.58-24.59Zm35.14,180.7a2.33,2.33,0,0,0,3.35,0,2.39,2.39,0,0,0,0-3.36l-1.42-1.43a76.14,76.14,0,0,1-.07-107.06c30.91-32.1,78.18-29.49,105.76-3a2.34,2.34,0,0,0,3.35-.11,2.39,2.39,0,0,0-.11-3.37c-35.16-32.56-84.37-26.07-112.29,3a81,81,0,0,0,0,113.87Zm88.42-110.4a16.86,16.86,0,0,1,4.58,8.34,2.36,2.36,0,1,0,4.62-1,21.52,21.52,0,0,0-5.85-10.7A22.05,22.05,0,1,0,1276,680.71a2.38,2.38,0,0,0,.82-4.68,17.47,17.47,0,0,1-9.15-4.77,17.28,17.28,0,0,1-5.07-12.35,17.08,17.08,0,0,1,5.07-12.17A17.6,17.6,0,0,1,1292.08,646.74Zm54.62,24a2.36,2.36,0,0,0-3.35,0,2.38,2.38,0,0,0,0,3.37l2.93,2.94c29.37,29.59,28.87,77.16,0,107.14-4.76,4.95-10.86,7.56-18,5.39A17.89,17.89,0,0,1,1316,776l-4.27-21.52c-1.71-8.51-8.16-14.93-16.33-16a18.61,18.61,0,0,0-14.79,4.65,20.83,20.83,0,0,0-7,15.6v20.08a16.73,16.73,0,0,1-9.36,15.19,16.33,16.33,0,0,1-17.43-1.46,99.44,99.44,0,0,1-8.3-7.23l-6.45-6.46a2.37,2.37,0,1,0-3.35,3.36l6.47,6.5a92.82,92.82,0,0,0,8.76,7.62,21.21,21.21,0,0,0,22.42,1.92,21.63,21.63,0,0,0,12-19.44V758.79a16.06,16.06,0,0,1,5.41-12,14.14,14.14,0,0,1,11.33-3.5c5.78.76,10.72,5.77,12,12.19l4.26,21.51A22.57,22.57,0,0,0,1327,794.17c9,2.52,16.15,0,22.68-6.57a80.82,80.82,0,0,0,0-113.87Zm-96.28,104.64h-.05a11.29,11.29,0,0,1-8.35-3.58,2.47,2.47,0,0,0-3.44-.49,2.32,2.32,0,0,0-.26,3.45,15.88,15.88,0,0,0,12,5.38h.07a16.07,16.07,0,0,0,11.48-4.83,16.47,16.47,0,0,0,.42-22.74,2.37,2.37,0,1,0-3.44,3.27,11.66,11.66,0,0,1-.35,16.11A11.34,11.34,0,0,1,1250.42,775.42Zm65.29-59.24a17.18,17.18,0,0,1-4.71-8.31,2.39,2.39,0,0,0-2.76-2,2.24,2.24,0,0,0-1.93,2.53,22.23,22.23,0,0,0,6,11.2,22,22,0,0,0,31.11,0,21.69,21.69,0,0,0,6.46-15.54,22,22,0,0,0-6.45-15.72,21.27,21.27,0,0,0-10.34-5.78,2.38,2.38,0,0,0-1.06,4.64,16.68,16.68,0,0,1,8.05,4.5,17.31,17.31,0,0,1,5.06,12.35,17.09,17.09,0,0,1-5.06,12.17A17.6,17.6,0,0,1,1315.71,716.18Zm42.48-67.12c8.62-8.65,13.9-20.37,15.73-35.09a2.44,2.44,0,0,0-.8-2,2.48,2.48,0,0,0-2.06-.66c-14.42,1.82-26.1,7.12-34.71,15.77l-40.49,40.67L1180.29,793.15a2.38,2.38,0,0,0,.06,3.3l9.25,9.28a2.36,2.36,0,0,0,3.28.07l124.88-116.13Zm-18.49-18.57c7.25-7.28,17-12,29.07-14-2,12.07-6.65,21.88-13.93,29.19l-1.77,1.78-15.14-15.21ZM1191.34,800.75l-6-6,112.35-121.86,5.83,5.86-35.3,35.46a2.37,2.37,0,0,0,3.35,3.36l35.3-35.46,5.83,5.86ZM1301,669.41l33.63-33.77,15.14,15.2-33.63,33.78Zm-94.63,1.51a22,22,0,1,0,22-22.1A22,22,0,0,0,1206.32,670.92Zm39.26,0a17.27,17.27,0,1,1-17.26-17.34A17.31,17.31,0,0,1,1245.58,670.92ZM346.35,496.46c-24.05.17-56.1-8.5-70.85-31.2A46.18,46.18,0,0,1,268,443a8.21,8.21,0,0,1,2.77-7.1,9.87,9.87,0,0,1,6.72-2.58H296c3.51,0,6.18.65,8.18,2a14.28,14.28,0,0,1,4.77,5.67,47.73,47.73,0,0,0,4.24,6.48,22.26,22.26,0,0,0,6.45,5.49,40.78,40.78,0,0,0,10.59,4.1,66.92,66.92,0,0,0,16.17,1.65,94.05,94.05,0,0,0,14.92-1.16,42.19,42.19,0,0,0,12.25-3.75,25.36,25.36,0,0,0,8.21-6.27,12.92,12.92,0,0,0,2.87-8.65,10.54,10.54,0,0,0-3-7.84c-2.2-2.2-5.67-4.14-10.32-5.78A156.4,156.4,0,0,0,353,420.27c-7.47-1.6-16.11-3.65-25.68-6.1a139.57,139.57,0,0,1-23.46-7.66,56.71,56.71,0,0,1-17.06-11.19,42.37,42.37,0,0,1-10.2-15.81,61.87,61.87,0,0,1-3.31-21.31,49.07,49.07,0,0,1,5.55-23.05A54.71,54.71,0,0,1,294,317.2a73.53,73.53,0,0,1,22.76-11.62,92.58,92.58,0,0,1,28.3-4.22c12,0,22.74,1.65,31.93,4.9a79.87,79.87,0,0,1,23.11,12.28A53.89,53.89,0,0,1,414.27,335a43.1,43.1,0,0,1,5.43,17.22,8.25,8.25,0,0,1-2.78,7.1,9.86,9.86,0,0,1-6.72,2.58H391.73c-3.57,0-6.24-.72-8.18-2.21a19.94,19.94,0,0,1-4.65-5.24,32.31,32.31,0,0,0-11.23-10.74c-5-3-12.58-4.54-22.64-4.54a55.28,55.28,0,0,0-12.52,1.39,35.22,35.22,0,0,0-10.13,3.95,20,20,0,0,0-6.5,6,13.39,13.39,0,0,0-2.24,7.67,15.61,15.61,0,0,0,2.11,8.61c1.42,2.17,3.93,4.11,7.46,5.76a85.4,85.4,0,0,0,15.26,5c6.47,1.58,14.62,3.44,24.22,5.54a173.7,173.7,0,0,1,27.69,8.18,66.12,66.12,0,0,1,19.42,11.53,43.93,43.93,0,0,1,11.43,15.79A51.88,51.88,0,0,1,425,438.83,49.7,49.7,0,0,1,419.43,462a53.37,53.37,0,0,1-15.72,18.26A78.86,78.86,0,0,1,379,492.13,118,118,0,0,1,346.35,496.46ZM277.48,438a5.16,5.16,0,0,0-3.56,1.38,3.49,3.49,0,0,0-1.19,3.18,41.19,41.19,0,0,0,6.73,20c14.13,21.5,43.73,29.07,66.89,29.07a110.39,110.39,0,0,0,31.25-4.13,73.88,73.88,0,0,0,23.26-11.13,48.58,48.58,0,0,0,14.35-16.63,45,45,0,0,0,5-21,47,47,0,0,0-3.38-18.37,39.31,39.31,0,0,0-10.2-14.09,61.83,61.83,0,0,0-18-10.67,169.37,169.37,0,0,0-26.93-7.95c-9.63-2.1-17.82-4-24.33-5.56a89,89,0,0,1-16.14-5.31c-4.35-2-7.52-4.55-9.43-7.46a20.17,20.17,0,0,1-2.89-11.22,18.26,18.26,0,0,1,3-10.3,24.9,24.9,0,0,1,8-7.47,39.94,39.94,0,0,1,11.49-4.5A59.76,59.76,0,0,1,345,334.41c10.94,0,19.39,1.76,25.11,5.24A36.77,36.77,0,0,1,383,352a15.52,15.52,0,0,0,3.5,4c1.05.8,2.87,1.22,5.28,1.22H410.2a5.21,5.21,0,0,0,3.57-1.38,3.51,3.51,0,0,0,1.18-3.18,38.34,38.34,0,0,0-4.87-15.33,49.32,49.32,0,0,0-13-15,75.06,75.06,0,0,0-21.74-11.51c-8.67-3.07-18.88-4.63-30.34-4.63a87.86,87.86,0,0,0-26.85,4A69.22,69.22,0,0,0,296.88,321,49.89,49.89,0,0,0,283,337.37a44.25,44.25,0,0,0-5,20.83,57.28,57.28,0,0,0,3,19.66,37.82,37.82,0,0,0,9.07,14.07,52,52,0,0,0,15.65,10.22,134.37,134.37,0,0,0,22.69,7.4C338,412,346.56,414,354,415.62a157.76,157.76,0,0,1,18.89,5.11c5.32,1.87,9.4,4.19,12.11,6.9a15.29,15.29,0,0,1,4.39,11.2,17.7,17.7,0,0,1-4,11.7,30.18,30.18,0,0,1-9.73,7.48A47.14,47.14,0,0,1,362,462.2a100.12,100.12,0,0,1-15.68,1.21A71.53,71.53,0,0,1,329,461.62,45.83,45.83,0,0,1,317.17,457a26.93,26.93,0,0,1-7.8-6.69,52.57,52.57,0,0,1-4.7-7.19,9.77,9.77,0,0,0-3.18-3.91A10.28,10.28,0,0,0,296,438Zm176.84,98.07H238.61a29.38,29.38,0,0,1-29.35-29.34V291.06a29.39,29.39,0,0,1,29.35-29.35H454.32a29.39,29.39,0,0,1,29.35,29.35V506.77A29.38,29.38,0,0,1,454.32,536.11ZM238.61,266.47A24.62,24.62,0,0,0,214,291.06V506.77a24.61,24.61,0,0,0,24.59,24.58H454.32a24.61,24.61,0,0,0,24.59-24.58V291.06a24.62,24.62,0,0,0-24.59-24.59Zm428.78,230h-21.9a9.78,9.78,0,0,1-9.68-9.72V340.11h-46.3a9.78,9.78,0,0,1-9.68-9.72v-19.3a9.78,9.78,0,0,1,9.68-9.73H723.36a9.8,9.8,0,0,1,9.69,9.73v19.3a9.78,9.78,0,0,1-9.69,9.72H677.07V486.74a9.8,9.8,0,0,1-9.68,9.72ZM589.51,306.12a4.59,4.59,0,0,0-3.45,1.48,4.67,4.67,0,0,0-1.47,3.49v19.3a4.68,4.68,0,0,0,1.46,3.49,4.62,4.62,0,0,0,3.46,1.47h48.67a2.38,2.38,0,0,1,2.38,2.38v149a4.7,4.7,0,0,0,1.47,3.49,4.64,4.64,0,0,0,3.46,1.47h21.9a4.63,4.63,0,0,0,3.45-1.47,4.7,4.7,0,0,0,1.47-3.49v-149a2.39,2.39,0,0,1,2.38-2.38h48.67a4.6,4.6,0,0,0,3.46-1.47,4.7,4.7,0,0,0,1.47-3.49v-19.3a4.74,4.74,0,0,0-1.47-3.5,4.64,4.64,0,0,0-3.46-1.47Zm174.78,230H548.58a29.37,29.37,0,0,1-29.34-29.34V291.06a29.38,29.38,0,0,1,29.34-29.35H764.29a29.39,29.39,0,0,1,29.35,29.35V506.77A29.38,29.38,0,0,1,764.29,536.11ZM548.58,266.47A24.61,24.61,0,0,0,524,291.06V506.77a24.6,24.6,0,0,0,24.58,24.58H764.29a24.61,24.61,0,0,0,24.59-24.58V291.06a24.62,24.62,0,0,0-24.59-24.59Zm477.71,230H906.52a9.82,9.82,0,0,1-9.74-9.72V311.09a9.82,9.82,0,0,1,9.74-9.73h117.59a9.83,9.83,0,0,1,9.75,9.73v19.3a9.83,9.83,0,0,1-9.75,9.72H938.37v38.48h79.74a9.8,9.8,0,0,1,9.74,9.72v19.3a9.8,9.8,0,0,1-9.74,9.72H938.37v40.38h87.92a9.82,9.82,0,0,1,9.75,9.72v19.31a9.82,9.82,0,0,1-9.75,9.72ZM906.52,306.12a5.06,5.06,0,0,0-5,5V486.74a5.06,5.06,0,0,0,5,5h119.77a4.7,4.7,0,0,0,3.51-1.48,4.65,4.65,0,0,0,1.48-3.48V467.43a4.67,4.67,0,0,0-1.48-3.48,4.72,4.72,0,0,0-3.51-1.48H936a2.39,2.39,0,0,1-2.38-2.38V415a2.38,2.38,0,0,1,2.38-2.38h82.12a4.69,4.69,0,0,0,3.51-1.49,4.64,4.64,0,0,0,1.48-3.48v-19.3a5.06,5.06,0,0,0-5-5H936a2.39,2.39,0,0,1-2.38-2.38V337.73a2.39,2.39,0,0,1,2.38-2.38h88.12a4.72,4.72,0,0,0,3.51-1.48,4.65,4.65,0,0,0,1.48-3.48v-19.3a5.07,5.07,0,0,0-5-5Zm167.75,230H858.55a29.37,29.37,0,0,1-29.34-29.34V291.06a29.38,29.38,0,0,1,29.34-29.35h215.72a29.38,29.38,0,0,1,29.34,29.35V506.77A29.37,29.37,0,0,1,1074.27,536.11ZM858.55,266.47A24.61,24.61,0,0,0,834,291.06V506.77a24.61,24.61,0,0,0,24.58,24.58h215.72a24.61,24.61,0,0,0,24.58-24.58V291.06a24.61,24.61,0,0,0-24.58-24.59Zm502.5,230h-19.54c-4.35,0-7.4-1-9.33-3.06a16,16,0,0,1-3.48-5.29l-11.07-28.63h-82.5l-11.08,28.66a16,16,0,0,1-3.47,5.26c-1.93,2.06-5,3.06-9.33,3.06h-19.54a9.8,9.8,0,0,1-9.7-9.72,8.45,8.45,0,0,1,.39-2.66l66.52-171.95a21.6,21.6,0,0,1,4.29-7.7c1.91-2,4.68-3.07,8.25-3.07h29.85c3.55,0,6.33,1,8.24,3.06a21.9,21.9,0,0,1,4.31,7.78L1370.32,484a8.53,8.53,0,0,1,.44,2.76,9.8,9.8,0,0,1-9.71,9.72ZM1233.5,454.72h85.76a2.4,2.4,0,0,1,2.22,1.52l11.67,30.18a11.51,11.51,0,0,0,2.49,3.72c1,1,3,1.56,5.87,1.56h19.54a5,5,0,0,0,5-5,4.14,4.14,0,0,0-.15-1.16L1299.4,313.85a17.77,17.77,0,0,0-3.32-6.17c-1-1-2.58-1.56-4.77-1.56h-29.85c-2.2,0-3.81.53-4.78,1.56a17.5,17.5,0,0,0-3.29,6.1l-66.51,171.91a3.53,3.53,0,0,0-.12,1.05,5.06,5.06,0,0,0,5,5h19.54c2.88,0,4.91-.54,5.87-1.56a11.36,11.36,0,0,0,2.48-3.69l11.68-30.21A2.4,2.4,0,0,1,1233.5,454.72Zm72.73-29.23h-59.7a2.39,2.39,0,0,1-2-1,2.37,2.37,0,0,1-.26-2.2l29.85-77.5a2.38,2.38,0,0,1,4.44,0l29.85,77.5a2.38,2.38,0,0,1-2.22,3.23ZM1250,420.73h52.77l-26.39-68.49Zm134.24,115.38H1168.52a29.37,29.37,0,0,1-29.34-29.34V291.06a29.38,29.38,0,0,1,29.34-29.35h215.72a29.38,29.38,0,0,1,29.34,29.35V506.77A29.37,29.37,0,0,1,1384.24,536.11ZM1168.52,266.47a24.61,24.61,0,0,0-24.58,24.59V506.77a24.61,24.61,0,0,0,24.58,24.58h215.72a24.61,24.61,0,0,0,24.58-24.58V291.06a24.61,24.61,0,0,0-24.58-24.59Zm499.93,230h-22.1a9.82,9.82,0,0,1-9.74-9.72V389.27l-31,53.52a25.42,25.42,0,0,1-4.24,5,11.13,11.13,0,0,1-7.91,3h-14.18a11.12,11.12,0,0,1-7.9-3,25.44,25.44,0,0,1-4.21-5l-31.06-53.59v97.47a9.82,9.82,0,0,1-9.74,9.72h-22.09a9.8,9.8,0,0,1-9.74-9.72V311.09a9.82,9.82,0,0,1,9.74-9.73h18.54c4.34,0,7.65,1.29,9.85,3.82,1.83,2.12,3,3.52,3.74,4.42a2.23,2.23,0,0,1,.2.3l49.76,86.16,49.76-86.16a2.23,2.23,0,0,1,.2-.3c.72-.9,1.91-2.31,3.75-4.42,2.19-2.53,5.5-3.82,9.84-3.82h18.55a9.82,9.82,0,0,1,9.74,9.73V486.74a9.82,9.82,0,0,1-9.74,9.72ZM1639,378a2.21,2.21,0,0,1,.62.09,2.37,2.37,0,0,1,1.76,2.29V486.74a5.06,5.06,0,0,0,5,5h22.1a4.71,4.71,0,0,0,3.5-1.48,4.65,4.65,0,0,0,1.48-3.48V311.09a5.06,5.06,0,0,0-5-5H1649.9c-2.94,0-5,.71-6.25,2.17-1.67,1.93-2.82,3.29-3.51,4.14L1588.41,402a2.39,2.39,0,0,1-4.12,0l-51.73-89.57c-.69-.86-1.81-2.18-3.51-4.15-1.27-1.46-3.31-2.17-6.25-2.17h-18.54a5.07,5.07,0,0,0-5,5V486.74a5.06,5.06,0,0,0,5,5h22.09a5.07,5.07,0,0,0,5-5V380.42a2.38,2.38,0,0,1,4.43-1.19l35.46,61.18a20.52,20.52,0,0,0,3.39,3.94,6.4,6.4,0,0,0,4.64,1.67h14.18a6.41,6.41,0,0,0,4.64-1.66,20.93,20.93,0,0,0,3.44-4l35.41-61.11A2.39,2.39,0,0,1,1639,378Zm55.22,158.07H1478.5a29.38,29.38,0,0,1-29.35-29.34V291.06a29.39,29.39,0,0,1,29.35-29.35h215.71a29.38,29.38,0,0,1,29.34,29.35V506.77A29.37,29.37,0,0,1,1694.21,536.11ZM1478.5,266.47a24.62,24.62,0,0,0-24.59,24.59V506.77a24.61,24.61,0,0,0,24.59,24.58h215.71a24.61,24.61,0,0,0,24.59-24.58V291.06a24.62,24.62,0,0,0-24.59-24.59Z"/><g class="cls-8"><path class="cls-9" d="M271.15,703.73a2.38,2.38,0,0,0,.23-3.36c-15.51-17.78-21.17-33.48-15.54-43.1,6.75-11.54,28.6-13,55.87-5.87A168.68,168.68,0,0,0,305.25,682a210.42,210.42,0,0,0-34.15,28.59,2.38,2.38,0,0,0,3.45,3.28,203.25,203.25,0,0,1,30-25.64c-.6,6.62-.92,13.52-.92,20.66s.32,14.06.93,20.72a218.89,218.89,0,0,1-20-15.92,2.38,2.38,0,0,0-3.19,3.54,229.24,229.24,0,0,0,23.84,18.64,171.77,171.77,0,0,0,6.44,30.6c-28,7.39-49.31,5.16-55.85-6-2.44-4.15-2.78-9.45-1-15.76a2.38,2.38,0,0,0-4.58-1.29c-2.14,7.6-1.64,14.15,1.48,19.46,4.9,8.34,15.75,12.61,30.77,12.61,8.89,0,19.26-1.52,30.7-4.56,7.79,21.78,19.7,35.47,33.27,35.47S372,792.74,379.76,771c4.81,1.26,9.5,2.27,14,3a2.38,2.38,0,1,0,.76-4.7c-4.28-.68-8.72-1.64-13.26-2.81a170.53,170.53,0,0,0,6.44-30.66,219.77,219.77,0,0,0,29.11-23.46c11.14,11.51,18.77,22.93,21.42,32.78,1.64,6.13,1.26,11.31-1.14,15.41a17,17,0,0,1-6.62,6.26,2.38,2.38,0,0,0,2.33,4.15,21.75,21.75,0,0,0,8.41-8c3-5.23,3.6-11.64,1.61-19-2.88-10.73-10.87-22.84-22.6-35,20.22-20.81,28.63-40.93,21-54-7.8-13.27-30.74-16.24-61.58-8.05-1.06-2.93-2.19-5.74-3.39-8.39a2.39,2.39,0,0,0-4.34,2c1.11,2.43,2.15,5,3.13,7.69a221.85,221.85,0,0,0-28.55,10.64A222,222,0,0,0,317.86,648c7.49-20.55,18.52-32.61,29.8-31.8a2.28,2.28,0,0,0,2.31-1.62c.54-2.06-.88-3.24-3.49-3.24-13.21,0-25.26,13.45-33.19,35.38-29.81-7.9-53.51-5.61-61.56,8.14-6.83,11.66-1.13,28.94,16.06,48.64A2.41,2.41,0,0,0,271.15,703.73Zm75.33,97.94c-11.21,0-21.47-12.53-28.5-32,6.11-1.79,12-3.78,17.77-6.09a2.38,2.38,0,0,0-1.76-4.43c-5.73,2.28-11.5,4.24-17.54,6a164.21,164.21,0,0,1-5.82-25.68q6.47,4.2,13.26,8A239.8,239.8,0,0,0,375,769.64C368,789.14,357.69,801.67,346.48,801.67Zm30.1-149.07a154.65,154.65,0,0,1,4.68,18.48,2.38,2.38,0,0,0,4.67-.9,160.67,160.67,0,0,0-4.76-18.86c28.09-7.39,49.41-5.17,55.95,5.95,6.35,10.89-2,29.2-20.33,48.18-12.66-12.34-29.05-24.56-47.71-35.18q-8.49-4.83-16.86-8.86A212.88,212.88,0,0,1,376.58,652.6Zm-9.86,21.81c18.13,10.31,34.25,22.36,46.67,34.47a207.78,207.78,0,0,1-25,20.65c.61-6.64.93-13.54.93-20.65,0-5.07-.13-9.45-.39-13.38a2.38,2.38,0,1,0-4.75.32c.26,3.82.38,8.09.38,13.06a211.11,211.11,0,0,1-1.38,24.25,238,238,0,0,1-26.46,15.61A2.38,2.38,0,1,0,358.9,753a257,257,0,0,0,23.44-13.56,164.45,164.45,0,0,1-5.83,25.72,235,235,0,0,1-50.26-21.77c-5.64-3.19-11.15-6.6-16.45-10.16a212.21,212.21,0,0,1-1.38-24.32,218.88,218.88,0,0,1,1.3-24.19A252.82,252.82,0,0,1,346.43,664C353.15,667.07,360,670.55,366.72,674.41Zm-50.44-21.75a216.75,216.75,0,0,1,24.39,8.78,278.12,278.12,0,0,0-30.16,17A160.11,160.11,0,0,1,316.28,652.66Zm30.2,68.12a11.9,11.9,0,1,0-11.89-11.9A11.91,11.91,0,0,0,346.48,720.78Zm0-19a7.14,7.14,0,1,1-7.13,7.13A7.14,7.14,0,0,1,346.48,701.75Zm17.6-66.62a11.9,11.9,0,1,0-11.89-11.9A11.91,11.91,0,0,0,364.08,635.13Zm0-19a7.14,7.14,0,1,1-7.13,7.13A7.14,7.14,0,0,1,364.08,616.1ZM260.83,738.86A11.9,11.9,0,1,0,248.94,727,11.91,11.91,0,0,0,260.83,738.86Zm0-19a7.14,7.14,0,1,1-7.14,7.14A7.14,7.14,0,0,1,260.83,719.83ZM413.1,785a11.9,11.9,0,1,0-11.9-11.9A11.92,11.92,0,0,0,413.1,785Zm0-19a7.14,7.14,0,1,1-7.14,7.14A7.15,7.15,0,0,1,413.1,766Z"/><path class="cls-10" d="M1011.73,804.8a2.38,2.38,0,0,0,4.52,0l9.51-28.55a2.11,2.11,0,0,0,.13-.75v-157a7.15,7.15,0,0,0-7.14-7.14h-9.52a7.15,7.15,0,0,0-7.14,7.14v157a2.11,2.11,0,0,0,.13.75Zm2.26-8.27-6.79-20.39,6.79-6.79,6.79,6.79Zm7.14-26.77-4.76-4.76V644.65h4.76Zm-14.28-151.28a2.39,2.39,0,0,1,2.38-2.38h9.52a2.39,2.39,0,0,1,2.38,2.38v11.89h-14.28Zm0,16.65h14.28v4.76h-14.28Zm0,9.52h4.76V765l-4.76,4.76ZM901.47,681a2.38,2.38,0,0,0-4.06,1.79V775.5a2.38,2.38,0,0,0,2.38,2.38h92.85a2.38,2.38,0,0,0,1.68-4.06Zm.7,92.16V688.39l84.73,84.73Zm161.08,29.25a2.38,2.38,0,0,1-1.68,4.06h-28.41a2.47,2.47,0,0,1-2.5-2.14,2.38,2.38,0,0,1,2.36-2.62h22.81l-24.39-24.39a2.47,2.47,0,0,1-.26-3.28,2.38,2.38,0,0,1,3.53-.18Zm-194.39,1.68V613.72a2.39,2.39,0,0,1,1.47-2.2,2.36,2.36,0,0,1,2.59.52L996.64,735.75a2.38,2.38,0,0,1-3.37,3.37L873.62,619.46v20.43h7.14a2.38,2.38,0,0,1,0,4.76h-7.14v4.76h16.65a2.38,2.38,0,1,1,0,4.75H873.62v4.76h7.14a2.38,2.38,0,0,1,0,4.76h-7.14v4.76h16.65a2.38,2.38,0,1,1,0,4.76H873.62V678h7.14a2.38,2.38,0,1,1,0,4.75h-7.14v4.76h16.65a2.38,2.38,0,1,1,0,4.76H873.62V697h7.14a2.38,2.38,0,1,1,0,4.76h-7.14v4.76h16.65a2.38,2.38,0,1,1,0,4.75H873.62V716h7.14a2.38,2.38,0,1,1,0,4.76h-7.14v4.76h16.65a2.38,2.38,0,1,1,0,4.76H873.62v4.76h7.14a2.38,2.38,0,1,1,0,4.75h-7.14v4.76h16.65a2.38,2.38,0,0,1,0,4.76H873.62v4.76h7.14a2.38,2.38,0,0,1,0,4.76h-7.14v4.76h16.65a2.38,2.38,0,1,1,0,4.75H873.62v4.76h7.14a2.38,2.38,0,0,1,0,4.76h-7.14v4.76h16.65a2.38,2.38,0,0,1,0,4.76H873.62v4.76h7.14a2.38,2.38,0,1,1,0,4.75h-7.14v4.76H995a2.38,2.38,0,0,1,0,4.76H871.24A2.38,2.38,0,0,1,868.86,804.05Z"/><path class="cls-11" d="M725.43,763.85v-7.38a2.38,2.38,0,0,0-.69-1.68l-9.52-9.52a2.37,2.37,0,0,0-1.68-.7h-16.9a11.9,11.9,0,1,0,0,4.76h15.91l8.13,8.12v6.4a11.91,11.91,0,0,0-9.28,9.27H668.09a11.9,11.9,0,0,0-9.27-9.27V737.43a2.37,2.37,0,0,0-.7-1.68l-9.52-9.51a2.35,2.35,0,0,0-1.68-.7h-7.38a11.89,11.89,0,1,0,0,4.76h6.4l8.12,8.12v25.43a11.91,11.91,0,0,0-9.28,9.27h-43.3a11.93,11.93,0,0,0-9.28-9.27V739.57a11.9,11.9,0,1,0-4.76,0v24.28a11.9,11.9,0,1,0,14,14h43.3a11.89,11.89,0,0,0,23.31,0H711.4a11.89,11.89,0,1,0,14-14ZM685,754.09a7.14,7.14,0,1,1,7.14-7.14A7.15,7.15,0,0,1,685,754.09Zm-57.1-19a7.14,7.14,0,1,1,7.13-7.14A7.16,7.16,0,0,1,627.89,735.06Zm-45.21-7.14a7.14,7.14,0,1,1,7.14,7.14A7.15,7.15,0,0,1,582.68,727.92Zm7.14,54.72A7.14,7.14,0,1,1,597,775.5,7.15,7.15,0,0,1,589.82,782.64Zm66.62,0a7.14,7.14,0,1,1,7.13-7.14A7.15,7.15,0,0,1,656.44,782.64Zm66.61,0a7.14,7.14,0,1,1,7.14-7.14A7.14,7.14,0,0,1,723.05,782.64ZM589.82,701.75a11.9,11.9,0,0,0,2.38-23.56v-15.9l17.64-17.64h25.42a11.9,11.9,0,1,0,0-4.76H608.85a2.4,2.4,0,0,0-1.68.69l-19,19a2.35,2.35,0,0,0-.7,1.68v16.89a11.9,11.9,0,0,0,2.38,23.56Zm57.1-66.62a7.14,7.14,0,1,1-7.14,7.14A7.15,7.15,0,0,1,646.92,635.13Zm-57.1,47.58a7.14,7.14,0,1,1-7.14,7.14A7.15,7.15,0,0,1,589.82,682.71ZM735,642.27a11.9,11.9,0,1,0-14.27,11.65v43.31a11.93,11.93,0,0,0-9.28,9.27H696.64a11.9,11.9,0,1,0,0,4.76H711.4a11.89,11.89,0,1,0,14-14V653.92A11.9,11.9,0,0,0,735,642.27ZM685,716a7.14,7.14,0,1,1,7.14-7.14A7.15,7.15,0,0,1,685,716Zm45.2-7.14a7.14,7.14,0,1,1-7.14-7.13A7.14,7.14,0,0,1,730.19,708.88Zm-7.14-59.48a7.14,7.14,0,1,1,7.14-7.13A7.14,7.14,0,0,1,723.05,649.4Zm28.56-38.06H561.27a2.38,2.38,0,0,0-2.38,2.38V804.05a2.38,2.38,0,0,0,2.38,2.38H751.61a2.37,2.37,0,0,0,2.37-2.38V613.72A2.37,2.37,0,0,0,751.61,611.34Zm-2.38,190.33H563.65V616.1H749.23ZM665,687.47H649.06a11.9,11.9,0,1,0,0,4.76H666a2.38,2.38,0,0,0,1.69-.7l19-19a2.37,2.37,0,0,0,.7-1.68v-16.9a11.9,11.9,0,1,0-4.76,0v15.91ZM637.4,697a7.14,7.14,0,1,1,7.14-7.14A7.14,7.14,0,0,1,637.4,697Zm40.45-54.72A7.14,7.14,0,1,1,685,649.4,7.15,7.15,0,0,1,677.85,642.27ZM570.79,796.91h171.3a2.38,2.38,0,0,0,2.38-2.37V623.23a2.39,2.39,0,0,0-2.38-2.38H599.34a2.38,2.38,0,0,0-1.69.7L569.1,650.1a2.4,2.4,0,0,0-.69,1.68V794.54A2.38,2.38,0,0,0,570.79,796.91Zm2.38-144.14,27.15-27.16H739.71V792.16H573.17Z"/><path class="cls-12" d="M1543.53,806.43h133.23a7.14,7.14,0,0,0,7.14-7.14V618.47a7.14,7.14,0,0,0-7.14-7.13H1543.53a7.14,7.14,0,0,0-7.14,7.13V799.29A7.14,7.14,0,0,0,1543.53,806.43Zm-2.38-188a2.38,2.38,0,0,1,2.38-2.37h133.23a2.38,2.38,0,0,1,2.38,2.37V799.29a2.39,2.39,0,0,1-2.38,2.38H1543.53a2.39,2.39,0,0,1-2.38-2.38ZM1557.8,787.4h19a2.39,2.39,0,0,0,2.38-2.38V766a2.38,2.38,0,0,0-2.38-2.37h-19a2.38,2.38,0,0,0-2.38,2.37v19A2.39,2.39,0,0,0,1557.8,787.4Zm2.38-19h14.28v14.28h-14.28Zm45.21-4.75h-19A2.38,2.38,0,0,0,1584,766v19a2.39,2.39,0,0,0,2.38,2.38h19a2.39,2.39,0,0,0,2.38-2.38V766A2.38,2.38,0,0,0,1605.39,763.61Zm-2.38,19h-14.28V768.36H1603Zm30.93-19h-19a2.38,2.38,0,0,0-2.38,2.37v19a2.39,2.39,0,0,0,2.38,2.38h19a2.39,2.39,0,0,0,2.38-2.38V766A2.38,2.38,0,0,0,1633.94,763.61Zm-2.38,19h-14.28V768.36h14.28Zm-73.76-23.79h19a2.39,2.39,0,0,0,2.38-2.38v-19a2.38,2.38,0,0,0-2.38-2.37h-19a2.38,2.38,0,0,0-2.38,2.37v19A2.39,2.39,0,0,0,1557.8,758.85Zm2.38-19h14.28v14.28h-14.28Zm45.21-4.75h-19a2.38,2.38,0,0,0-2.38,2.37v19a2.39,2.39,0,0,0,2.38,2.38h19a2.39,2.39,0,0,0,2.38-2.38v-19A2.38,2.38,0,0,0,1605.39,735.06Zm-2.38,19h-14.28V739.81H1603Zm30.93-19h-19a2.38,2.38,0,0,0-2.38,2.37v19a2.39,2.39,0,0,0,2.38,2.38h19a2.39,2.39,0,0,0,2.38-2.38v-19A2.38,2.38,0,0,0,1633.94,735.06Zm-2.38,19h-14.28V739.81h14.28Zm30.93-19h-19a2.38,2.38,0,0,0-2.38,2.37V785a2.39,2.39,0,0,0,2.38,2.38h19a2.39,2.39,0,0,0,2.38-2.38V737.43A2.38,2.38,0,0,0,1662.49,735.06Zm-2.38,47.58h-14.28V739.81h14.28ZM1557.8,730.3h19a2.39,2.39,0,0,0,2.38-2.38v-19a2.39,2.39,0,0,0-2.38-2.38h-19a2.39,2.39,0,0,0-2.38,2.38v19A2.39,2.39,0,0,0,1557.8,730.3Zm2.38-19h14.28v14.28h-14.28Zm45.21-4.76h-19a2.39,2.39,0,0,0-2.38,2.38v19a2.39,2.39,0,0,0,2.38,2.38h19a2.39,2.39,0,0,0,2.38-2.38v-19A2.39,2.39,0,0,0,1605.39,706.5Zm-2.38,19h-14.28V711.26H1603Zm30.93-19h-19a2.39,2.39,0,0,0-2.38,2.38v19a2.39,2.39,0,0,0,2.38,2.38h19a2.39,2.39,0,0,0,2.38-2.38v-19A2.39,2.39,0,0,0,1633.94,706.5Zm-2.38,19h-14.28V711.26h14.28Zm30.93-19h-19a2.39,2.39,0,0,0-2.38,2.38v19a2.39,2.39,0,0,0,2.38,2.38h19a2.39,2.39,0,0,0,2.38-2.38v-19A2.39,2.39,0,0,0,1662.49,706.5Zm-2.38,19h-14.28V711.26h14.28ZM1557.8,701.75h19a2.39,2.39,0,0,0,2.38-2.38v-19a2.39,2.39,0,0,0-2.38-2.38h-19a2.39,2.39,0,0,0-2.38,2.38v19A2.39,2.39,0,0,0,1557.8,701.75Zm2.38-19h14.28V697h-14.28Zm-2.38-19h104.69a2.38,2.38,0,0,0,2.38-2.38V632.75a2.38,2.38,0,0,0-2.38-2.38H1557.8a2.38,2.38,0,0,0-2.38,2.38V661.3A2.38,2.38,0,0,0,1557.8,663.68Zm2.38-28.55h99.93v23.79h-99.93ZM1605.39,678h-19a2.39,2.39,0,0,0-2.38,2.38v19a2.39,2.39,0,0,0,2.38,2.38h19a2.39,2.39,0,0,0,2.38-2.38v-19A2.39,2.39,0,0,0,1605.39,678ZM1603,697h-14.28V682.71H1603Zm30.93-19h-19a2.39,2.39,0,0,0-2.38,2.38v19a2.39,2.39,0,0,0,2.38,2.38h19a2.39,2.39,0,0,0,2.38-2.38v-19A2.39,2.39,0,0,0,1633.94,678Zm-2.38,19h-14.28V682.71h14.28Zm30.93-19h-19a2.39,2.39,0,0,0-2.38,2.38v19a2.39,2.39,0,0,0,2.38,2.38h19a2.39,2.39,0,0,0,2.38-2.38v-19A2.39,2.39,0,0,0,1662.49,678Zm-2.38,19h-14.28V682.71h14.28ZM1491.18,806.43h28.56a2.37,2.37,0,0,0,2.37-2.38V613.72a2.37,2.37,0,0,0-2.37-2.38h-28.56a2.37,2.37,0,0,0-2.37,2.38V804.05A2.37,2.37,0,0,0,1491.18,806.43Zm2.38-9.52h16.66a2.38,2.38,0,1,0,0-4.75h-16.66V787.4h7.14a2.38,2.38,0,0,0,0-4.76h-7.14v-4.76h16.66a2.38,2.38,0,0,0,0-4.76h-16.66v-4.76h7.14a2.38,2.38,0,1,0,0-4.75h-7.14v-4.76h16.66a2.38,2.38,0,0,0,0-4.76h-16.66v-4.76h7.14a2.38,2.38,0,0,0,0-4.76h-7.14v-4.76h16.66a2.38,2.38,0,1,0,0-4.75h-16.66V730.3h7.14a2.38,2.38,0,0,0,0-4.76h-7.14v-4.76h16.66a2.38,2.38,0,0,0,0-4.76h-16.66v-4.76h7.14a2.38,2.38,0,0,0,0-4.76h-7.14v-4.75h16.66a2.38,2.38,0,0,0,0-4.76h-16.66v-4.76h7.14a2.38,2.38,0,0,0,0-4.76h-7.14v-4.76h16.66a2.38,2.38,0,0,0,0-4.76h-16.66V673.2h7.14a2.38,2.38,0,0,0,0-4.76h-7.14v-4.76h16.66a2.38,2.38,0,0,0,0-4.76h-16.66v-4.76h7.14a2.38,2.38,0,0,0,0-4.76h-7.14v-4.75h16.66a2.38,2.38,0,0,0,0-4.76h-16.66v-4.76h7.14a2.38,2.38,0,0,0,0-4.76h-7.14v-4.76h16.66a2.38,2.38,0,0,0,0-4.76h-16.66V616.1h23.8V801.67h-23.8Z"/><path class="cls-13" d="M1202.24,755.72a81,81,0,0,1,0-113.87c27.92-29.08,77.13-35.57,112.29-3a2.39,2.39,0,0,1,.11,3.37,2.34,2.34,0,0,1-3.35.11c-27.58-26.52-74.85-29.13-105.76,3a76.14,76.14,0,0,0,.07,107.06l1.42,1.43a2.39,2.39,0,0,1,0,3.36,2.33,2.33,0,0,1-3.35,0Zm89.84-109a16.86,16.86,0,0,1,4.58,8.34,2.36,2.36,0,1,0,4.62-1,21.52,21.52,0,0,0-5.85-10.7A22.05,22.05,0,1,0,1276,680.71a2.38,2.38,0,0,0,.82-4.68,17.47,17.47,0,0,1-9.15-4.77,17.28,17.28,0,0,1-5.07-12.35,17.08,17.08,0,0,1,5.07-12.17A17.6,17.6,0,0,1,1292.08,646.74Zm54.62,24a2.36,2.36,0,0,0-3.35,0,2.38,2.38,0,0,0,0,3.37l2.93,2.94c29.37,29.59,28.87,77.16,0,107.14-4.76,4.95-10.86,7.56-18,5.39A17.89,17.89,0,0,1,1316,776l-4.27-21.52c-1.71-8.51-8.16-14.93-16.33-16a18.61,18.61,0,0,0-14.79,4.65,20.83,20.83,0,0,0-7,15.6v20.08a16.73,16.73,0,0,1-9.36,15.19,16.33,16.33,0,0,1-17.43-1.46,99.44,99.44,0,0,1-8.3-7.23l-6.45-6.46a2.37,2.37,0,1,0-3.35,3.36l6.47,6.5a92.82,92.82,0,0,0,8.76,7.62,21.21,21.21,0,0,0,22.42,1.92,21.63,21.63,0,0,0,12-19.44V758.79a16.06,16.06,0,0,1,5.41-12,14.14,14.14,0,0,1,11.33-3.5c5.78.76,10.72,5.77,12,12.19l4.26,21.51A22.57,22.57,0,0,0,1327,794.17c9,2.52,16.15,0,22.68-6.57a80.82,80.82,0,0,0,0-113.87Zm-96.28,104.64h-.05a11.29,11.29,0,0,1-8.35-3.58,2.47,2.47,0,0,0-3.44-.49,2.32,2.32,0,0,0-.26,3.45,15.88,15.88,0,0,0,12,5.38h.07a16.07,16.07,0,0,0,11.48-4.83,16.47,16.47,0,0,0,.42-22.74,2.37,2.37,0,1,0-3.44,3.27,11.66,11.66,0,0,1-.35,16.11A11.34,11.34,0,0,1,1250.42,775.42Zm65.29-59.24a17.18,17.18,0,0,1-4.71-8.31,2.39,2.39,0,0,0-2.76-2,2.24,2.24,0,0,0-1.93,2.53,22.23,22.23,0,0,0,6,11.2,22,22,0,0,0,31.11,0,21.69,21.69,0,0,0,6.46-15.54,22,22,0,0,0-6.45-15.72,21.27,21.27,0,0,0-10.34-5.78,2.38,2.38,0,0,0-1.06,4.64,16.68,16.68,0,0,1,8.05,4.5,17.31,17.31,0,0,1,5.06,12.35,17.09,17.09,0,0,1-5.06,12.17A17.6,17.6,0,0,1,1315.71,716.18Zm2-26.51L1192.88,805.8a2.36,2.36,0,0,1-3.28-.07l-9.25-9.28a2.38,2.38,0,0,1-.06-3.3L1295.86,667.8l40.49-40.67c8.61-8.65,20.29-14,34.71-15.77a2.48,2.48,0,0,1,2.06.66,2.44,2.44,0,0,1,.8,2c-1.83,14.72-7.11,26.44-15.73,35.09Zm20.17-57.4,15.14,15.21,1.77-1.78c7.28-7.31,12-17.12,13.93-29.19-12.1,2-21.82,6.7-29.07,14Zm-25.26,55.65-5.83-5.86-35.3,35.46a2.37,2.37,0,0,1-3.35-3.36l35.3-35.46-5.83-5.86L1185.31,794.7l6,6Zm3.42-3.3,33.63-33.78-15.14-15.2L1301,669.41Zm-87.77-35.8a22.1,22.1,0,1,1-22,22.1A22.05,22.05,0,0,1,1228.32,648.82Zm0,4.76a17.34,17.34,0,1,0,17.26,17.34A17.3,17.3,0,0,0,1228.32,653.58Z"/><path class="cls-14" d="M346.35,496.46c-24.05.17-56.1-8.5-70.85-31.2A46.18,46.18,0,0,1,268,443a8.21,8.21,0,0,1,2.77-7.1,9.87,9.87,0,0,1,6.72-2.58H296c3.51,0,6.18.65,8.18,2a14.28,14.28,0,0,1,4.77,5.67,47.73,47.73,0,0,0,4.24,6.48,22.26,22.26,0,0,0,6.45,5.49,40.78,40.78,0,0,0,10.59,4.1,66.92,66.92,0,0,0,16.17,1.65,94.05,94.05,0,0,0,14.92-1.16,42.19,42.19,0,0,0,12.25-3.75,25.36,25.36,0,0,0,8.21-6.27,12.92,12.92,0,0,0,2.87-8.65,10.54,10.54,0,0,0-3-7.84c-2.2-2.2-5.67-4.14-10.32-5.78A156.4,156.4,0,0,0,353,420.27c-7.47-1.6-16.11-3.65-25.68-6.1a139.57,139.57,0,0,1-23.46-7.66,56.71,56.71,0,0,1-17.06-11.19,42.37,42.37,0,0,1-10.2-15.81,61.87,61.87,0,0,1-3.31-21.31,49.07,49.07,0,0,1,5.55-23.05A54.71,54.71,0,0,1,294,317.2a73.53,73.53,0,0,1,22.76-11.62,92.58,92.58,0,0,1,28.3-4.22c12,0,22.74,1.65,31.93,4.9a79.87,79.87,0,0,1,23.11,12.28A53.89,53.89,0,0,1,414.27,335a43.1,43.1,0,0,1,5.43,17.22,8.25,8.25,0,0,1-2.78,7.1,9.86,9.86,0,0,1-6.72,2.58H391.73c-3.57,0-6.24-.72-8.18-2.21a19.94,19.94,0,0,1-4.65-5.24,32.31,32.31,0,0,0-11.23-10.74c-5-3-12.58-4.54-22.64-4.54a55.28,55.28,0,0,0-12.52,1.39,35.22,35.22,0,0,0-10.13,3.95,20,20,0,0,0-6.5,6,13.39,13.39,0,0,0-2.24,7.67,15.61,15.61,0,0,0,2.11,8.61c1.42,2.17,3.93,4.11,7.46,5.76a85.4,85.4,0,0,0,15.26,5c6.47,1.58,14.62,3.44,24.22,5.54a173.7,173.7,0,0,1,27.69,8.18,66.12,66.12,0,0,1,19.42,11.53,43.93,43.93,0,0,1,11.43,15.79A51.88,51.88,0,0,1,425,438.83,49.7,49.7,0,0,1,419.43,462a53.37,53.37,0,0,1-15.72,18.26A78.86,78.86,0,0,1,379,492.13,118,118,0,0,1,346.35,496.46ZM277.48,438a5.16,5.16,0,0,0-3.56,1.38,3.49,3.49,0,0,0-1.19,3.18,41.19,41.19,0,0,0,6.73,20c14.13,21.5,43.73,29.07,66.89,29.07a110.39,110.39,0,0,0,31.25-4.13,73.88,73.88,0,0,0,23.26-11.13,48.58,48.58,0,0,0,14.35-16.63,45,45,0,0,0,5-21,47,47,0,0,0-3.38-18.37,39.31,39.31,0,0,0-10.2-14.09,61.83,61.83,0,0,0-18-10.67,169.37,169.37,0,0,0-26.93-7.95c-9.63-2.1-17.82-4-24.33-5.56a89,89,0,0,1-16.14-5.31c-4.35-2-7.52-4.55-9.43-7.46a20.17,20.17,0,0,1-2.89-11.22,18.26,18.26,0,0,1,3-10.3,24.9,24.9,0,0,1,8-7.47,39.94,39.94,0,0,1,11.49-4.5A59.76,59.76,0,0,1,345,334.41c10.94,0,19.39,1.76,25.11,5.24A36.77,36.77,0,0,1,383,352a15.52,15.52,0,0,0,3.5,4c1.05.8,2.87,1.22,5.28,1.22H410.2a5.21,5.21,0,0,0,3.57-1.38,3.51,3.51,0,0,0,1.18-3.18,38.34,38.34,0,0,0-4.87-15.33,49.32,49.32,0,0,0-13-15,75.06,75.06,0,0,0-21.74-11.51c-8.67-3.07-18.88-4.63-30.34-4.63a87.86,87.86,0,0,0-26.85,4A69.22,69.22,0,0,0,296.88,321,49.89,49.89,0,0,0,283,337.37a44.25,44.25,0,0,0-5,20.83,57.28,57.28,0,0,0,3,19.66,37.82,37.82,0,0,0,9.07,14.07,52,52,0,0,0,15.65,10.22,134.37,134.37,0,0,0,22.69,7.4C338,412,346.56,414,354,415.62a157.76,157.76,0,0,1,18.89,5.11c5.32,1.87,9.4,4.19,12.11,6.9a15.29,15.29,0,0,1,4.39,11.2,17.7,17.7,0,0,1-4,11.7,30.18,30.18,0,0,1-9.73,7.48A47.14,47.14,0,0,1,362,462.2a100.12,100.12,0,0,1-15.68,1.21A71.53,71.53,0,0,1,329,461.62,45.83,45.83,0,0,1,317.17,457a26.93,26.93,0,0,1-7.8-6.69,52.57,52.57,0,0,1-4.7-7.19,9.77,9.77,0,0,0-3.18-3.91A10.28,10.28,0,0,0,296,438Z"/><path class="cls-15" d="M667.39,496.46h-21.9a9.78,9.78,0,0,1-9.68-9.72V340.11h-46.3a9.78,9.78,0,0,1-9.68-9.72v-19.3a9.78,9.78,0,0,1,9.68-9.73H723.36a9.8,9.8,0,0,1,9.69,9.73v19.3a9.78,9.78,0,0,1-9.69,9.72H677.07V486.74a9.8,9.8,0,0,1-9.68,9.72ZM589.51,306.12a4.59,4.59,0,0,0-3.45,1.48,4.67,4.67,0,0,0-1.47,3.49v19.3a4.68,4.68,0,0,0,1.46,3.49,4.62,4.62,0,0,0,3.46,1.47h48.67a2.38,2.38,0,0,1,2.38,2.38v149a4.7,4.7,0,0,0,1.47,3.49,4.64,4.64,0,0,0,3.46,1.47h21.9a4.63,4.63,0,0,0,3.45-1.47,4.7,4.7,0,0,0,1.47-3.49v-149a2.39,2.39,0,0,1,2.38-2.38h48.67a4.6,4.6,0,0,0,3.46-1.47,4.7,4.7,0,0,0,1.47-3.49v-19.3a4.74,4.74,0,0,0-1.47-3.5,4.64,4.64,0,0,0-3.46-1.47Z"/><path class="cls-16" d="M1026.29,496.46H906.52a9.82,9.82,0,0,1-9.74-9.72V311.09a9.82,9.82,0,0,1,9.74-9.73h117.59a9.83,9.83,0,0,1,9.75,9.73v19.3a9.83,9.83,0,0,1-9.75,9.72H938.37v38.48h79.74a9.8,9.8,0,0,1,9.74,9.72v19.3a9.8,9.8,0,0,1-9.74,9.72H938.37v40.38h87.92a9.82,9.82,0,0,1,9.75,9.72v19.31a9.82,9.82,0,0,1-9.75,9.72ZM906.52,306.12a5.06,5.06,0,0,0-5,5V486.74a5.06,5.06,0,0,0,5,5h119.77a4.7,4.7,0,0,0,3.51-1.48,4.65,4.65,0,0,0,1.48-3.48V467.43a4.67,4.67,0,0,0-1.48-3.48,4.72,4.72,0,0,0-3.51-1.48H936a2.39,2.39,0,0,1-2.38-2.38V415a2.38,2.38,0,0,1,2.38-2.38h82.12a4.69,4.69,0,0,0,3.51-1.49,4.64,4.64,0,0,0,1.48-3.48v-19.3a5.06,5.06,0,0,0-5-5H936a2.39,2.39,0,0,1-2.38-2.38V337.73a2.39,2.39,0,0,1,2.38-2.38h88.12a4.72,4.72,0,0,0,3.51-1.48,4.65,4.65,0,0,0,1.48-3.48v-19.3a5.07,5.07,0,0,0-5-5Z"/><path class="cls-17" d="M1361.05,496.46h-19.54c-4.35,0-7.4-1-9.33-3.06a16,16,0,0,1-3.48-5.29l-11.07-28.63h-82.5l-11.08,28.66a16,16,0,0,1-3.47,5.26c-1.93,2.06-5,3.06-9.33,3.06h-19.54a9.8,9.8,0,0,1-9.7-9.72,8.45,8.45,0,0,1,.39-2.66l66.52-171.95a21.6,21.6,0,0,1,4.29-7.7c1.91-2,4.68-3.07,8.25-3.07h29.85c3.55,0,6.33,1,8.24,3.06a21.9,21.9,0,0,1,4.31,7.78L1370.32,484a8.53,8.53,0,0,1,.44,2.76,9.8,9.8,0,0,1-9.71,9.72ZM1233.5,454.72h85.76a2.4,2.4,0,0,1,2.22,1.52l11.67,30.18a11.51,11.51,0,0,0,2.49,3.72c1,1,3,1.56,5.87,1.56h19.54a5,5,0,0,0,5-5,4.14,4.14,0,0,0-.15-1.16L1299.4,313.85a17.77,17.77,0,0,0-3.32-6.17c-1-1-2.58-1.56-4.77-1.56h-29.85c-2.2,0-3.81.53-4.78,1.56a17.5,17.5,0,0,0-3.29,6.1l-66.51,171.91a3.53,3.53,0,0,0-.12,1.05,5.06,5.06,0,0,0,5,5h19.54c2.88,0,4.91-.54,5.87-1.56a11.36,11.36,0,0,0,2.48-3.69l11.68-30.21A2.4,2.4,0,0,1,1233.5,454.72Zm72.73-29.23h-59.7a2.39,2.39,0,0,1-2-1,2.37,2.37,0,0,1-.26-2.2l29.85-77.5a2.38,2.38,0,0,1,4.44,0l29.85,77.5a2.38,2.38,0,0,1-2.22,3.23ZM1250,420.73h52.77l-26.39-68.49Z"/><path class="cls-18" d="M1668.45,496.46h-22.1a9.82,9.82,0,0,1-9.74-9.72V389.27l-31,53.52a25.42,25.42,0,0,1-4.24,5,11.13,11.13,0,0,1-7.91,3h-14.18a11.12,11.12,0,0,1-7.9-3,25.44,25.44,0,0,1-4.21-5l-31.06-53.59v97.47a9.82,9.82,0,0,1-9.74,9.72h-22.09a9.8,9.8,0,0,1-9.74-9.72V311.09a9.82,9.82,0,0,1,9.74-9.73h18.54c4.34,0,7.65,1.29,9.85,3.82,1.83,2.12,3,3.52,3.74,4.42a2.23,2.23,0,0,1,.2.3l49.76,86.16,49.76-86.16a2.23,2.23,0,0,1,.2-.3c.72-.9,1.91-2.31,3.75-4.42,2.19-2.53,5.5-3.82,9.84-3.82h18.55a9.82,9.82,0,0,1,9.74,9.73V486.74a9.82,9.82,0,0,1-9.74,9.72ZM1639,378a2.21,2.21,0,0,1,.62.09,2.37,2.37,0,0,1,1.76,2.29V486.74a5.06,5.06,0,0,0,5,5h22.1a4.71,4.71,0,0,0,3.5-1.48,4.65,4.65,0,0,0,1.48-3.48V311.09a5.06,5.06,0,0,0-5-5H1649.9c-2.94,0-5,.71-6.25,2.17-1.67,1.93-2.82,3.29-3.51,4.14L1588.41,402a2.39,2.39,0,0,1-4.12,0l-51.73-89.57c-.69-.86-1.81-2.18-3.51-4.15-1.27-1.46-3.31-2.17-6.25-2.17h-18.54a5.07,5.07,0,0,0-5,5V486.74a5.06,5.06,0,0,0,5,5h22.09a5.07,5.07,0,0,0,5-5V380.42a2.38,2.38,0,0,1,4.43-1.19l35.46,61.18a20.52,20.52,0,0,0,3.39,3.94,6.4,6.4,0,0,0,4.64,1.67h14.18a6.41,6.41,0,0,0,4.64-1.66,20.93,20.93,0,0,0,3.44-4l35.41-61.11A2.39,2.39,0,0,1,1639,378Z"/></g><circle class="cls-19" cx="458.26" cy="363.34" r="317.59"/><circle class="cls-20" cx="1474.56" cy="744.45" r="317.59"/></g></g></g></svg>