<svg xmlns="http://www.w3.org/2000/svg" xmlns:xlink="http://www.w3.org/1999/xlink" viewBox="0 0 1151.25 854.46"><defs><style>.cls-1{isolation:isolate;}.cls-2{fill:#fff;}.cls-3{fill:#a0a0a0;}.cls-4,.cls-55{fill:#b7b7b7;}.cls-5{fill:#ffc236;}.cls-6{fill:#c6c6c6;}.cls-7{fill:#ffd84a;}.cls-8{fill:#fa7aa1;}.cls-9{fill:#d3d3d3;}.cls-10{fill:#cc9281;}.cls-11{opacity:0.44;}.cls-11,.cls-14,.cls-16,.cls-18,.cls-22,.cls-30,.cls-33,.cls-39,.cls-45,.cls-49,.cls-55{mix-blend-mode:multiply;}.cls-12{fill:url(#linear-gradient);}.cls-13{opacity:0.51;fill:url(#linear-gradient-2);}.cls-13,.cls-41{mix-blend-mode:screen;}.cls-14{opacity:0.45;fill:url(#linear-gradient-3);}.cls-15,.cls-16{fill:#ffae43;}.cls-16{opacity:0.56;}.cls-17{fill:url(#linear-gradient-4);}.cls-18{fill:#5e108c;opacity:0.17;}.cls-19{fill:#f88;}.cls-20{fill:#3d2326;}.cls-21{fill:#543439;}.cls-22{opacity:0.19;}.cls-23{fill:#8456cc;}.cls-24{fill:#3da6c0;}.cls-25{fill:#f47676;}.cls-26,.cls-31{fill:#e05a5a;}.cls-27{fill:#995650;}.cls-28{fill:#6f45bf;}.cls-29{fill:#a1665e;}.cls-30,.cls-40{fill:#bc827e;}.cls-30,.cls-39{opacity:0.49;}.cls-31,.cls-50{opacity:0.46;}.cls-32{fill:#8c2d41;opacity:0.36;}.cls-33{opacity:0.21;}.cls-34{fill:#da8966;}.cls-35{fill:#8c4c49;}.cls-36{fill:#4070bf;}.cls-37{fill:#701608;}.cls-38{fill:#db5d66;}.cls-41{opacity:0.25;}.cls-42{fill:#e7ac8d;}.cls-43{fill:#f4b5a2;}.cls-44{fill:#ffdf7b;}.cls-46{fill:#dfe6ef;}.cls-47{fill:#5c39b2;}.cls-48{fill:#f9c853;}.cls-49{fill:#712e57;opacity:0.26;}.cls-51{fill:#ffb3b3;}.cls-52{fill:#6b6b6b;}.cls-53{fill:#545454;}.cls-54{fill:#606060;}.cls-55{opacity:0.35;}</style><linearGradient id="linear-gradient" x1="798.5" y1="643.5" x2="785.47" y2="468" gradientUnits="userSpaceOnUse"><stop offset="0" stop-color="#ffd247"/><stop offset="1" stop-color="#ffdf7b"/></linearGradient><linearGradient id="linear-gradient-2" x1="790.22" y1="614.14" x2="793.99" y2="462.01" xlink:href="#linear-gradient"/><linearGradient id="linear-gradient-3" x1="672.1" y1="632.68" x2="928.89" y2="632.68" xlink:href="#linear-gradient"/><linearGradient id="linear-gradient-4" x1="794.47" y1="724.93" x2="797.41" y2="606.28" gradientUnits="userSpaceOnUse"><stop offset="0" stop-color="#ffcb64"/><stop offset="1" stop-color="#ffa538"/></linearGradient></defs><g class="cls-1"><g id="Layer_2" data-name="Layer 2"><g id="Layer_1-2" data-name="Layer 1"><path class="cls-2" d="M231,245.55a46.35,46.35,0,0,1-2.47,8c-2.53-.8-5.07-1.52-7.63-2.19.23-1,.46-2,.66-3,.35-1.67,1-4.18.2-5.72-.32-.58-1.81-.82-2.39-1s-2.08-.8-2.56-.41c-1.28,1-1.22,3.84-1.33,5.39-.13,1.81-.19,3.63-.29,5.44s-.19,3.62-.28,5.43c-.05.86-.09,1.72-.14,2.58a7.54,7.54,0,0,0,.11,3.18c.15.36,2.57,1.08,2.83.8a5.49,5.49,0,0,0,.88-2.63c.21-.91.41-1.81.62-2.72l.54-2.38q3.45.9,6.86,1.95a22.93,22.93,0,0,0-1.34,4.11c-.33,1.74-.41,3.4,1.61,4a2.93,2.93,0,0,0,1.92-.1c.63-.36,1-1.64,1.29-2.26.84-1.88,1.5-3.85,2.31-5.75,1.54-3.66,3.15-7.28,3.79-11.23C236.36,245.73,231.17,244.47,231,245.55Z"/><path class="cls-2" d="M245.37,249.63c-2.35-.37-5.37-.44-7,1.54a6.7,6.7,0,0,0-1.72,2,10.92,10.92,0,0,0-1.11,3c-.11.31-.21.62-.29.92-1,4-.52,10.17,4.06,11.77,4.92,1.72,8.67-3.6,9.92-7.56a15.42,15.42,0,0,0,.78-7.4A5.4,5.4,0,0,0,245.37,249.63Zm-2.77,12.49a4.8,4.8,0,0,1-2.85-.82l-.09-.11a1.9,1.9,0,0,1-.21-2.44,5.16,5.16,0,0,0,.74-2.68c2-.76,5.1-.63,5.43,2.07A3.3,3.3,0,0,1,242.6,262.12Z"/><path class="cls-2" d="M330.59,273.75c-2.34-.37-5.36-.44-7,1.54a6.82,6.82,0,0,0-1.71,2,10.63,10.63,0,0,0-1.12,3c-.11.31-.2.62-.28.92-1,4-.52,10.17,4.06,11.77,4.91,1.72,8.66-3.6,9.92-7.56a15.54,15.54,0,0,0,.78-7.4A5.41,5.41,0,0,0,330.59,273.75Zm-2.77,12.49a4.82,4.82,0,0,1-2.85-.82,1,1,0,0,1-.08-.11,1.87,1.87,0,0,1-.21-2.43,5.42,5.42,0,0,0,.74-2.69c2-.76,5.09-.63,5.43,2.07A3.3,3.3,0,0,1,327.82,286.24Z"/><path class="cls-2" d="M269.79,269.24c0-1.41-.14-2.82-.29-4.23a8,8,0,0,0-.92-3.66l.44-.45c.15-.16.08-.24-.08-.4a2.63,2.63,0,0,0-2.2-.85c-.71,0-.87,0-1.34.54s-.9,1.05-1.33,1.6c-.72.95-1.41,1.91-2.05,2.92a26.25,26.25,0,0,0-1.19-3.77c-.46-1.11-.82-2.58-1.87-3.28a1.15,1.15,0,0,0-.68-1.1,3.36,3.36,0,0,0-.45-.14c-1.39-.49-2.49.55-3.38,1.48a23.51,23.51,0,0,0-3.19,4.46q-1.27,2.22-2.45,4.48c-.42.79-.85,1.58-1.21,2.39-.2.43-.38.89-.55,1.34-.24.64-.35.81,0,1.49.13.27,1.52.48,1.81.56s1.45.63,1.82.47c1.56-.68,2.28-3.15,3-4.62s1.66-3.16,2.54-4.71c.36-.63.72-1.28,1.07-1.95.09.41.18.76.24,1a9.82,9.82,0,0,0,1,2.72,8.51,8.51,0,0,0,.95,1.22c.52.57.84,1.21,1.34,1.78a.64.64,0,0,0,.35.1,1.15,1.15,0,0,0,.34-.38c1.46-.62,2.54-2.28,3.62-3.4.1-.1.2-.19.29-.29-.16,1.08-.37,2.16-.58,3.25a32.42,32.42,0,0,0-.52,4.06c-.1,1.57-.5,3.2-.05,4.73.17.61,2.71,1.34,3.17.9,1.08-1,1.39-2.58,1.79-4A14.87,14.87,0,0,0,269.79,269.24Z"/><path class="cls-2" d="M280.47,276.18a18.51,18.51,0,0,1-3.39-.77c.17-.72.33-1.45.49-2.17,1.11.36,2.21.73,3.31,1.13,1.62.58,3.12-4.3,1.39-4.92-1.27-.46-2.54-.89-3.83-1.3.16-1,.31-2,.42-3.07l.26.1,3.31,1.25c1.59.6,3.12-4.27,1.39-4.92l-3.31-1.25a22.1,22.1,0,0,0-3-1.11,1.83,1.83,0,0,0-1.73.53c-.1,0-.16,0-.17,0s-.1.24-.14.35a4.86,4.86,0,0,0-.79,2.27,57.15,57.15,0,0,0-1.47,6.74,64.18,64.18,0,0,0-.77,9.79c0,.1.3.24.73.38a1.27,1.27,0,0,0,.29.21,18.67,18.67,0,0,0,5.62,1.66C280.93,281.34,282.12,276.39,280.47,276.18Z"/><path class="cls-2" d="M312.08,271.44c-.61,1.41-1.39,2.76-2,4.18s-1,2.87-1.5,4.27c-.44,1.12-.91,2.23-1.4,3.33-.32-1.4-.86-2.7-1.18-4.12-.12-.53-2.55-1.2-2.93-.83-1.34,1.28-2.21,3.2-3.36,4.67-.2.26-.41.51-.62.76,0-.26-.05-.53-.07-.79-.17-2-.41-4-.64-6s-.45-3.83-.65-5.75c-.18-1.69.32-4.27-.81-5.58a5.54,5.54,0,0,0-4.67-1.32c-1.15.4-1.27,1.16-1.28,2.34a14.91,14.91,0,0,0,.37,2.75c.4,2.05.82,4.1,1.23,6.15.38,1.89.75,3.79,1.17,5.67a27,27,0,0,0,.68,3,7.36,7.36,0,0,0,1.56,2.44,2.11,2.11,0,0,0,.31.9c.28.5,2.71,1.24,3.18.9a15.73,15.73,0,0,0,3.63-4.23c.23-.34.5-.7.77-1.08v0a36.9,36.9,0,0,1,1,5.06c0,.45,2.45,1.12,2.72.76q2.89-3.79,5.66-7.67a42.52,42.52,0,0,0,2.59-3.71,25,25,0,0,0,1.72-4.5C317.82,272.38,312.44,270.6,312.08,271.44Z"/><path class="cls-2" d="M351,296.67c-1-1.83-2.19-3.48-3.25-5.24a5.88,5.88,0,0,0,3.13-.76,6.41,6.41,0,0,0,3.28-4.33c.3-2.09-1.38-3.64-2.7-5a12.56,12.56,0,0,0-5.83-3.5l-.44-.06a3.52,3.52,0,0,0-1.45-.51l-1-.05c-.13,0-.56,0-.63.17-1.67,4.47-2.27,9.25-3.35,13.88a63.51,63.51,0,0,0-1.51,6.77c-.16,1.27.13,1.73,1.39,2.33a4.26,4.26,0,0,0,3.16.34c.83-.38,1.11-1.69,1.37-2.53.35-1.1.55-2.26.79-3.38.16-.76.31-1.52.46-2.29.63,1,1.21,2.11,1.83,3.15a60.08,60.08,0,0,1,3.22,6.16c.31.7,2,1,2.63,1.14.24.05,2,.38,1.73-.21C352.91,300.69,352,298.65,351,296.67Zm-2.82-8.73a5.63,5.63,0,0,1-1.57,1.22,5.36,5.36,0,0,1-1,.4,4.34,4.34,0,0,1-.62.06c.09-.55.19-1.1.28-1.65A38.68,38.68,0,0,0,346,281a14.74,14.74,0,0,0-.09-1.93c.55.51,1.06,1.07,1.57,1.63.92,1,2.08,2.12,2.17,3.56A5.16,5.16,0,0,1,348.16,287.94Z"/><path class="cls-2" d="M373,303.83a18.28,18.28,0,0,0-3.05-7.34c-.73-1.08-1.51-2.13-2.31-3.17l-.06-.08c.28-.18.57-.38.85-.58a44.4,44.4,0,0,0,5.73-4.69,4.2,4.2,0,0,0,1-3.48c-.24-1-1-1.23-1.74-.49a38.64,38.64,0,0,1-4.67,3.81,9.16,9.16,0,0,1-4.16,2c0-.72,0-1.45,0-2.19q0-1.51-.12-3a3.68,3.68,0,0,0-.93-2.78,4.33,4.33,0,0,0-2.39-.65c-.72.36-.77.47-.94,1.22-.11.47-.15,1-.22,1.44-.14.88-.28,1.75-.44,2.63-.32,1.85-.57,3.69-.82,5.55-.51,3.77-.71,7.53-1.48,11.27l.08.09a7.71,7.71,0,0,0,4.94,1.39l.11,0c.54-2.88,1.23-5.75,1.69-8.64a8,8,0,0,1,1.6,1.77c.72.93,1.43,1.87,2.08,2.85a15.33,15.33,0,0,1,2.55,6.08c.16,1.05,1.05,1.19,1.74.49A4.35,4.35,0,0,0,373,303.83Z"/><path class="cls-2" d="M294.36,592.87a22,22,0,0,0-2.1,1.34,9.54,9.54,0,0,1-.86.54,3.83,3.83,0,0,1-1.11.27c.25.12-.38.35-.26.2a.39.39,0,0,0,.07-.17,2.23,2.23,0,0,0-.24-.08l.25,0a5.91,5.91,0,0,1,.14-.8,4.17,4.17,0,0,1,.46-.79c1.13-1.54,3.16-2.09,4.9-2.55s-.39-4.07-1.7-3.73c-2.87.75-6.36,2-6.73,5.43-.28,2.63,2.1,6.57,5.09,6.22,1.54-.18,2.74-1.44,4-2.17a5.59,5.59,0,0,1,2.31-.83,3.11,3.11,0,0,1,.91.07,1,1,0,0,1,.23.08v0a3.3,3.3,0,0,1-.38.75,5.56,5.56,0,0,1-1.47,1.51,11.27,11.27,0,0,1-2.31,1.33,5.81,5.81,0,0,1-2,.65c-.42-.27-.89-.4-1.2.05-.5.71.33,2.08.76,2.58,1.38,1.6,2.95,1,4.66.28a9.86,9.86,0,0,0,3.83-2.8c2.21-2.76.33-6.8-2.76-7.95A5.51,5.51,0,0,0,294.36,592.87Z"/><path class="cls-2" d="M290.15,595.06l.14,0-.18,0a.13.13,0,0,0,0,.06Z"/><path class="cls-2" d="M306.73,578.11a28.7,28.7,0,0,0-4.09,2.38,6.28,6.28,0,0,0-2.11,1.47c-1,.67-1.93,1.33-2.94,1.91-1.18.69.92,4.09,2.14,3.38.85-.49,1.66-1,2.47-1.58.88,1.57,1.65,3.21,2.43,4.83a19.35,19.35,0,0,0,2.16,3.91c.83,1,1.69,1.72,3,.9a2.38,2.38,0,0,0,.92-1.1,3.39,3.39,0,0,0-.5-1.74c-.61-1.42-1.38-2.8-2-4.22-.78-1.7-1.53-3.4-2.45-5a24.67,24.67,0,0,1,3.14-1.75C310,581,308.06,577.51,306.73,578.11Z"/><path class="cls-2" d="M321.14,570.56c-1.19-1.24-5.2,1.65-4.22,2.68.1.1.2.21.29.32,2.39,2.69,4,6.62,3,10.2a3.7,3.7,0,0,1-.51-.23,11.15,11.15,0,0,1-2.22-2.38,47.54,47.54,0,0,1-4.17-6.44c-.73-1.34-5,1.23-4.23,2.68a37.29,37.29,0,0,0,5.46,8,5.71,5.71,0,0,0,3.3,2,6.54,6.54,0,0,0,5-2.2,7.1,7.1,0,0,0,1.29-1.85c1.31.83,4.93-1.78,4-2.84C325.53,577.38,324,573.51,321.14,570.56Z"/><path class="cls-2" d="M328.18,564.38c-.38.19-.85.41-1.3.68-1.61.1-4.08,2.17-3.28,3A53.44,53.44,0,0,1,332,578.85c.69,1.18,4-.67,4.31-2.1,4.06-1.89,8.11-5.71,6-10.12C339.67,561.09,332.67,562.13,328.18,564.38Zm9.2,10.42c.06-.06.11-.11.12-.07S337.45,574.77,337.38,574.8Zm1.05-2a6.7,6.7,0,0,1-1.14,2c-.3.09-.82.2-.87.21a3.92,3.92,0,0,0-.78.25,53.13,53.13,0,0,0-7.32-9.44c3.08-1,6.56-.62,8.79,2A5.5,5.5,0,0,1,338.43,572.79Z"/><path class="cls-2" d="M349,550.57c-.63-.8-4.7,2.07-4.22,2.68a23.77,23.77,0,0,1,3.66,5.83,9.57,9.57,0,0,1-7.29-2.48c-1.12-1-5,2-4.23,2.67a11.43,11.43,0,0,0,11.37,2.25,5.71,5.71,0,0,0,.72-.29,9.12,9.12,0,0,1-.64,4.73c-.73.4-2,1.19-2,1.81,0,1,1.08.64,1.71.35a8.32,8.32,0,0,0,3.28-2.4,9.58,9.58,0,0,0,1.9-4.62C353.71,557.06,351.33,553.6,349,550.57Z"/><path class="cls-2" d="M586.34,106.12c-1.79-.56-3.63-.83-5.43-1.29a5.28,5.28,0,0,0,1.52-2.48,5.74,5.74,0,0,0-.66-4.86c-1.14-1.54-3.2-1.46-4.92-1.5a11.54,11.54,0,0,0-6,1.47l-.32.25a3,3,0,0,0-1.24.59l-.69.61c-.08.08-.36.34-.29.51,1.78,3.93,4.44,7.38,6.71,11a57.06,57.06,0,0,0,3.34,5.31c.71.91,1.19,1,2.38.6a3.86,3.86,0,0,0,2.25-1.8c.29-.77-.37-1.79-.74-2.5a29.36,29.36,0,0,0-1.65-2.66c-.38-.59-.77-1.18-1.16-1.76,1.06.26,2.12.57,3.18.85a54.07,54.07,0,0,1,6,1.89c.65.26,1.9-.61,2.41-.94.19-.12,1.53-1,1-1.24C590.14,107.47,588.27,106.73,586.34,106.12ZM579,102.33a5.13,5.13,0,0,1-.23,1.78,4.93,4.93,0,0,1-.4.91,3.81,3.81,0,0,1-.37.43l-.87-1.23a34.86,34.86,0,0,0-3.94-4.94,13.92,13.92,0,0,0-1.29-1.17c.68,0,1.36,0,2,0,1.23.06,2.68,0,3.66.9A4.7,4.7,0,0,1,579,102.33Z"/><path class="cls-2" d="M521.17,130.55c1.4-.76-.82-4.81-2.25-4.05q-2.92,1.57-5.76,3.29c-1.11-.64-5.24,1.83-4.62,2.84q3.43,5.6,6.56,11.38c1,1.9,2,3.83,3,5.74.87,1.66,3.59.27,4.85-1a21.5,21.5,0,0,0,5.41-3.2c1.31-1.07-1.1-5-2.25-4.05a21,21,0,0,1-4.61,2.87l-.39-.76c-.29-.56-.59-1.12-.89-1.67l5.12-2.74c1.4-.75-.81-4.81-2.25-4L518,137.86q-1.17-2.09-2.39-4.14C517.42,132.61,519.28,131.56,521.17,130.55Z"/><path class="cls-2" d="M539.06,126.26l-8.15,4.36c-1.41.75.81,4.81,2.24,4l8.16-4.36C542.71,129.55,540.5,125.49,539.06,126.26Z"/><path class="cls-2" d="M566,105.38c1.4-.76-.82-4.81-2.25-4q-2.92,1.58-5.76,3.29c-1.11-.64-5.24,1.83-4.62,2.84q3.43,5.6,6.56,11.38c1,1.9,2,3.83,3,5.74.87,1.66,3.59.27,4.85-1a21.15,21.15,0,0,0,5.41-3.2c1.31-1.07-1.1-5-2.25-4a21,21,0,0,1-4.61,2.87l-.39-.76c-.29-.56-.59-1.11-.89-1.67l5.12-2.74c1.4-.75-.81-4.81-2.24-4l-5.09,2.72q-1.17-2.09-2.39-4.14C562.27,107.44,564.13,106.39,566,105.38Z"/><path class="cls-2" d="M559.46,123.3l-4.79,2.85-1.49.89-.51-1q-1.21-2.34-2.51-4.67-2.5-4.53-5.23-8.95c-.71-1.15-5.46,1.58-4.8,2.66q3.45,5.59,6.56,11.39c1,1.89,2,3.82,3,5.73.73,1.39,2.77.64,4.14-.4a15.25,15.25,0,0,0,2.73-1.39l5.17-3.08C563.1,126.52,560.83,122.49,559.46,123.3Z"/><path class="cls-2" d="M594,85.5l4.27,7.69c-2.81-1.85-5.65-3.66-8.56-5.33-.76-.43-2.22.13-3.31.91s-2.11,1.51-1.85,2l9.18,16.54c.53,1,5.39-1.72,4.85-2.69l-4.51-8.13c2.69,1.78,5.36,3.59,8,5.37a1.51,1.51,0,0,0,1,.15l0,.05c.53,1,5.4-1.71,4.85-2.69l-9.18-16.54C598.35,81.85,593.49,84.52,594,85.5Z"/><path class="cls-2" d="M621.11,70.47l4.27,7.69c-2.81-1.85-5.65-3.66-8.57-5.33-.75-.43-2.21.13-3.3.91s-2.11,1.51-1.86,2l9.19,16.55c.53,1,5.39-1.72,4.85-2.7l-4.51-8.12c2.69,1.78,5.36,3.59,8,5.37a1.51,1.51,0,0,0,1,.15l0,.05c.53,1,5.39-1.72,4.85-2.69L626,67.77C625.43,66.82,620.57,69.49,621.11,70.47Z"/><path class="cls-2" d="M606.29,84.44l.19.33,6.08,11,.18.33c.66,1.2,5.53-1.48,4.85-2.69l-.18-.34q-3-5.46-6.08-10.94l-.19-.34C610.48,80.55,605.62,83.22,606.29,84.44Z"/><path class="cls-2" d="M607.87,76c-.4-.86-2.44.16-2.93.44s-2.34,1.36-1.92,2.25c.1.22.21.43.32.64a.5.5,0,0,0,.06.46c.55.76,1.09,1.53,1.64,2.3s2.32-.1,2.92-.45c.43-.24,2.48-1.48,1.93-2.25A19.33,19.33,0,0,1,607.87,76Z"/><path class="cls-2" d="M649,66.77c-2.18-.47-4.6.86-6.44,1.88-.49.27-1.87,1-2,1.73-.25.29-.36.54-.25.71a14.35,14.35,0,0,0,.88,1.14,4.62,4.62,0,0,0,.95,1c.8.65,3.45-.91,4.48-2,.85,1,1.71,2.36,1.45,3.65a4.13,4.13,0,0,1-1.1,1.85,8.85,8.85,0,0,1-.75.75h0a.94.94,0,0,1-.38.07,3.15,3.15,0,0,1-1-.13,5.32,5.32,0,0,1-2-1.14,25.28,25.28,0,0,1-6-9.11,3.6,3.6,0,0,1,.81-4.39l.72-.07a4.62,4.62,0,0,1,2.25.71c.77.45,2.63-.79,3.24-1.2.35-.22,2-1.31,1.24-1.75-4-2.36-9.49,1-12.12,4a4.6,4.6,0,0,0-1.07,5.18,30.28,30.28,0,0,0,3.34,6,13.47,13.47,0,0,0,4,4.19,6.3,6.3,0,0,0,5.4,0,16.69,16.69,0,0,0,6-3.94c1.21-1.23,2.58-2.77,2.28-4.63S650.76,67.16,649,66.77Zm-11.22-4.13c.07-.07.06,0,0,0Zm-.29.25c-.06,0-.1,0-.12,0Z"/><path class="cls-3" d="M363,156.57c-.76-1.37-2.32-2.52-3.42-3.62l-4.42-4.46a1.67,1.67,0,0,0-1.43-.35,1.63,1.63,0,0,0-1.47-.68,6.1,6.1,0,0,0-4.33,2.45,6.43,6.43,0,0,0,.54,8.28c1.93,2.19,5.56,4.36,8.56,4.37C359.79,162.58,364.9,159.92,363,156.57Z"/><path class="cls-4" d="M370.35,153.21c-.69-2.42-3-3.86-4.92-5.21a32.2,32.2,0,0,1-5.89-5.41c.39-.66.42-1.3-.2-1.75-2.49-1.84-5.22-2.39-8-.71a7,7,0,0,0-3.45,6.57c.48,5.24,6.43,9,10.62,11.28,2.32,1.25,4.77,2.67,7.44,1.72S371.22,156.26,370.35,153.21Z"/><path class="cls-2" d="M397.55,131.39c4.47-1.7,8.76-4.79,10.49-9.4,1.52-4.08,1.21-8.95.28-13.12a26.91,26.91,0,0,0-5.86-12.12,22.54,22.54,0,0,0-21.37-7.47,23.7,23.7,0,0,0-12.78,7.42A19.69,19.69,0,0,0,363.58,109c-.23,4.69.58,9.39.07,14.07A24,24,0,0,1,358.07,136c-.76.87-1.45,2.28.09,2.71,1.13.33,2.75-.37,3.82-1.19v.14a31.78,31.78,0,0,0,1.31,7c.61,2.06,1.4,3.7,3.88,3.24,2.73-.51,4.6-2.68,6.48-4.55,3.15-3.14,6.34-6.82,10.58-8.49S393.24,133,397.55,131.39Z"/><path class="cls-2" d="M377,82.62c-.74-4.37-2.62-8.46-4.33-12.53s-3.62-8.32-5.52-12.44c-.74-1.58-3.55-.48-2.89,1.16,1.66,4.14,3.35,8.25,5.14,12.33s3.54,8.41,6.26,12A.73.73,0,0,0,377,82.62Z"/><path class="cls-2" d="M389.79,84c2.07-8.69,1.39-18.07.15-26.84-.31-2.22-3.64-1.33-3.36.84,1.12,8.59,1.09,17.24,2,25.83C388.62,84.51,389.61,84.78,389.79,84Z"/><path class="cls-2" d="M402.88,86.73c1.39-1.3,2.36-3.37,3.35-5,1.11-1.82,2.13-3.7,3.21-5.54,2.14-3.69,4.33-7.36,6.59-11,1.17-1.87-1.75-3.55-2.95-1.71-2.39,3.67-4.69,7.4-6.85,11.22-1.05,1.85-2.14,3.71-3,5.64C402.39,82.13,401.3,84,401,86,400.89,87,402.26,87.32,402.88,86.73Z"/><path class="cls-2" d="M427.62,84.88q-5.16,2.76-10.19,5.75c-1.59,1-3.14,1.91-4.63,3a18.29,18.29,0,0,0-4,3.38c-.41.56.26,1.17.81,1.08a18.42,18.42,0,0,0,4.65-2c1.76-.85,3.45-1.8,5.15-2.76,3.3-1.87,6.6-3.74,9.9-5.58C431.15,86.74,429.52,83.86,427.62,84.88Z"/><path class="cls-2" d="M434.61,104.06c-3.49.4-7,.91-10.44,1.4-1.73.24-3.43.55-5.14.83a26.71,26.71,0,0,0-5.44,1,.9.9,0,0,0,.2,1.76,27.1,27.1,0,0,0,5.54-.24c1.73-.12,3.46-.22,5.19-.38,3.5-.33,7-.64,10.48-1.06C436.91,107.19,436.53,103.84,434.61,104.06Z"/><path class="cls-5" d="M386.88,124.17c1.59-1,7.59-3.58,5.74-6.46-.88-1.37-2.87-1-4.26-1-.65,0-1.09.18-1.49-.37a2,2,0,0,1-.06-1.66,8.13,8.13,0,0,0,.28-2.4c-.12-1.28-.81-2.23-2.17-2.09a20.77,20.77,0,0,0-5.39,1.74c0-2.36,0-5.46-2.51-6-2.84-.58-4.93,2-5.84,4.36a78,78,0,0,0-2.93,11,71.54,71.54,0,0,0-1.87,11.54c0,.19.26.22.31,0,1.63-5.16,2.76-10.46,4.33-15.65.73-2.41,1.3-5.3,2.61-7.47.73-1.21,3-3.23,3.72-.59a21,21,0,0,1,.25,4.13,1,1,0,0,0,1.23,1c1.66-.5,3.31-1,4.95-1.55.15,0,1.12-.49,1.23-.41s0,1.09,0,1.3a15.28,15.28,0,0,0-.32,1.77,3.49,3.49,0,0,0,1,3c1.18.86,2.94-.09,4.23.36,1.1.38.3.89-.38,1.33s-1.51,1-2.26,1.43c-1.5,1-3,2-4.43,3a43.64,43.64,0,0,0-7.95,7c-.26.3.06.81.44.58C379.35,129.68,383,126.74,386.88,124.17Z"/><path class="cls-6" d="M373.26,152.35a2.39,2.39,0,0,0,.29-.67,2.17,2.17,0,0,0,.67-2c-1.48-4.75-4.43-9.37-8.7-12.07a32.89,32.89,0,0,0-6.15-2.82,6.49,6.49,0,0,0-7.3,1.66c-3.77,4,1.94,8.44,4.82,10.79l6.28,5.12c1.78,1.44,3.39,2.54,5.76,2.48A5.8,5.8,0,0,0,373.26,152.35Z"/><path class="cls-2" d="M217,606.11l-16.39-6.19a6.21,6.21,0,0,0-2.86-.57,6,6,0,0,0-2.84,1.54c-10.65,8.59-32.15,29.22-32.15,29.22L148.5,617.86h0l-12.27-10.54q21.48-22.4,44.87-42.85,8.7,9.06,17,18.55Q207.86,594.29,217,606.11Z"/><path class="cls-2" d="M217,606.11l-16.39-6.19a6.21,6.21,0,0,0-2.86-.57,6,6,0,0,0-2.84,1.54c-10.65,8.59-32.15,29.22-32.15,29.22L148.5,617.86c.38.1,18.11,4.58,40.6-16.78a28,28,0,0,0,9-18.06Q207.86,594.29,217,606.11Z"/><path class="cls-2" d="M766.44,237.44a39.53,39.53,0,0,1-3.77-14c-.34-4.54.64-9,.41-13.52a.73.73,0,0,0-1.34-.37c-2.83,4.14-2.77,9.9-2.17,14.69a34.8,34.8,0,0,0,5.08,14.21,1,1,0,0,0,1.79-1Z"/><path class="cls-2" d="M770.34,193.6a169.26,169.26,0,0,1,9.88-14.07c3.1-4.05,7.8-7.88,9.75-12.64.22-.52-.41-1.09-.91-.91-5.06,1.77-8.83,7.36-11.91,11.48a68.45,68.45,0,0,0-8.44,15.46c-.39,1,1.12,1.51,1.63.68Z"/><path class="cls-2" d="M870.78,117.76c3.69-3.22,7.45-6.4,11.2-9.57,1.81-1.53,3.59-3.1,5.43-4.61s3.94-2.78,5-4.94a1.55,1.55,0,0,0-1.72-2.24c-2.28.44-3.95,2.07-5.69,3.5-2,1.6-3.89,3.22-5.74,4.93A101,101,0,0,0,869,116a1.24,1.24,0,0,0,1.75,1.75Z"/><path class="cls-2" d="M908.55,79.06A21.41,21.41,0,0,0,912,72.88a39.55,39.55,0,0,0,1.78-7.52,40.5,40.5,0,0,0,.35-7.3c-.1-2.29,0-4.91-1.73-6.62a1.85,1.85,0,0,0-2.88.37c-.88,2-.33,3.75-.18,5.83a40,40,0,0,1-.12,7,71.14,71.14,0,0,1-3.09,13.4c-.46,1.52,1.57,2.14,2.4,1Z"/><path class="cls-2" d="M656.13,175.48c2.11,9.93,6.54,19.39,10.56,28.65,2,4.63,4.06,9.23,6.24,13.78,2.07,4.32,4,9.84,7.56,13.2.34.33,1.06.12,1-.42-.45-4.53-3.17-9.11-5-13.22-2.14-4.73-4.3-9.46-6.44-14.2-4.24-9.38-7.89-19.26-13.29-28.05a.34.34,0,0,0-.61.26Z"/><path class="cls-2" d="M643.09,258.75a63.34,63.34,0,0,1,20.35-11.47,59.46,59.46,0,0,1,10.86-2.45c3.7-.48,7.38-.48,11.06-1.12,1-.17.82-1.57,0-1.84-7.42-2.39-16.42-.05-23.43,2.83a47,47,0,0,0-19,13.83.15.15,0,0,0,.21.22Z"/><path class="cls-2" d="M289.37,577.46c9.26-13.08,20.2-24.51,33.65-33.29a104.05,104.05,0,0,1,21-10.59c7.32-2.69,17.75-5.51,22.6,2.77,4.27,7.31,1.1,15.8-3.29,22.2-5.09,7.43-11.45,14.18-17.6,20.73a303.69,303.69,0,0,1-40.31,36.3c-7,5.2-18.14,11.57-25.32,3-6.78-8.07-2.83-19.33.19-28.08.25-.73-.95-1.26-1.27-.53-3.53,8.13-7,17.23-3.47,26,3.27,8.07,11.24,11.31,19.4,8.59a43.4,43.4,0,0,0,12.17-7q5.88-4.46,11.61-9.13a301.88,301.88,0,0,0,22.65-20.56,296.33,296.33,0,0,0,20.69-23c5.35-6.65,10.47-14.51,9.21-23.45-1.13-8-7.13-13.69-15.36-13.55-8.63.15-17.58,4.54-25.09,8.47-17.32,9.07-32.86,23.28-41.81,40.81a.23.23,0,0,0,.4.24Z"/><path class="cls-2" d="M189.28,563.64a42.3,42.3,0,0,0,6.22,7.22c2.57,2.56,5.15,5.12,7.83,7.56,5.3,4.82,10.65,9.37,16.32,13.75.89.69,2.13-.43,1.28-1.28-5.06-5-10.2-9.82-15.48-14.59-2.58-2.33-5.25-4.57-7.88-6.84a46.05,46.05,0,0,0-8-6.07.18.18,0,0,0-.24.25Z"/><path class="cls-2" d="M121.9,620.71c3,4.58,7.9,8.4,12.16,11.75s8.67,7.47,13.81,9c.76.24,1.18-.71.73-1.25-3.42-4-8.66-6.77-12.84-10s-8.64-7.41-13.44-10c-.25-.14-.59.15-.42.42Z"/><path class="cls-2" d="M122.28,597.09c3.75-5,8.16-9.13,12.66-13.4s9-8.36,13.67-12.37,9.18-7.73,13.9-11.43q3.94-3.09,8-6.06c1.54-1.14,4.65-2.44,4.59-4.63a.59.59,0,0,0-.41-.55c-2.23-.78-5,2.42-6.61,3.68q-3.53,2.7-7,5.47-7.55,6-14.78,12.44-7.07,6.25-13.83,12.86c-4.05,4-8.84,8.26-10.87,13.7-.17.44.47.61.71.29Z"/><path class="cls-2" d="M345.31,111.23c-11.18-1.21-20.31,10.28-24.6,19.31-2.28,4.78-4,10.56-2.11,15.78,1.81,5.07,6.37,7.27,10.47,10.21,2.06,1.48,3.91,3.28,4.38,5.88.56,3.12-.74,6.31-1.66,9.22-1.52,4.84-2.68,10,0,14.68,5.89,10,21.12,10.31,31.1,8.72,6.48-1,14.79-3.14,18.66-8.95,3.51-5.26,3-12.42,1-18.09a.91.91,0,0,0-1.77.24c-.25,4.94.8,10.68-1.71,15.18-2.86,5.13-10.07,6.82-15.4,7.86a43.62,43.62,0,0,1-17.41.08c-4.26-.94-9.05-2.91-11.35-6.87-2.65-4.55-.22-9.72,1.08-14.3,1.19-4.25,1.7-8.83-1-12.61-2.46-3.39-6.43-4.95-9.67-7.4-4.46-3.37-5.26-8.39-3.9-13.58a42.52,42.52,0,0,1,8.62-15.85c3.85-4.63,8.92-8.47,15.24-8,1,.08,1-1.44,0-1.55Z"/><path class="cls-2" d="M240.67,187.68c-.33-6.81-2.56-13.68-4.9-20a153.68,153.68,0,0,0-8.55-19l-1.63,1.64c11,5.55,21.75,11.56,32.77,17.08v-2.52c-13.7,6.43-29.27,7.77-44.13,9.28.2.75.4,1.51.61,2.26a116.09,116.09,0,0,0,34.6-30.27l-1.56-.66c-2.41,11.37-5.12,22.72-6.92,34.21-.1.64.82.93,1,.27,3-11.21,5.16-22.67,7.57-34,.16-.77-.83-1.53-1.42-.83a133.61,133.61,0,0,1-34.48,29.21c-1,.56-.63,2.38.61,2.25,15.41-1.56,30.68-3.49,45.25-9a1.47,1.47,0,0,0,.35-2.66c-10.92-5.72-22.09-11-33-16.63a1.21,1.21,0,0,0-1.64,1.64,148.55,148.55,0,0,1,8.24,18.88c2.22,6.29,3.81,12.86,6.26,19.05.19.5,1,.49,1-.13Z"/><path class="cls-2" d="M583.75,43.5c3-7,6.34-13.82,9.75-20.61l-2.12-.28c3.08,7.84,5.77,15.83,8.21,23.89l1.69-1.3a208.82,208.82,0,0,0-26.54-13.41l-.27,2c9.86.24,17.8-7.49,27.62-7.24l-.93-1.63a89.51,89.51,0,0,0-7.39,11,.93.93,0,0,0,1.6.94c2.48-3.68,5-7.35,7.66-10.87.52-.69-.2-1.62-.94-1.63-9.88-.2-17.79,7.57-27.62,7.38-1.23,0-1.25,1.58-.27,2a171.22,171.22,0,0,1,25.92,13.46,1.16,1.16,0,0,0,1.69-1.3A225.77,225.77,0,0,0,593.62,22c-.34-.84-1.64-1.27-2.13-.28-3.4,6.91-6.38,14-9.11,21.21-.29.78,1,1.35,1.37.57Z"/><path class="cls-2" d="M35.25,593.64c-5.61-3-11.46-5.5-16.92-8.77a137.5,137.5,0,0,1-15.8-11.45l.24,1.81c.69-1.25,3.54-1,4.75-1.06,1.7-.11,3.4-.18,5.09-.23q4.88-.12,9.73.12a154.05,154.05,0,0,1,19.85,2.5c-.1-.79-.21-1.57-.31-2.36-10.21,6.22-20.66,11.94-31.26,17.46-.18.09,0,.36.15.26,10.66-5.49,21.4-10.72,32.41-15.49a1.3,1.3,0,0,0-.3-2.36A118.86,118.86,0,0,0,20,571.2c-3.85-.15-7.72-.12-11.57.08-2.68.13-6.17-.18-8,2.14a1.54,1.54,0,0,0,0,2.11,72.76,72.76,0,0,0,15.75,12.23c5.79,3.44,11.73,6.34,18.38,7.53.94.17,1.66-1.14.7-1.65Z"/><path class="cls-2" d="M8,596.07c2.19-2.35,3.75-5.61,5.13-8.49q2.34-4.87,4.43-9.84a176.66,176.66,0,0,0,6.72-19.88l-1.5.19a111.52,111.52,0,0,1,5.36,12.28c1.46,3.67,2.45,7.92,4.39,11.35.42.73,1.77.46,1.68-.46-.37-4-2.35-8.13-3.9-11.8-1.8-4.24-4-8.11-6.11-12.2a.83.83,0,0,0-1.5.2c-2.12,6.6-4.68,13-7.21,19.44q-1.92,4.9-4.09,9.71c-1.34,3-3,6.15-3.66,9.35a.16.16,0,0,0,.26.15Z"/><path class="cls-2" d="M276.07,39.62c3.78-4.16,12.08-1,9.54,5-1.31,3.09-4.17,3.67-7.19,2.64-3.29-1.13-4.93-3.33-5.91-6.53a.44.44,0,0,0-.73-.2c-3.76,3.37,2.2,7.84,5.11,8.93,4,1.49,8.4.39,10.14-3.75,1.32-3.15.48-6.91-2.7-8.53a6.65,6.65,0,0,0-8.58,2.17c-.13.2.17.43.32.25Z"/><path class="cls-2" d="M292.34,19.84c3.88-1.74,8.12,3.61,4.1,6.38-3.83,2.65-6.56-2.22-6.73-5.49a.39.39,0,0,0-.72-.2c-1.85,2.53-.79,6,1.56,7.8a6.35,6.35,0,0,0,8.44-.8,5.45,5.45,0,0,0,.19-7.79,4.84,4.84,0,0,0-7.06-.18c-.15.15,0,.36.22.28Z"/><path class="cls-2" d="M269,20.4a4.73,4.73,0,0,1,4.36-4c1.94,0,3.08,1.86,3.05,3.64a3.05,3.05,0,0,1-3.28,3.19c-1.77-.16-3.11-1.68-4.12-3a.32.32,0,0,0-.57.07c-1,2.92,2.57,4.73,5,4.68a4.85,4.85,0,0,0,4.64-5.28,5,5,0,0,0-5.12-5,4.78,4.78,0,0,0-4.5,5.73c.08.3.48.2.51-.07Z"/><path class="cls-2" d="M441.05,331.17c1.22-1.24,1.42-3.14,3.66-3.22,2.81-.11,3.38,3.57,2.79,5.64a6.26,6.26,0,0,1-5.52,4.53c-2.8.05-4.58-2.89-4.83-5.42,0-.49-.71-.93-1.1-.45-2.95,3.58.47,8.23,4.49,9,4.82.93,9.48-3.12,10.22-7.74.63-4-1.69-8.92-6.31-8.52a5.41,5.41,0,0,0-4.45,2.84c-.55,1.17-.74,2.89.68,3.44a.36.36,0,0,0,.37-.1Z"/><path class="cls-2" d="M463.07,340.35c-.3-2.27,2.55-2.81,4-1.52a6.07,6.07,0,0,1,1.55,3.78c.24,2.53-1,6-3.54,7-3.33,1.29-5.19-2.78-4.53-5.51s3.3-4.91,5.2-6.88a.45.45,0,0,0-.43-.74c-4.72,1.51-8.6,6.08-7,11.26a5.9,5.9,0,0,0,10,2.6c3.24-3.24,4-9.22,1-12.87a5,5,0,0,0-5.82-1.7,3.89,3.89,0,0,0-2.5,4.85c.34,1.1,2.29,1,2.12-.28Z"/><path class="cls-2" d="M457.39,318c.31-4,5.17-2.13,6.78-.39s2.46,4.36.19,6c-4,2.91-7.56-2.83-6.47-6.43a.75.75,0,0,0-1.37-.58c-1.92,3.48-1.68,7.55,2,9.88a7,7,0,0,0,9.82-2.84c2.08-4.08-1.57-8.82-5.31-10.34-3.28-1.33-7.94.92-6.18,4.86.14.31.56.12.58-.16Z"/><path class="cls-2" d="M454.61,509.44a71.51,71.51,0,0,1-51.25-23.71c-1.25-1.41-3.34.11-3,1.73a179.56,179.56,0,0,1,3.13,19l3.36-.45c-1.57-7.84-3.8-15.55-6.11-23.2l-.91,1.61c5.21-.82,10.39-1.69,15.55-2.76,1-.2.79-1.89-.24-1.79-5.36.52-10.68,1.24-16,2a1.33,1.33,0,0,0-.91,1.62c2.24,7.7,3.82,15.53,5.33,23.41.36,1.87,3.55,1.47,3.36-.46a186.53,186.53,0,0,0-3.11-19.94l-3,1.73a68.91,68.91,0,0,0,53.77,23.41,1.11,1.11,0,0,0,0-2.22Z"/><path class="cls-2" d="M45,556A52.2,52.2,0,0,1,55.35,540.2a41.06,41.06,0,0,1,7-5.93c1.18-.79,2.43-1.47,3.65-2.21,1.42-.86,2.64-2,4.07-2.84a.67.67,0,0,0-.51-1.22,23.45,23.45,0,0,0-9.4,3.94,45.09,45.09,0,0,0-7.25,6.34,36.32,36.32,0,0,0-8.86,17.48.47.47,0,0,0,.9.25Z"/><path class="cls-2" d="M88,518.74c4.37-1,8.59-3.36,12.77-5a126.42,126.42,0,0,1,12.73-4.21,124.25,124.25,0,0,1,13.11-2.81c4.37-.7,8.64-.8,12.7-2.7.5-.23.31-.94-.14-1.09-4.36-1.41-8.68-.56-13.11.19a122.63,122.63,0,0,0-13.9,3.18,124.73,124.73,0,0,0-13.06,4.59c-4,1.67-8.62,3.59-11.85,6.57a.77.77,0,0,0,.75,1.28Z"/><path class="cls-2" d="M160.46,505.81c5.36,2.83,11.11,4.84,16.49,7.67,2.72,1.43,5.38,3,8,4.65,2.42,1.56,4.75,3.24,7.51,4.12a.87.87,0,0,0,1-1.27c-3.2-5.06-9.92-8.06-15.18-10.47-5.6-2.56-11.5-4.79-17.7-4.89a.1.1,0,0,0,0,.19Z"/><path class="cls-2" d="M207.12,530.77c2.12,1.06,3.87,2.53,6.12,3.41,2.56,1,5.15,2,7.73,2.92l7.27,2.75c2.19.83,4.2,1.71,6.57,1.37.63-.1.7-.93.35-1.33-1.51-1.66-3.55-2.23-5.62-2.93l-7.35-2.48c-2.45-.83-4.89-1.68-7.34-2.49a34.4,34.4,0,0,0-3.73-1c-1.29-.27-2.6-.15-3.89-.44-.16,0-.27.19-.11.27Z"/><path class="cls-2" d="M263.34,548.55a34.29,34.29,0,0,0,7.62,2.11c2.58.38,5.2.78,7.8,1,4.9.32,10.42.66,14.79-1.81a.55.55,0,0,0-.13-1c-4.67-1.4-9.81-.52-14.66-.45-2.5,0-5,.11-7.49,0-2.69-.14-5.23-.1-7.9,0a.12.12,0,0,0,0,.24Z"/><path class="cls-2" d="M388.83,540.52a60.12,60.12,0,0,0,12.42-.83l6.48-1.08c1.92-.32,4.08-.46,5.67-1.64a1.18,1.18,0,0,0-.28-2.12c-1.75-.51-3.6,0-5.37.3-2.3.43-4.6.91-6.89,1.36a59,59,0,0,0-12.13,3.64c-.19.08-.08.36.1.37Z"/><path class="cls-2" d="M433.09,531c5.31-.46,10.5-1.37,15.76-2.29l8.06-1.4c2.54-.44,5.45-.53,7.66-1.95.65-.42.66-1.66-.23-1.81-2.3-.38-4.5.39-6.73.92l-8.37,2c-5.46,1.32-10.85,2.59-16.17,4.37-.08,0-.07.15,0,.14Z"/><path class="cls-2" d="M929.75,162.87c2.41,6.16,6.66,11.75,9.94,17.49,1.69,3,3.38,5.94,5,8.93,1.45,2.62,2.59,6.06,5,7.9a1,1,0,0,0,1.56-.89c-.19-2.89-2.4-5.64-3.81-8.09q-2.67-4.65-5.51-9.19c-3.49-5.55-6.85-11.94-11.61-16.51-.24-.24-.76,0-.62.36Z"/><path class="cls-2" d="M934.18,183.89c5.3-.53,10.2-4.45,13.43-8.49s6.63-9.88,6.33-15.23a1.26,1.26,0,0,0-2.47-.34c-.94,2.4-1.42,4.94-2.49,7.31a29.62,29.62,0,0,1-4.06,6.57c-3.19,3.88-7.13,6.49-11,9.64a.32.32,0,0,0,.22.54Z"/><path class="cls-2" d="M945.42,150.74c-.19,2.52,1.23,5.18,2.23,7.45a72.82,72.82,0,0,0,4.53,8.38,81.5,81.5,0,0,0,5,7.34c1.63,2.12,3.19,4.78,5.85,5.62a1,1,0,0,0,1.19-1.19c-.55-2.53-2.76-4.31-4.33-6.27-1.89-2.38-3.69-4.84-5.37-7.37-1.53-2.31-2.9-4.7-4.26-7.11s-2.42-5.29-4.42-7a.27.27,0,0,0-.46.19Z"/><path class="cls-2" d="M972.16,165.08c5.58-3.89,9.12-10.18,11.18-16.53.3-.91-.61-1.55-1.41-1.41-8,1.31-13.77,10.4-8.31,17.47a8.7,8.7,0,0,0,9.86,3.11c3.62-1.3,6-5,5-8.76-.18-.67-1.36-.78-1.47,0-.86,6-8.53,8.36-11.76,2.79-3.32-5.73,1.58-11.39,7.27-12.39l-1.42-1.42c-2,6.3-5.51,11.48-9.33,16.76-.16.22.16.53.37.38Z"/><path class="cls-2" d="M980.94,129.46c.88,5.1,3.92,10,6.82,14.16q2.09,3,4.43,5.84c1.56,1.88,3.07,4.2,5.59,4.69a.57.57,0,0,0,.7-.69c-.46-2.28-2.3-3.67-3.78-5.34a74.92,74.92,0,0,1-5.16-6.49c-2.86-4-5.11-8.56-8.19-12.41-.17-.22-.45,0-.41.24Z"/><path class="cls-2" d="M988.35,120.88a38.82,38.82,0,0,0,6.44,16.49,48.51,48.51,0,0,0,5.83,7.27c1,1,4,4.91,5.82,3.53,1.37-1-.68-2.86-1.43-3.52a57.16,57.16,0,0,1-6.42-6.78c-4.14-5.11-7.22-11.12-9.92-17.07-.07-.15-.35-.08-.32.08Z"/><path class="cls-2" d="M1007.3,136.4c0,4.48,4.35,7.77,8.71,7.33s7.21-5,6.71-9.26c-.6-5.11-5.87-8.44-10.78-7.74-5.36.76-9.08,6.76-5.45,11.3.57.71,1.55-.08,1.4-.82a6,6,0,0,1,6-7.24c3.43,0,6.78,1.94,6.8,5.65,0,3-2.1,6.15-5.35,6.22a7.44,7.44,0,0,1-7-5.57.5.5,0,0,0-1,.13Z"/><path class="cls-2" d="M1009.48,93.7c2.12,5.43,5.47,10.4,8.57,15.32a165.59,165.59,0,0,0,10.14,14.39c.39.49,1.06-.13.82-.63a164.74,164.74,0,0,0-8.76-15.61c-3-4.8-6-9.85-9.87-14-.35-.38-1.11,0-.9.53Z"/><path class="cls-2" d="M1037.93,134.44l-1.11-.15a2,2,0,0,0-1.43.59,2,2,0,0,0,0,2.87,2,2,0,0,0,1.43.59l1.11-.15a1.36,1.36,0,0,0,.72-.16,1.39,1.39,0,0,0,.6-.39,1.84,1.84,0,0,0,.55-1.33,1.88,1.88,0,0,0-.55-1.32l-.38-.3a1.81,1.81,0,0,0-.94-.25Z"/><path class="cls-2" d="M153.78,333.13a75.26,75.26,0,0,1-10.35-14.37c-1.47-2.5-2.68-5.11-3.92-7.72s-2.77-5-3.93-7.52a.4.4,0,0,0-.74.2c.31,3,.43,5.73,1.5,8.66a49.14,49.14,0,0,0,4,8.18c3.21,5.45,7.41,9.74,12.15,13.86a.91.91,0,0,0,1.29-1.29Z"/><path class="cls-2" d="M130.54,277.4A66,66,0,0,0,132.75,266c.46-3.37,1.3-7,.38-10.35a.65.65,0,0,0-1.17-.16c-1.59,3.07-1.53,6.78-1.77,10.16a65.34,65.34,0,0,0-.19,11.7.28.28,0,0,0,.54.07Z"/><path class="cls-2" d="M131,230.58a32.16,32.16,0,0,0-2.32-7.09c-1-2.24-2-4.73-3.79-6.41a1,1,0,0,0-1.64.68c-.22,4.75,3.75,10.34,7.38,13.1.19.15.4-.09.37-.28Z"/><path class="cls-2" d="M217.24,401.19a65.09,65.09,0,0,0,12.54,10.51q3.5,2.21,7.19,4.08c1.16.59,2.33,1.19,3.54,1.68,1.37.57,2.2.27,3.65.31a.45.45,0,0,0,.31-.76,12.43,12.43,0,0,0-2.6-2.26c-1.22-.63-2.54-1.1-3.79-1.69q-3.56-1.69-6.94-3.7a143.2,143.2,0,0,1-13.36-8.87c-.42-.31-.87.35-.54.7Z"/><path class="cls-2" d="M262.11,418.88c4.39,1,9.25.09,13.68-.27,4.24-.34,9.27-.49,12.85-3.05a.32.32,0,0,0-.07-.58c-4.13-1.57-9-.43-13.23.32-4.37.78-9.3,1.13-13.28,3.22a.2.2,0,0,0,.05.36Z"/><path class="cls-2" d="M310.16,413.05a32.27,32.27,0,0,1,10.55-.8,30.33,30.33,0,0,1,5.42,1,14,14,0,0,0,4.25.9.75.75,0,0,0,.53-1.26c-2.21-2.49-7.08-2.72-10.2-2.72A24.49,24.49,0,0,0,310,412.78c-.15.07,0,.32.12.27Z"/><path class="cls-2" d="M410.06,425.66A66.5,66.5,0,0,1,412,411.84c1.21-4.31,3.56-8.11,4.79-12.39a.4.4,0,0,0-.66-.38c-3.74,3-5.44,8-6.49,12.54a30.86,30.86,0,0,0-.25,14.14.35.35,0,0,0,.68-.09Z"/><path class="cls-2" d="M425,385.51a29.32,29.32,0,0,0,9.08-8.13c2.18-2.83,5.35-6.71,4.45-10.47a.6.6,0,0,0-.87-.35c-2.83,1.92-3.88,5.85-5.72,8.67a74.33,74.33,0,0,1-7.68,9.31.62.62,0,0,0,.74,1Z"/><path class="cls-2" d="M454.28,297.6c4.7-7.15,3.51-18.45-3.08-24-.26-.23-.82,0-.66.38a55.16,55.16,0,0,1,3.59,10.94,41.53,41.53,0,0,1-.17,12.59.18.18,0,0,0,.32.13Z"/><path class="cls-2" d="M440.74,261.33a41,41,0,0,0-5.71-6.5,48.59,48.59,0,0,0-6.54-4.45c-4.71-2.72-9.46-4.39-14.93-3.58-.57.08-.59.91-.15,1.17,4.41,2.6,9.17,4,13.81,6.16a65.18,65.18,0,0,1,6.57,3.58,68.47,68.47,0,0,1,6.62,4.05c.26.2.5-.21.33-.43Z"/><path class="cls-2" d="M389.08,239c-.67-1-.93-2.1-1.65-3.05A19.83,19.83,0,0,0,385,233.3c-1.82-1.64-3.8-3.12-5.76-4.57s-3.95-2.87-6-4.13c-1.67-1-4.06-2.39-6-1.63a.67.67,0,0,0-.45.79c.36,1.81,2.23,3,3.68,4,2,1.33,4.13,2.56,6.14,3.93s3.91,2.82,5.83,4.29a32.34,32.34,0,0,0,2.82,2c1.1.66,2.41.88,3.48,1.53.26.16.63-.17.44-.44Z"/><path class="cls-2" d="M356.66,208.08c-.38-3.51.17-8.14-2.11-11.11-.34-.44-1.17-.49-1.31.17-.8,3.74,1.68,7.63,2.88,11,.1.27.57.25.54-.07Z"/><path class="cls-2" d="M488.31,52.63c-1.78-6.36-4.13-12.24-2.92-19,.24-1.31.5-3.51,1.41-4.55,1.57-1.8,4-.28,5.37.87a17,17,0,0,1,4.95,7.42c2.13,5.87,2.27,12.36,2.55,18.53.34,7.67.5,15.34.93,23a.52.52,0,0,0,1,0,149.12,149.12,0,0,0,.51-29.12c-.45-6.85-1.38-14.4-5.82-19.93-1.94-2.42-4.84-4.91-8.13-4.84-3.65.08-4.95,3.59-5.63,6.6-1.59,7-.87,16.5,5,21.38a.42.42,0,0,0,.7-.4Z"/><path class="cls-2" d="M484.4,51.58c.48-3-1.84-5.85-3.63-8.08a14.71,14.71,0,0,0-7.37-5.29c-3-.82-6.38-.29-7.18,3.17A21,21,0,0,0,467.07,52c5.19,16.17,22.4,23.41,37.64,26.64.46.1.83-.6.35-.81-11.89-5.26-25.63-9.26-32.78-21A24.62,24.62,0,0,1,468.93,48a19.94,19.94,0,0,1-.18-4.88c.09-1,.09-2.12,1.24-2.53a5.28,5.28,0,0,1,2.7.17c2.74.7,4.88,2.78,6.56,5s2.52,4.75,4.89,5.92c.09,0,.24,0,.26-.1Z"/><path class="cls-2" d="M556.83,381.74c1.58-2.45,2.42-5.52,3.51-8.23q1.89-4.71,3.69-9.45c2.35-6.15,4.67-12.31,6.77-18.55l-1.73.22c10.48,16.61,18.72,34.92,31,50.35.45.58,1.27-.16,1-.75-4.45-8.75-10-16.9-15.23-25.23s-10.59-16.64-15.09-25.33a1,1,0,0,0-1.64,0c-2.53,5.85-4.86,11.77-7.15,17.71-1.16,3-2.31,6-3.41,9s-2.78,6.33-3.3,9.55a.89.89,0,0,0,1.62.68Z"/><path class="cls-2" d="M618.84,317.21c4.42,7,10,13.27,15.59,19.34,2.83,3.07,5.71,6.07,8.74,8.94s5.93,5.83,9.4,7.92c.64.38,1.57-.43,1.09-1.08-2.32-3.15-5.34-5.85-8.06-8.64-2.91-3-5.82-6-8.67-9-5.69-6.06-10.93-12.55-16.69-18.54a.89.89,0,0,0-1.4,1.07Z"/><path class="cls-2" d="M640.16,313.36c.54,5,3,10.07,5,14.65,2,4.74,4.39,10.26,7.81,14.17a.8.8,0,0,0,1.32-.77,58.87,58.87,0,0,0-3.26-6.56c-1.21-2.38-2.37-4.78-3.52-7.19-2.26-4.72-3.72-10.06-6.38-14.56-.24-.42-1-.28-1,.26Z"/><path class="cls-2" d="M885.81,246.14A91.54,91.54,0,0,0,868.4,275c-4,10.34-7.18,22.27-6,33.46.07.64,1,.89,1.21.16,1.23-5.26,2-10.6,3.28-15.86a127.19,127.19,0,0,1,4.83-16,141.8,141.8,0,0,1,15.74-29.32,1,1,0,0,0-1.63-1.26Z"/><path class="cls-2" d="M886.85,272a42.12,42.12,0,0,0-12.41,14.41,46,46,0,0,0-3.64,9c-.82,2.93-1.76,6.42-1.64,9.48a.77.77,0,0,0,1.51.21c1-2.82,1.47-5.81,2.5-8.64a73.43,73.43,0,0,1,3.75-8.64,85.59,85.59,0,0,1,10.26-15.44c.18-.21-.06-.62-.33-.42Z"/><path class="cls-2" d="M626.46,453.13a6.2,6.2,0,0,0-1.6-2.73l-1.25-1a6.26,6.26,0,0,0-3.13-.85,4.69,4.69,0,0,0-2.39.54,4.56,4.56,0,0,0-2,1.28,4.64,4.64,0,0,0-1.29,2,4.79,4.79,0,0,0-.53,2.39c.07.55.15,1.1.22,1.65a6.29,6.29,0,0,0,1.6,2.74l1.25,1a6.15,6.15,0,0,0,3.13.84,6.39,6.39,0,0,0,6.2-6.2C626.6,454.23,626.53,453.68,626.46,453.13Z"/><path class="cls-2" d="M633,421.72a3.79,3.79,0,0,0-5.36,0,4.27,4.27,0,0,0-1.11,2.68,3.87,3.87,0,0,0,1.11,2.68,4,4,0,0,0,2.68,1.11,3.91,3.91,0,0,0,2.68-1.11,4.13,4.13,0,0,0,1.11-2.68A3.78,3.78,0,0,0,633,421.72Z"/><path class="cls-2" d="M589.2,318.88a5.65,5.65,0,0,0-1.47-2.52l-1.16-.9a5.62,5.62,0,0,0-2.89-.78,4.28,4.28,0,0,0-2.2.49,5.22,5.22,0,0,0-3,3,4.28,4.28,0,0,0-.49,2.2c.07.51.14,1,.2,1.52a5.79,5.79,0,0,0,1.48,2.53l1.15.89a5.78,5.78,0,0,0,2.89.79,4.3,4.3,0,0,0,2.21-.5,5.12,5.12,0,0,0,3-3,4.3,4.3,0,0,0,.5-2.21Z"/><path class="cls-2" d="M603.55,299.17a3.8,3.8,0,0,0-3.87,0l-.86.41a3.3,3.3,0,0,0-1.66,2.89,3.3,3.3,0,0,0,1.66,2.9l.86.41a3.83,3.83,0,0,0,3.87-6.61Z"/><path class="cls-2" d="M579.78,294.32a3.71,3.71,0,0,0-.95-1.62l-.44-.48-.88-.68-1-.44a3.39,3.39,0,0,0-1.73-.08,2.32,2.32,0,0,0-1.1.3,4.31,4.31,0,0,0-1.74,1.34,2.12,2.12,0,0,0-.56,1,3.25,3.25,0,0,0-.38,1.68c0,.39.11.77.16,1.16l.44,1,.68.88.88.68,1,.44a3.4,3.4,0,0,0,1.73.08,2.32,2.32,0,0,0,1.1-.3,3.32,3.32,0,0,0,1.4-.9l.44-.48a3.79,3.79,0,0,0,1.08-2.6C579.86,295,579.82,294.65,579.78,294.32Z"/><path class="cls-2" d="M928.57,254.07A7.32,7.32,0,0,0,924,254a6.62,6.62,0,0,0-4.26,3.8,6.28,6.28,0,0,0,.33,5.85A8.45,8.45,0,0,0,925,267.2a6.81,6.81,0,0,0,3.62-13.13Z"/><path class="cls-2" d="M901.54,223.69a4.92,4.92,0,0,0-8.39,3.47,5,5,0,0,0,1.44,3.48,5.13,5.13,0,0,0,3.48,1.44,5.06,5.06,0,0,0,3.47-1.44,4.91,4.91,0,0,0,0-6.95Z"/><path class="cls-2" d="M930.45,233.37c-.16-.24-.31-.49-.46-.74a3.74,3.74,0,0,0-6.46,0l-.46.74a4.28,4.28,0,0,0,7.38,4.32A4.33,4.33,0,0,0,930.45,233.37Z"/><path class="cls-2" d="M797.69,125.52a4.78,4.78,0,0,0-1.23-1,2.6,2.6,0,0,0-2.39-1.62,2.71,2.71,0,0,0-2.39,1.62,4.78,4.78,0,0,0-1.23,1,5.19,5.19,0,0,0-1.06,5.59,5.09,5.09,0,0,0,4.68,3.15,5.35,5.35,0,0,0,4.42-2.53A5.26,5.26,0,0,0,797.69,125.52Z"/><path class="cls-2" d="M824,106.94a4.45,4.45,0,0,0-3,1.25,4.27,4.27,0,0,0,3,7.29,4.27,4.27,0,0,0,4.28-4.27A4.36,4.36,0,0,0,824,106.94Z"/><path class="cls-2" d="M799.25,97.66a4.09,4.09,0,0,0-2.79-1.16,4,4,0,0,0-2.79,1.16,4.37,4.37,0,0,0-1.16,2.79,4,4,0,0,0,1.16,2.8,4,4,0,0,0,5.58,0,2.94,2.94,0,0,0,.82-1.27,3,3,0,0,0,.34-1.53A4,4,0,0,0,799.25,97.66Z"/><path class="cls-2" d="M450.14,457.68a3.62,3.62,0,0,0-1-1.54,4.84,4.84,0,0,0-3.4-1.41l-1.28.17a4.81,4.81,0,0,0-2.12,1.24l-.06.07a3.72,3.72,0,0,0-1,1.54,3.67,3.67,0,0,0-.41,1.85,3.63,3.63,0,0,0,.41,1.84,3.75,3.75,0,0,0,1,1.55,4.87,4.87,0,0,0,3.39,1.4l1.28-.17a4.85,4.85,0,0,0,2.11-1.23l.08-.06a3.65,3.65,0,0,0,1-1.55,4.38,4.38,0,0,0,0-3.7Z"/><path class="cls-2" d="M441.05,424.05a5.78,5.78,0,0,0-1.49-2.56l-1.17-.91a5.93,5.93,0,0,0-2.93-.79,4.42,4.42,0,0,0-2.24.5,5.21,5.21,0,0,0-3.07,3.07,4.42,4.42,0,0,0-.5,2.24l.21,1.54a5.82,5.82,0,0,0,1.49,2.56l1.18.91a5.77,5.77,0,0,0,2.93.79,4.38,4.38,0,0,0,2.23-.5,5.21,5.21,0,0,0,3.07-3.07,4.38,4.38,0,0,0,.5-2.23Z"/><path class="cls-2" d="M426.36,445.44l-.48-.82a2.75,2.75,0,0,0-4.75,0l-.48.82a3.31,3.31,0,1,0,5.71,3.34A3.37,3.37,0,0,0,426.36,445.44Z"/><path class="cls-2" d="M362.27,350.24a4.74,4.74,0,0,0-1.21-2.06,4.85,4.85,0,0,0-3.3-1.37,4.53,4.53,0,0,0-4.28,2.87,3.6,3.6,0,0,0-.4,1.8c.06.42.11.83.17,1.25a4.62,4.62,0,0,0,1.2,2.06,4.87,4.87,0,0,0,3.31,1.37,3.6,3.6,0,0,0,1.8-.4,3.54,3.54,0,0,0,1.5-1,5.19,5.19,0,0,0,1.37-3.31Z"/><path class="cls-2" d="M337.28,357.39a4.64,4.64,0,0,0-2.21-2.87l0,0-.12-.1a5,5,0,0,0-1.72-.89,6.12,6.12,0,0,0-1.41-.18,4.94,4.94,0,0,0-2.88,1,4.52,4.52,0,0,0-1.7,2.47,5.1,5.1,0,0,0,2.31,5.72,5.39,5.39,0,0,0,1.86.75,3.65,3.65,0,0,0,1.91.08,3.57,3.57,0,0,0,1.78-.57,5,5,0,0,0,2-2.29A4.65,4.65,0,0,0,337.28,357.39Z"/><path class="cls-2" d="M339.86,339.2a3,3,0,0,0-1.8-1.39l-.95-.23a3.28,3.28,0,0,0-3.18.84,3.27,3.27,0,0,0,0,4.61,3.33,3.33,0,0,0,3.18.84l.95-.23.72-.3a2.36,2.36,0,0,0,.85-.78,3,3,0,0,0,.65-1.84A3.68,3.68,0,0,0,339.86,339.2Z"/><path class="cls-2" d="M666.06,57.25c-2.88-5.76-8.88-7.61-14.93-7.82a93.28,93.28,0,0,0-22.35,2.21C613.81,54.82,599.64,61,586.1,68s-26.63,14.54-39.4,22.64c-12.11,7.67-23.78,16.13-34.13,26.08a131.31,131.31,0,0,0-14.15,15.93c-3.65,4.87-7.19,11.07-6.78,17.39.92,14.21,21.54,14.71,31.77,12.81a38.78,38.78,0,0,0,10.28-3.44.45.45,0,0,0-.35-.81,52,52,0,0,1-21.71,2.79c-6.18-.63-15.16-2.11-17.31-9-1.94-6.21,1.95-13.12,5.47-18a122.69,122.69,0,0,1,13.06-15.1c19.18-19.06,43.36-32.77,66.91-45.65,12.66-6.92,25.72-13.33,39.57-17.52a108.73,108.73,0,0,1,21.57-4.36c6.35-.58,15.24-1.74,20.47,2.71,4.55,3.88,5.1,10.81,3.28,16.15-2.26,6.65-7.58,11.81-12.44,16.65a287.09,287.09,0,0,1-30.57,26.46c-24.22,18.13-51,31.86-79.26,42.54-1.19.45-.72,2.34.53,1.94,27.66-8.72,53.77-22.87,77.12-40a290.57,290.57,0,0,0,33.1-28.29C661.46,81.66,672.36,69.89,666.06,57.25Z"/><path class="cls-7" d="M907.14,35.18,926,42.77a1.62,1.62,0,0,0,2-2.38l-10.27-16a1.63,1.63,0,0,1,.19-2l10.52-11a1.63,1.63,0,0,0-1.63-2.68l-15,4.3a1.63,1.63,0,0,1-1.82-.68L902.58.75a1.62,1.62,0,0,0-3,.55l-3.07,15.11a1.64,1.64,0,0,1-1.14,1.24l-14.07,4a1.63,1.63,0,0,0-.16,3.07l11.4,4.58a1.62,1.62,0,0,1,1,1.83L890.35,47a1.62,1.62,0,0,0,2.77,1.44l12.24-12.87A1.64,1.64,0,0,1,907.14,35.18Z"/><path class="cls-2" d="M281.69,512.16l12.73.58a1,1,0,0,0,.67-1.81l-9.38-7.35a1,1,0,0,1-.3-1.21l3.92-8.71a1,1,0,0,0-1.51-1.25l-8,5.66a1,1,0,0,1-1.21,0l-6.75-5.28a1,1,0,0,0-1.64.94l1.32,9.56a1,1,0,0,1-.42,1l-7.48,5.29a1,1,0,0,0,.54,1.85l7.68.35a1,1,0,0,1,1,.87l1.38,10a1,1,0,0,0,1.94.28l4.57-10.14A1,1,0,0,1,281.69,512.16Z"/><path class="cls-7" d="M117.26,203.74,129,208.8a1,1,0,0,0,1.27-1.46l-6.16-10.2a1,1,0,0,1,.15-1.24l6.77-6.74a1,1,0,0,0-1-1.71l-9.47,2.45a1,1,0,0,1-1.13-.46L115,182.11a1,1,0,0,0-1.86.29l-2.17,9.41a1,1,0,0,1-.74.75l-8.87,2.3a1,1,0,0,0-.15,1.91l7.06,3.06a1,1,0,0,1,.58,1.16l-2.27,9.86a1,1,0,0,0,1.71,1l7.87-7.85A1,1,0,0,1,117.26,203.74Z"/><path class="cls-8" d="M383.8,663.47l16.65-7.2a1.45,1.45,0,0,0-.27-2.74L383.59,650a1.45,1.45,0,0,1-1.15-1.37L382,635a1.44,1.44,0,0,0-2.71-.66l-6.69,12.23a1.46,1.46,0,0,1-1.58.72l-11.93-2.55a1.45,1.45,0,0,0-1.5,2.22l7.65,11.42a1.45,1.45,0,0,1,.07,1.5l-6.27,11.44a1.45,1.45,0,0,0,1.85,2L371,669a1.45,1.45,0,0,1,1.78.52l8,12a1.45,1.45,0,0,0,2.65-.85l-.48-15.83A1.45,1.45,0,0,1,383.8,663.47Z"/><path class="cls-2" d="M494.76,261.36l11.7,5.07a1,1,0,0,0,1.27-1.46l-6.16-10.2a1,1,0,0,1,.15-1.25l6.77-6.74a1,1,0,0,0-1-1.7L498,247.52a1,1,0,0,1-1.12-.45l-4.43-7.34a1,1,0,0,0-1.86.3l-2.17,9.4a1,1,0,0,1-.74.76l-8.87,2.29a1,1,0,0,0-.15,1.92l7.05,3a1,1,0,0,1,.59,1.17l-2.27,9.86a1,1,0,0,0,1.71.95l7.87-7.86A1,1,0,0,1,494.76,261.36Z"/><path class="cls-2" d="M348.84,663.23a164.94,164.94,0,0,1-12.23-24.84l-.77,1c3.34-.25,6.7-.41,10.05-.45s6.75.27,10.07-.08c.68-.07,1-1.16.18-1.31-6.48-1.22-13.78-.33-20.3.23a.82.82,0,0,0-.7,1.21,246.07,246.07,0,0,0,13,24.63.41.41,0,0,0,.71-.41Z"/><path class="cls-2" d="M345.22,671.28c-1.87,2.61-3.07,5.84-4.48,8.72s-2.81,5.92-4.21,8.89c-.77,1.63-2.62,4.16-2.11,6.1s2.6,1.88,4.17,1.8c10.36-.53,20.29-7.42,26.94-15,.54-.62-.17-1.72-.93-1.21-7.27,4.91-13.64,11.34-22.46,13.42a23.63,23.63,0,0,1-3.55.56c-.73.06-1.08.21-1.58-.39s0-1.3.32-2.1c1-2.3,2-4.58,3.05-6.86,1.93-4.36,4.52-8.94,5.65-13.58a.45.45,0,0,0-.81-.34Z"/><path class="cls-2" d="M368.84,631.2c3.69-7,7.5-14,11.59-20.75h-2a79.1,79.1,0,0,1,4.57,8.19c1.33,2.77,2.25,5.89,4,8.45.38.58,1.5.43,1.43-.39-.26-3-1.66-5.83-2.95-8.51a80.27,80.27,0,0,0-5-8.89,1.16,1.16,0,0,0-2,0c-4,6.85-7.75,13.83-11.11,21-.47,1,1,1.89,1.5.88Z"/><path class="cls-8" d="M378,394.35a5.66,5.66,0,0,0-.86-2.94c0-.33,0-.66,0-1a.63.63,0,0,0-1.11-.32,14.26,14.26,0,0,0-1.77,3.23c-.44-.17-.76.43-.53.79a3,3,0,0,0,.21.33.48.48,0,0,0,.37.47,2,2,0,0,0,1.89.85,1.69,1.69,0,0,0,.6.13.83.83,0,0,0,.8-.43.64.64,0,0,0,.28-.38c0-.11,0-.23,0-.34A1.85,1.85,0,0,0,378,394.35Z"/><path class="cls-8" d="M371.48,423.73a122,122,0,0,1,2.74-21.62.81.81,0,0,0-.47-.86,5.94,5.94,0,0,0-1.65-.45,2.28,2.28,0,0,1-1-.49l0,0a.86.86,0,0,0-1.63.17c-.17,1.69-.31,3.37-.4,5.06a.92.92,0,0,0,.13.52c-.08.84-.15,1.68-.22,2.51a40.11,40.11,0,0,0-2,11.68,6.61,6.61,0,0,0-.06,1.47c0,.57,0,1.13-.05,1.7a1.07,1.07,0,0,0,1.63.91,2.72,2.72,0,0,0,2.38.17A.92.92,0,0,0,371.48,423.73Z"/><path class="cls-7" d="M355.33,393.69a5.7,5.7,0,0,1-.34-.57c-.11-.28-.25-.57-.37-.85a.94.94,0,0,0-1.05-.61.74.74,0,0,0-.21,0c-.26-.86-.49-1.71-.68-2.58a.8.8,0,0,0-1.58,0c-.11.67-.21,1.34-.31,2a.71.71,0,0,0-.26.47c0,.32-.08.64-.11,1-.1.87-.23,1.75-.36,2.62-.24.65.41,1.13,1,1.06a.94.94,0,0,0,.53.22c.54,0,1.08.06,1.62.07a1.35,1.35,0,0,0,.87-.26,1,1,0,0,0,1.13-1.22A1,1,0,0,0,355.33,393.69Z"/><path class="cls-7" d="M359,420.75a22.13,22.13,0,0,1-1-4.35c-.27-1.41-.53-2.84-.75-4.26s-.45-3-.64-4.51a17.26,17.26,0,0,0-.56-3.94c-.77-2-3.91-2.35-5.29-.75a2.21,2.21,0,0,0,0,2.59c.11.91.3,1.81.45,2.72.37,2.12.76,4.25,1.05,6.38.24,1.83.2,3.89.85,5.63a3.42,3.42,0,0,0,1.61,1.91,3.46,3.46,0,0,0,1.19.33c.39,0,1-.18,1.33,0A1.35,1.35,0,0,0,359,420.75Zm-4.49-10.68.1-.1c.08.48.15,1,.22,1.44v0C354.69,411,354.58,410.51,354.47,410.07Z"/><path class="cls-2" d="M351.52,421c-.59,8.94-.44,17.89-1.24,26.82-.62,7-3,17,5,20.76,3.7,1.71,8.05,2.36,12,3.1a124.21,124.21,0,0,0,12.74,1.75c2,.15,3.95,0,5.35-1.58,1.25-1.4,1.72-3.34,2.23-5.1a102.81,102.81,0,0,0,2.67-12.15q1.13-7.05,1.67-14.17c.18-2.31.34-4.62.44-6.93a37.66,37.66,0,0,0,0-7.2,1,1,0,0,0-1.91-.08,32.36,32.36,0,0,0-.63,5.65q-.19,2.92-.41,5.84c-.28,3.89-.64,7.78-1.15,11.65a102.24,102.24,0,0,1-2.19,11.5c-.46,1.82-1,3.61-1.55,5.39-.45,1.37-.9,3.64-2.57,4a9.63,9.63,0,0,1-2.73-.09c-1-.09-2.06-.2-3.09-.32q-3-.36-5.94-.85a100.81,100.81,0,0,1-11.53-2.52,9.47,9.47,0,0,1-4.43-2.26,7.94,7.94,0,0,1-1.86-4.49c-.49-3.63.22-7.44.38-11.08.42-9.15.69-18.6-.84-27.67,0-.29-.49-.23-.5.05Z"/><path class="cls-2" d="M351.53,421.76a7.89,7.89,0,0,0,2,1.11c.82.3,1.66.56,2.49.82,1.67.52,3.34,1,5,1.4,3.28.8,6.6,1.47,9.94,2s6.79.9,10.19,1.15c1.75.14,3.49.23,5.24.3,1.59.07,3.55.48,5-.18,1.12-.49.66-1.93-.23-2.33a5.84,5.84,0,0,0-2.5-.24c-.8,0-1.6,0-2.4,0-1.68-.06-3.35-.15-5-.27-3.34-.23-6.66-.63-10-1s-6.72-.92-10.05-1.55l-4.73-.91c-.86-.17-1.72-.37-2.58-.52a9.48,9.48,0,0,0-2.31-.11.21.21,0,0,0-.12.39Z"/><path class="cls-2" d="M378.46,426.88c.82-3.18,1.92-6.28,2.71-9.47a91.72,91.72,0,0,0,1.88-10l-.94.66c4,1,8.23,3.3,12.31,1.71l-1.13-.94q-1.83,9.39-3.55,18.8c-.2,1.07,1.43,1.59,1.63.51,1.17-6.27,2.33-12.55,3.44-18.83a.81.81,0,0,0-1.14-.94c-1.83.72-3.88.31-5.72-.15s-3.62-1-5.41-1.54a.73.73,0,0,0-.93.66,106.23,106.23,0,0,1-2.3,10.41c-.8,2.93-2.24,6-1.75,9.08a.47.47,0,0,0,.9,0Z"/><path class="cls-2" d="M382.63,407q4.31-6,8.54-12l-1.35-.23c.57,2.44,1.1,4.89,1.54,7.36s.6,5,1.18,7.43c.23.93,1.81.86,1.75-.16A51.68,51.68,0,0,0,393,402c-.53-2.53-1.09-5.05-1.7-7.56a.76.76,0,0,0-1.36-.23c-2.79,4-5.58,8.09-8.33,12.16-.45.66.59,1.29,1.05.65Z"/><path class="cls-2" d="M385.55,400.76c-.42,1.41,1.08,2.58,2.24,3.05a4.37,4.37,0,0,0,2.23.33,1.67,1.67,0,0,0,1.52-1.23.38.38,0,0,0-.34-.49,3.78,3.78,0,0,0-1.22-.1,4.05,4.05,0,0,1-1.59,0c-1.05-.28-1.64-1.1-2.51-1.65a.22.22,0,0,0-.33.12Z"/><path class="cls-2" d="M387.32,409.88a49,49,0,0,0-1.92,6.95,42.32,42.32,0,0,0-1.22,6.8c0,.38.57.6.75.23a38.48,38.48,0,0,0,2.38-6.68,41.5,41.5,0,0,0,1.57-7c.08-.95-1.24-1.07-1.56-.27Z"/><path class="cls-2" d="M354,422c-.69-3.15-1-6.38-1.64-9.55a90.52,90.52,0,0,0-2.62-9.82l-.57.91c2.26-.42,4.55-.77,6.79-1.25a9,9,0,0,0,4.89-2.47l-1.34-.41c2.23,8.07,4,16.27,6.2,24.35.29,1.06,1.95.68,1.67-.38-2.2-8.09-4.13-16.24-6.3-24.33a.82.82,0,0,0-1.34-.41c-2.64,2.87-7.31,2.88-10.91,3.42a.77.77,0,0,0-.57.91c1,3.33,1.81,6.7,2.47,10.1.59,3.08.64,6.58,2.41,9.26A.47.47,0,0,0,354,422Z"/><path class="cls-2" d="M349.11,402.48c.86-4.9,1.68-9.8,2.49-14.71l-1.28.48c1.56,1.91,3.21,3.75,4.79,5.65s2.93,4,4.51,5.87c.65.77,1.91-.16,1.43-1a34.67,34.67,0,0,0-4.62-5.78c-1.69-1.9-3.4-3.78-5-5.73-.45-.55-1.19-.1-1.28.47-.76,4.86-1.51,9.71-2.21,14.57-.1.68,1.08.9,1.2.21Z"/><path class="cls-2" d="M349.05,395.49c.28,1.48,2.19,1.86,3.46,1.74a4.4,4.4,0,0,0,2.08-.69,1.59,1.59,0,0,0,.8-1.67.39.39,0,0,0-.46-.39,3.21,3.21,0,0,0-1.07.38,4.45,4.45,0,0,1-1.5.73c-1.1.24-2-.24-3.08-.38-.15,0-.25.14-.23.28Z"/><path class="cls-2" d="M354.79,402.39c-.48,1.17.21,3,.43,4.2.34,1.84.67,3.67,1,5.5a83.83,83.83,0,0,0,2.43,9.76c.13.4.82.42.8-.07a75.8,75.8,0,0,0-1.29-10c-.33-1.79-.7-3.57-1.08-5.34-.28-1.26-.36-3.38-1.35-4.32a.6.6,0,0,0-1,.23Z"/><path class="cls-2" d="M377,425.8a12.36,12.36,0,0,0,1-3.79c.29-1.91.5-3.82.69-5.74.47-5,.7-10,1.61-14.95a.59.59,0,0,0-.53-.75c-1.74-.14-3.48-.26-5.22-.45a7.77,7.77,0,0,1-4.44-1.55.71.71,0,0,0-1.2.45c-1.17,7.24-2.13,14.5-3.32,21.74-.15.95,1.34,1,1.49.06,1.2-7.23,2-14.52,3.22-21.74l-1.2.45c2.8,2.5,7.13,2,10.62,2.2l-.52-.75a130.93,130.93,0,0,0-2,14.75c-.19,1.86-.4,3.71-.6,5.56-.1.88-.29,1.77-.33,2.64,0,.55,0,1.09,0,1.64a.41.41,0,0,0,.75.23Z"/><path class="cls-2" d="M380.34,401.12l.09-.06a.55.55,0,0,0,.27-.6c-1-4.15-2.12-8.29-3.21-12.43a.66.66,0,0,0-1.18-.2c-1.25,1.86-2.58,3.65-3.88,5.46a30.76,30.76,0,0,0-3.47,5.44c-.37.83.92,1.35,1.39.64,1.19-1.8,2.19-3.71,3.4-5.5s2.47-3.55,3.66-5.35l-1.18-.2c1.12,4.13,2.25,8.26,3.42,12.38a.56.56,0,0,0,.5.42s.15,0,.19,0Z"/><path class="cls-2" d="M378.89,394.54a7.21,7.21,0,0,1-2.69.6,4.35,4.35,0,0,1-1.4-.55,2.78,2.78,0,0,0-.9-.18.32.32,0,0,0-.34.31,1.41,1.41,0,0,0,.81,1.44,4,4,0,0,0,2,.43c1.1,0,2.64-.56,2.75-1.85a.21.21,0,0,0-.24-.2Z"/><path class="cls-2" d="M373.91,401.12c-.76.89-.67,2.58-.8,3.68-.18,1.57-.35,3.13-.47,4.71a67.61,67.61,0,0,0-.26,9c0,.37.6.54.69.12a72.61,72.61,0,0,0,1.25-8.7c.16-1.58.29-3.16.41-4.75.09-1.1.56-2.9,0-3.92a.54.54,0,0,0-.83-.14Z"/><path class="cls-2" d="M389.91,428.49a1.45,1.45,0,0,0-2.34-.85.83.83,0,0,0-1.05.8c.24,7.24-3.26,14.18-7.35,19.94-3.79,5.34-8.94,9.13-15.55,9.92a25.57,25.57,0,0,1-10.06-1.06,1.92,1.92,0,0,0-2,1.12c-1.16,2.61.23,5.3,2.18,7.11a17.59,17.59,0,0,0,7.69,3.63,22.66,22.66,0,0,0,9.73.26,1.61,1.61,0,0,0,.7.48c3.69,1.35,8.22,2.62,11.5-.36,1.64-1.48,2.1-3.57,2.52-5.65.45-2.26.84-4.52,1.21-6.79.45-2.74.89-5.49,1.25-8.24A61.9,61.9,0,0,0,389.91,428.49Z"/><path class="cls-8" d="M189.17,359.3a7.69,7.69,0,0,0,6.56-4.47,8.76,8.76,0,0,0-.66-8.29,9.43,9.43,0,0,0-2.31-2.36,11.46,11.46,0,0,0-1.62-1.33c-2.42-1.68-5.8-2.27-8.4-.63a84.46,84.46,0,0,0-3.22,2.9.88.88,0,0,0,.25,1.2,10.15,10.15,0,0,0-.45,2.66C179.15,354.32,183.59,359.7,189.17,359.3Z"/><path class="cls-7" d="M170.92,378.36c7.16-2.8,6-13.11,1.08-17.39a13.14,13.14,0,0,0-9.44-3.11c-3.48.29-6.63,2.62-6.5,6.37a1.21,1.21,0,0,0,.16.53,7.12,7.12,0,0,0-.76,1.51,8.38,8.38,0,0,0,.7,7.17,8.2,8.2,0,0,0,2.72,2.68,4.75,4.75,0,0,0,1.68.65A5.42,5.42,0,0,0,162,378C164.4,379.48,168.36,379.36,170.92,378.36Z"/><path class="cls-9" d="M180.11,408c2.5-1,4.9-2.78,5.2-5.66a4.24,4.24,0,0,0,.17-3.1,8.87,8.87,0,0,0-1.88-3.48,9.38,9.38,0,0,0-7.12-3.06,10.42,10.42,0,0,0-7.24,3.55c-1.93,2.09-3.89,4.94-3,7.91C167.92,409.77,175.71,409.76,180.11,408Z"/><path class="cls-2" d="M143.2,364.48A45.17,45.17,0,0,1,148.53,353a39.93,39.93,0,0,1,7.88-9.45,38.37,38.37,0,0,1,23.38-9.65c2.88-.16,5.77-.12,8.65-.1a58.46,58.46,0,0,1,8.57.55,41.57,41.57,0,0,1,14.29,5.15c4.3,2.46,8.84,5.56,11.58,9.8a17.35,17.35,0,0,1,2,13.75,17.89,17.89,0,0,1-8,10.64,20.11,20.11,0,0,1-6.2,2.53c-2.31.52-4.72.39-7,1-4.21,1.13-6.16,5-6.4,9.13-.29,5,2.26,9.48,2.68,14.38.86,9.87-10.31,15.11-18.43,16.73-10.13,2-20-4.82-26.14-12.28-6.78-8.23-9-18.61-11.22-28.76-1.12-5.07-1.52-9.9.25-14.86,1.57-4.39,4.41-8.36,7.2-12,1.43-1.88,2.91-3.69,4.28-5.61.92-1.29-1-2.55-2.08-1.61-7.44,6.53-14.52,15.8-14.61,26.14a36.06,36.06,0,0,0,1.39,9c.68,2.75,1.35,5.5,2.16,8.21a70.55,70.55,0,0,0,6.35,15.72A42.64,42.64,0,0,0,159.26,413c4.15,3.31,9,6.07,14.25,7s10.73-.31,15.68-2.57c4-1.83,7.94-4.49,10.35-8.27a14.36,14.36,0,0,0,2.13-6,23.36,23.36,0,0,0-.91-8.22c-1-4.21-2.6-9.52.18-13.44,1.49-2.11,4-2.54,6.39-2.8a25.37,25.37,0,0,0,6.93-1.58,21.88,21.88,0,0,0,10.35-8.64,19.89,19.89,0,0,0,2.49-14.08c-1-5.1-4.15-9.17-8.1-12.39A50.72,50.72,0,0,0,205.21,334a48.83,48.83,0,0,0-16.77-2.86c-5.49-.12-11.1-.15-16.47,1.17a39.15,39.15,0,0,0-12.14,5.3,42.63,42.63,0,0,0-9.84,8.92,42,42,0,0,0-3.76,5.49,29.29,29.29,0,0,0-2.41,6.12,36.56,36.56,0,0,0-1.27,6.31c-.05.37.56.44.65.08Z"/><path class="cls-2" d="M184.11,343.41a7.79,7.79,0,0,1,11.1-.78,9.21,9.21,0,0,1,2.31,11.09A9.73,9.73,0,0,1,188,359a9.38,9.38,0,0,1-7.92-7,8.61,8.61,0,0,1,.84-6.11,12.89,12.89,0,0,1,1.73-2.47c.72-.82,1.61-1.46,2.33-2.29a.6.6,0,0,0-.42-1c-2.33,0-4.43,2.05-5.54,4a11.51,11.51,0,0,0-1.56,7.06,11.8,11.8,0,0,0,9,9.95A12,12,0,0,0,199,355.56a11.5,11.5,0,0,0-1.66-14,10.58,10.58,0,0,0-7.65-3.12,6.69,6.69,0,0,0-6.45,4.46c-.15.46.53.88.85.49Z"/><path class="cls-2" d="M158.47,359.05a5.77,5.77,0,0,1,1.88-2,13.24,13.24,0,0,1,2.26-1.35,6.81,6.81,0,0,1,5.15-.21c2,.79,3.68,2.54,5.13,4.11a7.61,7.61,0,0,1,2.13,6.18c-.45,4.41-3.56,8.52-8.1,9.14a9,9,0,0,1-9.42-5.36,9.27,9.27,0,0,1-.46-6.29c.64-2.3,2.18-4.17,3.63-6,.5-.65.07-2-.92-1.58-5.07,1.93-6.92,8.72-5.38,13.54a11.86,11.86,0,0,0,11.32,8.39c5.81-.1,10.1-4.41,11.45-9.88a10.34,10.34,0,0,0-1.09-8.17,18.86,18.86,0,0,0-6-5.7,9.09,9.09,0,0,0-7.65-.7,8.08,8.08,0,0,0-3.31,2.1,10,10,0,0,0-1.07,1.58,14.46,14.46,0,0,0-.61,1.75c-.23.58.76,1,1,.43Z"/><path class="cls-2" d="M167,392.38c2.39-2.48,6.09-4.21,9.56-3.5a9,9,0,0,1,6.84,7.32,6.44,6.44,0,0,1-1.62,5.68,13.43,13.43,0,0,1-5.41,3.06,8.18,8.18,0,0,1-6.25-.49c-1.66-.86-3.89-2.25-4.63-4.05s0-4.31.92-6.06c1-1.92,2.5-3.58,3.65-5.42a.39.39,0,0,0-.44-.57c-4.71,1-7.68,7.34-6.77,11.77.52,2.55,2.64,4.24,4.73,5.58a10.87,10.87,0,0,0,7.27,1.85,15.58,15.58,0,0,0,7.19-3.12,8.36,8.36,0,0,0,3.56-6.39,11.09,11.09,0,0,0-6.75-10.67,10.65,10.65,0,0,0-7.28-.15,8.44,8.44,0,0,0-5.28,4.61c-.2.44.32.94.71.55Z"/><path class="cls-9" d="M255.11,366.27c-.91-1.4-1.87-2.79-2.9-4.11l-.49-.63a5.7,5.7,0,0,0-1.49-2.54.4.4,0,0,0-.2-.11c-.93-2.17-2-4.3-3-6.39-.69-1.38-1.37-2.76-2.06-4.13a20.25,20.25,0,0,0-2.35-4,.49.49,0,0,0-.87.34,18.57,18.57,0,0,0,1.14,4c.53,1.5,1.11,3,1.66,4.48,1.06,2.88,2.37,5.66,3.36,8.56a15.91,15.91,0,0,1,.65,8,4.26,4.26,0,0,1-1.18,2.45c-.46.41-1,.66-1.25,1.23a2.63,2.63,0,0,0-.07,2A21,21,0,0,0,255,387.73c1.1.67,2.39,1.33,3.57.39s1.06-2.54,1-3.88a56.26,56.26,0,0,0-1-8.86A25.12,25.12,0,0,0,255.11,366.27Z"/><path class="cls-7" d="M229.84,309.77c-1.13-1.69-2.63-3.84-5-3.57a.47.47,0,0,0-.38.62c0,.05,0,.11.05.16a15.88,15.88,0,0,0-2-1.25c-.56-.28-.92.41-.68.85.69,1.22,1.52,2.36,2.2,3.59a9.41,9.41,0,0,1,1.1,3.8c.24,2.75-.23,5.51-.15,8.26s.7,5.48,2.54,7.47a8.56,8.56,0,0,0,4.32,2.62l.26.24a1.71,1.71,0,0,0,.38.65,1.33,1.33,0,0,0,2.09,0,1.6,1.6,0,0,0,.35-1.06,2.16,2.16,0,0,0,1.3-2.86c-.1-.22-.21-.43-.32-.64a12.11,12.11,0,0,0-1.85-5.06c-.63-1-1.26-2-1.83-3.06,0-1.49.2-3,.05-4.48A13.59,13.59,0,0,0,229.84,309.77Z"/><path class="cls-2" d="M239.65,332.3c.72-1.11,1.54-2.13,2.15-3.31a24.93,24.93,0,0,0,1.57-3.69,12.24,12.24,0,0,0,.14-7.57c-1.8-5.61-7-8.9-12.28-10.82-3.54-1.3-7.23-2.22-10.86-3.22a1.1,1.1,0,0,0-1,1.94c4.89,3.28,4,9.58,4,14.69,0,2.56.1,5.45,1.43,7.71A13.49,13.49,0,0,0,229,332a14.19,14.19,0,0,0,5.76,2.39c.36.06.59-.52.25-.7a47.61,47.61,0,0,1-4.46-3.06c-1.5-1-3.33-2.13-4.17-3.78-1.2-2.38-1.1-5.35-1.08-7.94a34.37,34.37,0,0,0-.48-7.85c-.62-2.69-1.87-5.54-4.17-7.19l-1,1.95c3.71,1.15,7.51,2.15,11.14,3.53a20.33,20.33,0,0,1,8.39,5.48,10.84,10.84,0,0,1,2.7,8.31,17.37,17.37,0,0,1-1.13,4.54c-.54,1.46-1,3-1.64,4.4-.13.32.36.56.55.27Z"/><path class="cls-2" d="M236.64,343a5.49,5.49,0,0,0,7.8.62,6.2,6.2,0,0,0,.65-8.4c-2-2.72-5.56-4.51-8.87-3.39a5.64,5.64,0,0,0-3.4,7.51c.89,2.43,4.83,7.65,7.83,5.33a.68.68,0,0,0-.05-1.07,14.2,14.2,0,0,1-3.48-2.06,8.27,8.27,0,0,1-2.36-3.39c-1-3.08,2.21-5.38,5.05-4.54s5.61,3.95,4.57,7a4.7,4.7,0,0,1-7.34,2c-.26-.21-.61.18-.4.43Z"/><path class="cls-2" d="M232.94,315.29a24,24,0,0,1,3.47,3.86,12.18,12.18,0,0,1,2.24,4.53,9.1,9.1,0,0,1,0,4.52,12.58,12.58,0,0,1-2.08,3.82.58.58,0,0,0,.72.84c3.12-1.58,3.76-6.11,3-9.19a12.64,12.64,0,0,0-2.53-4.84,14.93,14.93,0,0,0-2.07-2.06,23.52,23.52,0,0,0-2.61-1.66.11.11,0,0,0-.12.18Z"/><path class="cls-2" d="M230.66,319.87a16.15,16.15,0,0,1,3.93,6.67,17.45,17.45,0,0,1,.65,3.43c.06.61,0,1.22.06,1.82s.28,1.15.35,1.73.64.42.79.06a6.87,6.87,0,0,0,.65-1.88,10.8,10.8,0,0,0-.1-2.05,14.88,14.88,0,0,0-1-3.89,10.94,10.94,0,0,0-5.25-6.07c-.1-.05-.2.1-.12.18Z"/><path class="cls-2" d="M230,326.23c.66,2.84,2.67,6.08,5.71,6.81.27.06.63-.28.36-.53a37.18,37.18,0,0,1-3.11-2.78,15,15,0,0,1-2.42-3.67.29.29,0,0,0-.54.17Z"/><path class="cls-2" d="M239.77,344.48c.32,3.8.89,7.53,1.55,11.28s1.21,7.22,2,10.79c1.38,6.36,3.19,13.1,7.37,18.25A19.59,19.59,0,0,0,254,388a6,6,0,0,0,3.5,1.5c3.54,0,3.3-4.42,3.1-6.84-.53-6.28-2.81-12.37-5.54-18-1.72-3.56-3.71-7-5.74-10.41s-4.09-7.12-6-10.77a.72.72,0,0,0-1.31.62c2.69,6.08,6.36,11.72,9.44,17.61a67.13,67.13,0,0,1,6.48,16.4,41.51,41.51,0,0,1,.71,4.28c.15,1.38.53,3.14,0,4.47-1.15,2.85-5.59-2-6.46-3.09-3.92-4.73-5.64-11-7-16.85-1.69-7.5-2.76-15.15-4.9-22.54a.25.25,0,0,0-.5.09Z"/><path class="cls-2" d="M508.39,351.49c11.3,16.05,24.51,30.63,35.69,46.78,2,2.94,4.34,8.46,8.25,9.17,4.28.78,6.85-5.08,8.76-7.94a197.91,197.91,0,0,0,14.53-25.74l-5-.65a92.37,92.37,0,0,0,10.21,21.33,117,117,0,0,0,6.9,9.52c2.3,2.91,5.14,6.28,8.91,7.13a2.14,2.14,0,0,0,2.59-2.59c-.57-3.58-3.34-6.51-5.52-9.26-2.32-2.92-4.5-5.91-6.6-9A214.8,214.8,0,0,1,575.62,371a2.74,2.74,0,0,0-4.7,0,236,236,0,0,1-13.09,22.65c-1.24,1.89-2.51,3.77-3.82,5.61a23,23,0,0,0-1.67,2.31c1.5.44,1.89.31,1.17-.37-.26-.41-.53-.82-.8-1.22-2.43-3.67-5.07-7.2-7.72-10.7a299.34,299.34,0,0,0-34.84-39.17c-.89-.82-2.52.27-1.76,1.36Z"/><path class="cls-2" d="M512.78,374.71c1.65-4.44.48-10-.5-14.51a68.28,68.28,0,0,0-4.88-14.4l-3.65,2.81a41.74,41.74,0,0,0,11.25,6.6c4,1.63,8.34,3.24,12.71,2.51,1.36-.22,1.26-2,.35-2.68-3.16-2.22-7.06-2.61-10.68-3.76A24.52,24.52,0,0,1,507,345.33c-1.52-1.52-4.79,0-3.87,2.25a89.32,89.32,0,0,1,4.47,13.9c1,4.42,1.12,9.37,3,13.51.46,1,1.83.57,2.14-.28Z"/><path class="cls-7" d="M643.36,196.31a40.4,40.4,0,0,0-3-10.65,45.6,45.6,0,0,0-6.54-10.32,2,2,0,0,0-1.93-.74q-2.43-6-4.83-11.93c-1.68-4.19-3.45-8.37-4.86-12.65-.49-1.47-2.33-1.7-3.56-1.28-1.95.68-3.87,1.44-5.75,2.3-2.08,1-4.69,2-5,4.53-.27,2,.83,4.08,1.56,5.91.79,2,1.64,4,2.49,5.91,1.72,3.92,3.71,7.71,5.34,11.67a76.68,76.68,0,0,1,3.89,11.69c1.71,7.39,3.71,15.12,2.84,22.76a36.2,36.2,0,0,1-7.29,17.74,51.92,51.92,0,0,1-8.51,9.14,71.8,71.8,0,0,1-10.48,7.49c-1,.54-.59,2.19.61,2,1.85-.36,3.66-.85,5.47-1.34a35.07,35.07,0,0,0,5.12-2.16,22.41,22.41,0,0,0,3.12-1.76c.81-.53,1.6-1.07,2.38-1.65l.09-.07a2,2,0,0,0,1.75.27,34.29,34.29,0,0,0,8.49-3.93c2.72-1.65,5.46-3.26,8.28-4.74a132.76,132.76,0,0,1,17.39-7.58,2.51,2.51,0,0,0,1.31-1.18c1.8,1.32,5-.29,4.37-2.72a44.7,44.7,0,0,0-3.57-9.29,31,31,0,0,0-2.73-4.34c-.74-1-1.55-1.84-2.35-2.73q-1.63-4.38-3.42-8.71Z"/><path class="cls-2" d="M561.8,176.75c2-.24,4-1.34,5.9-2.11s3.9-1.55,5.76-2.49c3.8-1.91,7.65-3.73,11.51-5.54,7.77-3.65,15.48-7.43,23.2-11.19,4.36-2.12,8.7-4.25,12.93-6.62a.64.64,0,0,0-.52-1.16c-7.94,3.06-15.63,6.77-23.38,10.28s-15.5,7.4-23.35,10.87c-2.19,1-4.32,2-6.45,3.07s-4.51,2-6.18,3.61a.73.73,0,0,0,.58,1.28Z"/><path class="cls-2" d="M620.07,148.23c.2,2.72,1.56,5.22,2.67,7.68s2.24,5,3.39,7.5c2.26,4.85,4.57,9.67,6.85,14.51q7,14.81,14.21,29.5a114.58,114.58,0,0,0,8.93,15.83c.22.32.83.07.72-.33a103.81,103.81,0,0,0-5.67-15.15c-2.25-5-4.5-10-6.8-15-4.52-9.85-9.12-19.66-13.72-29.48-1.29-2.75-2.64-5.47-4-8.2-.7-1.43-1.38-2.87-2.14-4.26-.35-.64-.69-1.28-1-1.91a9.13,9.13,0,0,0-1.61-1.79c-.8-.76-1.87.24-1.81,1.1Z"/><path class="cls-2" d="M657.92,222.7c-1.88-.87-3.92.5-5.62,1.26-1.91.86-3.83,1.72-5.73,2.6L635,232q-11.51,5.37-22.91,10.95c-2.08,1-4.18,2-6.24,3.06a39.42,39.42,0,0,0-6,4,.72.72,0,0,0,.56,1.26,37.14,37.14,0,0,0,5.87-1.68c1.94-.79,3.84-1.69,5.75-2.55,3.89-1.76,7.76-3.55,11.63-5.34q11.53-5.33,23-10.76,3.14-1.48,6.26-3c1.1-.55,2.22-1.07,3.31-1.63a3.93,3.93,0,0,0,2.26-2.36,1,1,0,0,0-.52-1.19Z"/><path class="cls-2" d="M561.14,176.57c.19,2.64,1.65,5.07,2.75,7.44s2.3,5,3.46,7.45c2.24,4.84,4.55,9.65,6.83,14.47q7,14.74,14,29.49c2.65,5.54,5.5,11,8.4,16.37a.45.45,0,0,0,.82-.37c-2.06-5.08-4.12-10.15-6.42-15.12s-4.49-9.68-6.74-14.51c-4.6-9.86-9.13-19.75-13.79-29.58q-2-4.11-3.91-8.2c-1.26-2.65-2.31-5.81-4.45-7.87a.54.54,0,0,0-1,.43Z"/><path class="cls-2" d="M564.58,182.36c-.56-1.19-2.4-.87-3.35-.43a6.13,6.13,0,0,0-3,2.89,4.2,4.2,0,0,0-.06,4,5.78,5.78,0,0,0,3.82,2.29c3.47.68,6.65-1.21,9.62-2.7a5.08,5.08,0,0,0,3-3.07,6.34,6.34,0,0,0-.77-4.67c-.8-1.45-3.18-.38-2.35,1a4.08,4.08,0,0,1,.71,3c-.31,1.1-1.71,1.54-2.61,2-2.07,1.14-4.3,2.47-6.74,2.32-1-.06-2.46-.38-2.93-1.35s.28-2.19.93-2.85a7.32,7.32,0,0,1,2.57-1.54c.28-.12,1.31-.53,1.07-1Z"/><path class="cls-2" d="M569.17,195.08c-2.53.21-5.39,1.9-5.11,4.8.31,3.16,3.55,4.61,6.39,4.32a12.88,12.88,0,0,0,4.47-1.52,11.35,11.35,0,0,0,4-2.93c1.91-2.43,1.61-5.86-1.2-7.39-1.39-.76-2.38,1.61-.92,2.32,1.93.95.52,3.47-.58,4.43a13.29,13.29,0,0,1-5.58,2.81c-1.72.34-4.2-.11-4.48-2.22-.26-1.92,2-2.8,3.38-3.45a.62.62,0,0,0-.35-1.17Z"/><path class="cls-2" d="M577.25,209.29c-.56-1.19-2.41-.87-3.36-.43a6.13,6.13,0,0,0-2.95,2.89,4.18,4.18,0,0,0-.05,4,5.76,5.76,0,0,0,3.81,2.29c3.47.68,6.65-1.21,9.62-2.7a5.08,5.08,0,0,0,3-3.07,6.29,6.29,0,0,0-.77-4.67c-.8-1.45-3.17-.38-2.35,1.05a4.14,4.14,0,0,1,.72,3c-.32,1.11-1.71,1.55-2.62,2-2.07,1.14-4.29,2.47-6.74,2.32-1-.06-2.45-.38-2.93-1.35s.28-2.19.93-2.85a7.45,7.45,0,0,1,2.58-1.54c.28-.12,1.3-.53,1.07-1Z"/><path class="cls-2" d="M581.83,222c-2.52.21-5.39,1.9-5.1,4.8.31,3.16,3.54,4.62,6.39,4.33a13.25,13.25,0,0,0,4.47-1.53,11.54,11.54,0,0,0,4-2.93c1.9-2.43,1.6-5.86-1.21-7.39-1.39-.76-2.38,1.61-.92,2.32,1.94.95.52,3.47-.58,4.43a13.29,13.29,0,0,1-5.58,2.81c-1.72.34-4.2-.11-4.48-2.22-.26-1.92,2-2.8,3.38-3.45a.62.62,0,0,0-.35-1.17Z"/><path class="cls-2" d="M588.49,236.16c-2.53.21-5.39,1.91-5.11,4.8.31,3.16,3.55,4.62,6.39,4.33a13,13,0,0,0,4.47-1.53,11.32,11.32,0,0,0,4-2.93c1.9-2.42,1.6-5.86-1.2-7.39-1.4-.76-2.38,1.62-.92,2.33,1.93.94.51,3.47-.59,4.42a13,13,0,0,1-5.57,2.81c-1.73.34-4.2-.11-4.49-2.22-.25-1.92,2-2.79,3.39-3.44a.62.62,0,0,0-.35-1.18Z"/><path class="cls-2" d="M604.21,148.63a11.9,11.9,0,0,0,.44,2.23c.28.74.59,1.47.89,2.21.6,1.47,1.19,2.94,1.83,4.39l3.66,8.31c2.5,5.68,5.07,11.31,7.76,16.9,5.39,11.16,10.66,22.38,16,33.59l9.06,19.16c1.14,2.41,4.94.73,3.79-1.69q-15.72-33.27-31.5-66.5l-4.44-9.39c-1.49-3.14-3.16-6.16-4.87-9.19a1.34,1.34,0,0,0-2.45,1.1c4.38,11.43,10,22.42,15.14,33.51S629.85,205.49,635,216.6q4.4,9.41,8.78,18.82l3.79-1.69L631.85,200c-5.25-11.23-10.26-22.58-15.81-33.66l-4.65-9.29q-1.21-2.43-2.5-4.81c-.41-.76-.83-1.52-1.23-2.28a11.94,11.94,0,0,0-1.64-2.16,1,1,0,0,0-1.81.8Z"/><path class="cls-2" d="M604.05,155.45a4.2,4.2,0,0,0,0-1.12,14.66,14.66,0,0,0-.61-1.55c-.41-1-.87-2-1.3-3.06l-.53,1.39c1.21-.39,3.53-1,3.68-2.49a.47.47,0,0,0-.28-.47,1.9,1.9,0,0,0-1.83.12c-.8.35-1.62.62-2.43.92a1.06,1.06,0,0,0-.54,1.39c.47,1,.93,2,1.48,3a9.9,9.9,0,0,0,.85,1.44,4.07,4.07,0,0,0,.9.72.4.4,0,0,0,.62-.28Z"/><path class="cls-2" d="M638.47,233.49c.43,1.63,1,4.74,2.95,5.28a5.17,5.17,0,0,0,3-.52,3.36,3.36,0,0,0,2.34-2,1,1,0,0,0-1-1.27,3.57,3.57,0,0,0-1.75.58c-.34.18-1.45.86-1.85.72s-.6-1.07-.72-1.33a18.72,18.72,0,0,1-.82-2.08c-.39-1.18-2.43-.58-2.11.64Z"/><path class="cls-2" d="M625,146.93a99.93,99.93,0,0,0,4.55,11.28c1.67,3.77,3.44,7.5,5.16,11.25,3.4,7.43,7,14.81,10.55,22.15,2,4.16,4.23,8.25,6.38,12.37a.69.69,0,0,0,1.26-.57c-6.37-15.15-13.35-30-20.49-44.82a98.49,98.49,0,0,0-6.53-12.2c-.36-.54-1,0-.88.54Z"/><path class="cls-2" d="M605.15,252.54a95.74,95.74,0,0,0,15-6,161.38,161.38,0,0,0,14.72-7.63.41.41,0,0,0-.34-.75,159.19,159.19,0,0,0-15.24,6.45,97,97,0,0,0-14.24,7.74c-.08.06,0,.23.09.2Z"/><path class="cls-2" d="M607.49,166.89c6.09,15.61,13.57,30.67,21.19,45.58,2.17,4.25,4.37,8.49,6.47,12.77a.17.17,0,0,0,.31-.14c-3.44-7.64-6.62-15.39-10-23s-6.93-15.25-10.61-22.78c-2.11-4.31-4.32-8.5-6.65-12.69a.37.37,0,0,0-.68.3Z"/><path class="cls-2" d="M596.55,236.19a.12.12,0,0,0,0-.23.12.12,0,0,0,0,.23Z"/><path class="cls-2" d="M596.66,235.45c-.21,0-.39-.34-.58-.46s-.73-.27-1.06-.47a1.64,1.64,0,0,1-.52-2.22c1.26-1.81,2.78.53,3.63,1.35.19.19.63.16.63-.18a3.69,3.69,0,0,0-1.88-3.38,3.14,3.14,0,0,0-3.49.6c-2,1.94-.48,6.25,2.55,5.64a.68.68,0,0,0,.53-.44.36.36,0,0,1,.24-.27.1.1,0,0,0-.05-.17Z"/><path class="cls-2" d="M589.88,220.64c-.9-.49-2.78-.72-2.11-2.27.75-1.75,3-.82,3.41.65,0,.14.27.22.32,0a2.43,2.43,0,0,0-1.36-3,2.9,2.9,0,0,0-3.58,1.08,3,3,0,0,0,.2,3.66c.8.9,2.49,1.64,3.31.45a.43.43,0,0,0-.19-.65Z"/><path class="cls-2" d="M585.11,208.31c-1.1-.69-2.89-1.95-2.36-3.48a1.49,1.49,0,0,1,1.86-.87,3.73,3.73,0,0,1,1.67,1.62c.3.47.91,0,.89-.4-.13-2.68-3.93-4-5.56-1.66a3.34,3.34,0,0,0,0,3.51,3.82,3.82,0,0,0,3.32,1.86c.29,0,.51-.4.22-.58Z"/><path class="cls-2" d="M577.3,193.09c-.64-.3-1.45-.24-1.9-.86a1.54,1.54,0,0,1,.53-2.23c1.61-.91,2.83.69,3.66,1.85a.34.34,0,0,0,.59-.18c.47-3.13-3.84-4.56-5.91-2.54a3.35,3.35,0,0,0-.46,4.08c.73,1.2,2.42,2.07,3.69,1.18a.76.76,0,0,0-.2-1.3Z"/><path class="cls-2" d="M572.82,180.67c-.43-.94-3.21-1.94-2-3.26.55-.6,2-1.29,2.73-.83s1.21,2.27.94,3.16a.26.26,0,0,0,.48.19,3.56,3.56,0,0,0,.77-2.33,3.17,3.17,0,0,0-1.06-1.83c-1.36-1.17-3-.82-4.43,0a2.68,2.68,0,0,0-1.45,1.49,3.24,3.24,0,0,0,.39,2.29c.58,1.11,2.17,2.63,3.45,1.78a.59.59,0,0,0,.17-.69Z"/><path class="cls-2" d="M801.52,266.21c5.48-2.36,7.36-8.16,6.83-13.75-.68-7.27-5.33-12.8-8.94-18.84-4-6.76-4.94-14.29-1.86-21.64s9.42-12.58,16.54-15.75c14.55-6.47,33.69-5.32,44.66,7.21,5.35,6.11,8.59,15.17,3.25,22.27-4.78,6.37-13.15,10.23-20.66,12.16a59.78,59.78,0,0,1-14.48,1.5c-4.35,0-8.9.16-13,1.89-5,2.14-11.88,10.29-6.88,15.4a.52.52,0,0,0,.88-.36c.09-4,1-7.55,4.3-10.09,3.51-2.67,8.06-3.13,12.33-3.22,8.77-.18,16.88-.55,25.09-4,6.76-2.84,14.14-7.3,17.48-14.14,3.45-7.08,1.07-15.28-3.26-21.44-9.55-13.61-27.07-17.5-42.67-14.13-15.08,3.26-29.19,14.09-30.48,30.41C790,228.9,795.18,235.78,800,243c2.29,3.42,4.22,7,4.44,11.15.21,3.73-.83,7.88-4.23,9.88-1.43.84-.17,2.79,1.27,2.17Z"/><path class="cls-2" d="M809,211.34c2.91.13,6-.57,8.86-.8s6-.35,8.92-.32,5.63.17,8.43.43c2.51.23,5.72,1.45,8,.17a1.22,1.22,0,0,0,.24-1.89c-1.67-1.8-4.93-1.56-7.25-1.76-3.13-.28-6.27-.42-9.42-.4-3,0-5.95.16-8.92.44s-6.4.46-9.2,1.59a1.3,1.3,0,0,0,.34,2.54Z"/><path class="cls-2" d="M801.64,225.48c3,.48,6.25,0,9.3-.11,2.37-.11,6,.5,7.68-1.54a.88.88,0,0,0,0-1.22c-2-1.79-5.22-.6-7.68-.27-3,.4-6.42.49-9.3,1.5-.71.25-.9,1.49,0,1.64Z"/><path class="cls-2" d="M827.68,226.44c3.62-.12,7.23-.34,10.85-.43,3.39-.08,7,.31,10.29-.27a1.71,1.71,0,0,0,0-3.28c-3.47-.64-7.29-.13-10.8.06s-7.17.48-10.74,1c-1.68.24-1.26,3,.4,2.94Z"/><path class="cls-10" d="M727.31,703.92l-9.46,24.21-43.32,111H660.42s23.13-81.28,33.91-119.22c3.15-11.1,5.25-18.49,5.4-19L713,702.31Z"/><g class="cls-11"><polygon class="cls-10" points="727.31 703.92 717.86 728.13 674.53 839.1 670.18 839.1 712.95 702.31 727.31 703.92"/></g><g class="cls-11"><path class="cls-10" d="M699.73,700.83l27.58,3.09-9.46,24.21a189.3,189.3,0,0,1-23.52-8.25C697.48,708.78,699.58,701.39,699.73,700.83Z"/></g><path class="cls-10" d="M813.81,839.1H800.14L786.48,737.74l-5.31-39.45,1.59.22,25.9,3.55c0,.83.56,15.54,1.29,35C811.48,777.71,813.81,839.1,813.81,839.1Z"/><g class="cls-11"><polygon class="cls-10" points="804.85 839.1 800.13 839.1 786.48 737.74 781.17 698.29 782.76 698.51 794.11 718.23 794.3 720.37 804.85 839.1"/></g><g class="cls-11"><path class="cls-10" d="M808.66,702.06c0,.83.56,15.54,1.29,35-8.16.54-16,.73-23.47.64l-5.31-39.45Z"/></g><path class="cls-10" d="M926.9,839.1H912.8L869.22,727.48,860,703.92l12.26-1.38,15.32-1.71c.15.57,2.31,8.19,5.55,19.59C904,758.59,926.9,839.1,926.9,839.1Z"/><g class="cls-11"><path class="cls-10" d="M917,839.1H912.8L869.22,727.48,860,703.92l12.26-1.38C880.05,726.91,907.6,810.71,917,839.1Z"/></g><g class="cls-11"><path class="cls-10" d="M893.15,720.42q-12.24,4.07-23.93,7.06L860,703.92l27.58-3.09C887.75,701.4,889.91,709,893.15,720.42Z"/></g><path class="cls-12" d="M928.89,587.08a174.41,174.41,0,0,1-4.38,20.29c-6.83,24.36-10.1,48.61-36.72,64.57-5.12,3.08-11.78,5.24-17,8.16a143.09,143.09,0,0,1-32.51,13c-33.83,9.27-71.84,13.32-106,3.44a69,69,0,0,1-26.89-15.17c-11-9.86-19.5-22.85-25.84-36.46a196.45,196.45,0,0,1-7.51-18.72c-1.84-5.28-3.51-10.62-5.09-16s-3-10.52-4.45-15.79c-6.54-23.77-13-48.05-12-72.7a110.35,110.35,0,0,1,60-94.16c15.95-8.1,33.82-12.08,51.43-14.3,19.17-2.42,38.92-4,58.22-2.41a113.65,113.65,0,0,1,38,10.07,123.72,123.72,0,0,1,43,32.84c18.84,22.42,26.46,54.65,29.1,83.24A205.6,205.6,0,0,1,928.89,587.08Z"/><path class="cls-13" d="M926.8,607c-1.33-18.29-16.93-184.57-143-166.21C650.47,460.2,674.48,615.5,674.48,615.5l-7.33-5.66c-1.56-5.24-3-10.5-4.49-15.76-6.6-23.73-13.13-48-12.09-72.56a110.06,110.06,0,0,1,60.52-94c16.08-8.07,34.1-12.05,51.86-14.26,19.33-2.42,39.24-4,58.7-2.41A115.71,115.71,0,0,1,860,420.92a124.66,124.66,0,0,1,43.32,32.78c19,22.37,26.67,54.54,29.33,83.07C934.77,559.49,933.28,584.11,926.8,607Z"/><path class="cls-14" d="M928.89,587.08a174.41,174.41,0,0,1-4.38,20.29c-6.83,24.36-6.63,45.7-26.28,61.69-4.63,3.77-22.22,8.12-27.41,11l-165.37,1.31c-11-9.86-19.5-22.85-25.84-36.46a196.45,196.45,0,0,1-7.51-18.72l1.76-13.7s23.31,20.17,123.61,14,123.9-37.43,127.15-42.06C925.59,583.11,927.16,584.48,928.89,587.08Z"/><path class="cls-15" d="M905.36,650.78c-.68,1.08-1.38,2.14-2.1,3.19a93.7,93.7,0,0,1-15.47,18c-7.8,6.86-16.89,11.82-26.19,16-33.69,15-71,19.76-107.24,16A110.84,110.84,0,0,1,733,700c-17.69-5.46-33.41-18-43.39-34.7a62.78,62.78,0,0,1-3.16-6c-.46-1-.89-2-1.32-3h0c-.47-1.13,27.13-11.2,110.44-10.9,79.86.3,101.6-.62,108.9,4.72A7.93,7.93,0,0,1,905.36,650.78Z"/><path class="cls-16" d="M904.49,650.06a18.1,18.1,0,0,0-1.23,1.39c-4.53,5.83-24.73,26-102.77,30s-105.78-17-106.63-15.31l-.82,1.63-6.57-8.49c-.46-1-.89-2-1.32-3h0c-.47-1.13,27.13-11.2,110.44-10.9C875.45,645.64,897.19,644.72,904.49,650.06Z"/><path class="cls-17" d="M740.69,723.93C686,713.07,642.88,670.41,632.46,615.66c-3.23-16.93-2.82-32.66,7.69-37.62,23.68-11.16,31.83,18.11,39.4,44.47s45.21,81,114.56,77.55c85.63-4.2,113.14-39.94,125.78-81.63s15.35-49,30.88-49,27.76,49.16-20.59,105.89-151,55.69-182.38,50C745.47,724.85,743.1,724.41,740.69,723.93Z"/><ellipse class="cls-18" cx="794.9" cy="842.53" rx="356.35" ry="11.93"/><polygon class="cls-19" points="1117.36 535.42 1117.36 553.76 1028.56 553.76 1028.56 537.33 1117.36 535.42"/><path class="cls-20" d="M905.4,428.64c10.6-4.9,19.56-15.17,19.36-26.85a19.07,19.07,0,0,0-2.82-9.42c-4.31-7.22-12.91-12-20.74-9a22.86,22.86,0,0,0,5.38-29.71,20.44,20.44,0,0,0-5.18-5.39c.28.14.57.26.85.41A18,18,0,0,1,911.12,371a19.31,19.31,0,0,1-1.3,2.77.42.42,0,0,0,.66.51,17,17,0,0,0,1.75-2c6.74-8.81,3-20.91-6.63-26.58-6.23-3.67-17-6-24.58-3a18.55,18.55,0,0,0,3-7.13,22.73,22.73,0,0,0,2.47-14.13,24.27,24.27,0,0,0-13.17-17.93c-11.53-5.84-30.75-4.46-36.71,8.22-3.75-10.2-14.36-17.61-25.27-17.34a27,27,0,0,0-25,20.56,27.35,27.35,0,0,0-1.75-5.41.92.92,0,0,0,.36-.73c.4-7.34-3-13.69-8.78-18.1-6.54-5-14.8-5.83-22.54-3.36A28.71,28.71,0,0,0,733.07,315a18.31,18.31,0,0,0-12.34-4.1c-6.72.27-13,3.66-18.28,7.76-4.6,3.57-8.84,7.87-11.09,13.25s-2.18,12,1.28,16.66c-3.81-5.69-12.57-6.16-18.43-2.61s-9.36,9.95-12,16.27c-1.89,4.56-3.5,9.39-3.25,14.32a16.51,16.51,0,0,0,1.59,6.31,12.2,12.2,0,0,0,5.55,5.86,28.38,28.38,0,0,0-6,1.5l-.1,0a31.48,31.48,0,0,0-19.5,21.6,29.21,29.21,0,0,0-.64,9.68,31.55,31.55,0,0,0,12,22,31,31,0,0,1-6.2-4.23,28.93,28.93,0,0,1-8.63-12.85c-2.85-8.85-.78-17.08,3.38-24.63a62.5,62.5,0,0,1,3.82-6.05.76.76,0,0,0-.43-1.13.77.77,0,0,0-.66,0c-10.76,6.4-14.24,22.16-10.47,33.46a32.49,32.49,0,0,0,10.12,14.69c.87.72,1.88,1.48,3,2.22a15,15,0,0,0-7.92,9.28c-1.8,6.34.32,13.27,4,18.75a36.54,36.54,0,0,0,30.84,15.91c-10,5.57-11.91,20.38-5.79,30s18,14.29,29.46,14.53a9.51,9.51,0,0,0-2.52,8,11.17,11.17,0,0,0,.17,2c1,5.49,4.77,10.41,9.22,13.62a20.82,20.82,0,0,0,15.3,3.75c3.8-.6,8-2.28,10.48-5.31A12.55,12.55,0,0,0,738,559c5.63-.19,10.65-3.41,15.34-6.52l13.37,1.5a31,31,0,0,0,51.52-7.37c5.93,3.89,12.59,7.24,19.68,7.23,6.34,0,13-3.42,15.56-9,2,2,6,2.84,8.27,3A20.3,20.3,0,0,0,876.13,543c6.84-5.79,8.63-15.82,5.41-23.86,10,1.08,20.64-3.64,26-12.22,6.58-10.52,4.45-25.63-4.78-33.93,11.28.11,21.76-9.66,22.43-20.92S916.61,429.87,905.4,428.64ZM850.47,305.53a27.73,27.73,0,0,1,20.31,1.34,20.64,20.64,0,0,1,11.61,14.07,19,19,0,0,1,.38,2.52c-2.76-6.52-8.45-11.62-14.84-14.76a30.17,30.17,0,0,0-19.07-2.55C849.39,305.92,849.92,305.71,850.47,305.53ZM739.76,303.2a26.38,26.38,0,0,1,14.38-12.36c6.43-2.32,13.64-2.2,19.37,1.79a24,24,0,0,1,8.94,12.85c-5.36-8.28-14.85-13.93-24.65-13.12-8.58.71-16.23,6.9-19.61,14.66A23.07,23.07,0,0,1,739.76,303.2ZM719.28,556.68a18.44,18.44,0,0,1-11.81-2c-.28-.15-.56-.32-.83-.48,6.67,1,13.75-1.53,19.82-4.84a7.55,7.55,0,0,0,1,4.09A25.45,25.45,0,0,1,719.28,556.68Zm155.47-17.62a17.51,17.51,0,0,1-10.34,4.88,23.68,23.68,0,0,1-7-.36A17.09,17.09,0,0,0,875,517.5a21.54,21.54,0,0,0,3.13,1C880.52,525.47,880.24,533.6,874.75,539.06Z"/><path class="cls-21" d="M887.67,491.26c1.68,2.18,3.66,4.76,3.62,7.66a7,7,0,0,1-3.59,6c-4.67,2.46-10.64.12-14.26-3.15a1.09,1.09,0,0,0-1.7,1.31c1.61,3.55,4.09,6.49,7.93,7.75a12.36,12.36,0,0,0,11.6-2.06,10.94,10.94,0,0,0,4.12-9.41c-.45-4.1-3.64-6.78-6.67-9.18a.74.74,0,0,0-1.05,1.05Z"/><path class="cls-21" d="M851.51,515.89c2,1.67,4.61,5.15.72,6.24a10.63,10.63,0,0,1-3.47.15,17.47,17.47,0,0,1-4.89-.9c-1.32-.58-3.09,1.13-1.71,2.22,2,1.63,3.67,2.86,6.37,3.36,2.38.45,5.69.25,7.66-1.33,4.71-3.8.47-9.31-3.54-11.23-.89-.43-2,.75-1.14,1.49Z"/><path class="cls-21" d="M721.69,517.87c-4.51,5.9-3.9,14.17,2.93,18.06a10.82,10.82,0,0,0,9.82.62c2.74-1.18,6-4.21,5.54-7.49a1.75,1.75,0,0,0-2.94-1.22c-1.63,1.29-2.66,2.9-4.79,3.51a6.41,6.41,0,0,1-5-.64c-3.75-2.22-4.79-7.55-2.87-11.28a1.55,1.55,0,0,0-2.68-1.56Z"/><path class="cls-21" d="M692.5,499.68a8.05,8.05,0,0,0-6.32,5.46c-1.12,3.66.74,7.52,2.88,10.41,4.44,6,12.75,5,16.29-1.41a.51.51,0,0,0-.79-.61c-3.79,3.08-8.31,3.6-11.66-.4-2.58-3.08-4.86-8.83.38-10.65a1.45,1.45,0,0,0-.78-2.8Z"/><g class="cls-22"><path class="cls-20" d="M905.4,428.64c10.6-4.9,19.56-15.17,19.36-26.85a19.07,19.07,0,0,0-2.82-9.42c-6.25,7.35-15.91,11.91-25.48,10.27,10,9.52,10.27,27.4.53,37.21,7.91,4.62,10.51,16.36,5.29,23.88s-17.12,9.21-24.22,3.43c1.84,5.27,1.57,11.5-1.76,16s-10,6.45-14.83,3.57a8.62,8.62,0,0,1-3.63-4.74,27.33,27.33,0,0,1-10.19,13.12c-7.43,4.82-18.61,4.25-24-2.75-3.88,11.32-16.64,17.24-28.57,18.24a60.55,60.55,0,0,1-54.31-26.16c.59,7.44-5.87,14.69-13.33,15S713,492.89,713,485.43a16.24,16.24,0,0,1-27.58-12.62,24.32,24.32,0,0,1-26.36-38.09c-8.38,1.12-16-5.22-19.18-13.2a31.55,31.55,0,0,0,12,22,31,31,0,0,1-6.2-4.23,28.93,28.93,0,0,1-8.63-12.85c-2.85-8.85-.78-17.08,3.38-24.63a47.89,47.89,0,0,1,3.39-7.18.77.77,0,0,0-.66,0c-10.76,6.4-14.24,22.16-10.47,33.46a32.49,32.49,0,0,0,10.12,14.69c.87.72,1.88,1.48,3,2.22a15,15,0,0,0-7.92,9.28c-1.8,6.34.32,13.27,4,18.75a36.54,36.54,0,0,0,30.84,15.91c-10,5.57-11.91,20.38-5.79,30s18,14.29,29.46,14.53a9.51,9.51,0,0,0-2.52,8,11.17,11.17,0,0,0,.17,2c1,5.49,4.77,10.41,9.22,13.62a20.82,20.82,0,0,0,15.3,3.75c3.8-.6,8-2.28,10.48-5.31A12.55,12.55,0,0,0,738,559c5.63-.19,10.65-3.41,15.34-6.52l13.37,1.5a31,31,0,0,0,51.52-7.37c5.93,3.89,12.59,7.24,19.68,7.23,6.34,0,13-3.42,15.56-9,2,2,6,2.84,8.27,3A20.3,20.3,0,0,0,876.13,543c6.84-5.79,8.63-15.82,5.41-23.86,10,1.08,20.64-3.64,26-12.22,6.58-10.52,4.45-25.63-4.78-33.93,11.28.11,21.76-9.66,22.43-20.92S916.61,429.87,905.4,428.64Zm-186.12,128a18.44,18.44,0,0,1-11.81-2c-.28-.15-.56-.32-.83-.48,6.67,1,13.75-1.53,19.82-4.84a7.55,7.55,0,0,0,1,4.09A25.45,25.45,0,0,1,719.28,556.68Zm155.47-17.62a17.51,17.51,0,0,1-10.34,4.88,23.68,23.68,0,0,1-7-.36A17.09,17.09,0,0,0,875,517.5a21.54,21.54,0,0,0,3.13,1C880.52,525.47,880.24,533.6,874.75,539.06Z"/></g><path class="cls-23" d="M805.08,649.12a20.56,20.56,0,0,1-3.18,4.31,22.36,22.36,0,0,1-1.88,1.76c-6.64,5.57-16.66,8.34-28.82,17.32a9.36,9.36,0,0,0-3.4,5h0a15.75,15.75,0,0,0-.59,4.47c-.07,12.76,11,32.84,18.24,44.68h0c3.58,5.82,6.25,9.65,6.25,9.65s-4.26-2.6-10.74-6.88c-11.69-7.71-30.59-20.89-44.76-34.17-10.82-10.13-18.89-20.31-18.91-28.18,0-15.85,18.44-28,30.86-34.38a111.79,111.79,0,0,1,11-5h28l19.07,4.87,2.66.68S810.92,638.58,805.08,649.12Z"/><path class="cls-24" d="M799.53,653.44S818.23,730,829,741.24s24-83.27,20.52-98.51C847.4,633.72,799.53,653.44,799.53,653.44Z"/><path class="cls-23" d="M825.85,700.68c-11-.39-23.49-37.9-25.83-45.49-.18-.58-.35-1.16-.49-1.75-2.44-9.75-.63-20.28-.63-20.28s3-.25,7.41-.5c11.62-.65,33.38-1.3,39.05,2.49a10.27,10.27,0,0,1,3.41,4.57C853.06,649.77,841.15,701.23,825.85,700.68Z"/><path class="cls-25" d="M884.94,578.84c.08,2.71-2.4,4.79-4.88,5.85-6.21,2.65-13.26,1.59-20,1.13-22.75-1.52-45.29,4.58-68.06,5.63-4.32.2-8.66.22-13,.24l-58.74.24c-2.26,0-4.76,0-6.44-1.57s-1.53-5,.69-5.45l-3.27-2.7c11.8-16.14,33.93-25.39,51.33-35.23,3.28-1.85,6.57-3.71,10-5.32.5-.24,1-.47,1.49-.69,1.08-.48,2.17-.94,3.28-1.36,14.12-5.45,29.76-6.16,44.81-3.57q4.26.72,8.42,1.79c1.2.3,2.39.63,3.57,1,20.27,5.91,39.64,18,49.63,36.62A7.8,7.8,0,0,1,884.94,578.84Z"/><path class="cls-26" d="M822.15,536c-.41,1-7.63,9.87-22.85,10.47-13.67.54-20.12-4.26-22-6.9C791.46,534.16,807.1,533.45,822.15,536Z"/><path class="cls-27" d="M815.11,535.67s-3,6.37-15.81,6.61S783,538.22,783,538.22l-.71-4.77h0l-1-6.83,29.46-6.8,2.76-.64.18,1.76.9,9.13Z"/><path class="cls-28" d="M848.77,639.72c-8,5.59-21.13,11.7-41.58,13.43-1.81.16-3.57.25-5.29.28-.8,0-1.59,0-2.37,0a75.39,75.39,0,0,1-51.38-20.67,111.79,111.79,0,0,1,11-5h28l19.07,4.87c11.62-.65,33.38-1.3,39.05,2.49A10.27,10.27,0,0,1,848.77,639.72Z"/><path class="cls-25" d="M853,583.2c-1.1,8.43-2.53,16.81-3.71,25.22-.09.58-.17,1.16-.25,1.74-.43,3.14-.7,6.29-.91,9.44-.41,5.89-.64,11.79-1.4,17.63-.2,1.51-5.45,2.3-6.49,2.56-4.85,1.18-9.79,2.1-14.73,2.83-11,1.64-22,3.22-33.09,2.36a62.47,62.47,0,0,1-19.92-4.71,56.51,56.51,0,0,1-9.14-5.2c-2.21-1.5-5.53-3.65-6.14-6.49-.24-1.11-.78-6.79-1.05-8.09-.75-3.54-1.6-7.7-2.47-12.07-2.1-10.43-4.39-22.06-5.87-29.32Z"/><path class="cls-28" d="M781,570.47a76.72,76.72,0,0,1-19.19-19.64,24.15,24.15,0,0,1-3.46-6.78c-.61-2.13-.49-4.87,1.43-6a4.12,4.12,0,0,1,4.09.3,12,12,0,0,1,3,3q10.92,14,21.46,28.21Z"/><path class="cls-27" d="M807.33,580.21l-12.58.35a110.3,110.3,0,0,0-12.73.83,55.56,55.56,0,0,0-12.86,3.45,2.12,2.12,0,0,0-1.3,1,1.79,1.79,0,0,0,.65,1.76,9.43,9.43,0,0,0,5.43,2.23c5,.73,10,.28,15-.32,7.53-.91,15-2.18,22.49-3.44Z"/><path class="cls-29" d="M772.31,582.49q2.3-5.4,5-10.59a8.52,8.52,0,0,1,2.47-3.23,7.38,7.38,0,0,1,3.29-1,25.75,25.75,0,0,1,8.71.38c2.08.45,4.39,1.44,4.92,3.49a4.34,4.34,0,0,1-.87,3.59,12,12,0,0,1-2.84,2.52,4.66,4.66,0,0,1,4.5,8.11c1.77-.21,4,.65,4.1,2.43a2.87,2.87,0,0,1-1.38,2.44,7.6,7.6,0,0,1-2.76.94,47.36,47.36,0,0,1-25.55-2.22Z"/><path class="cls-19" d="M881.29,571.09C862,557.26,820.6,572.18,803,580.21c-.45,5.13,4.37,10.81,4.83,11.73,0,0,44.09-.75,59.7-1.21S895.8,581.49,881.29,571.09Z"/><path class="cls-19" d="M710.25,583.2a12,12,0,0,1,1-1.81c2.22-3.44,9.65-8.2,13.64-8.91,23.71-4.2,42.19-.76,50.57,3.22,1,.49,1.19,12.07,1.44,14a2.11,2.11,0,0,1-.21,1.59,2.06,2.06,0,0,1-1.49.6,280.3,280.3,0,0,1-55.1,1.18c-2.75-.21-5.61-.5-7.94-2C709.16,589.25,709.08,586,710.25,583.2Z"/><path class="cls-30" d="M814.56,530.07c-3.61,3.26-8.35,6.63-12.92,7.13-9.06,1-19.12-3.63-19.38-3.75h0l-1-6.83,29.46-6.8,2.94,1.12Z"/><path class="cls-26" d="M720.41,574.34c1.84-.07,3.67-.84,5.48-1.18a59.26,59.26,0,0,1,6.36-.74c4.3-.34,8.64-.74,13-.81a99,99,0,0,1,12.76.62c2.22.24,4.43.53,6.62.94,2,.37,4.24,1.35,6.23,1.17a.32.32,0,0,0,.16-.59c-1.58-1.2-4.1-1.49-6-2-2.23-.58-4.47-1.1-6.74-1.48a70.57,70.57,0,0,0-13.38-1A113.49,113.49,0,0,0,732,570.47a47.4,47.4,0,0,0-6.46,1.31c-1.75.5-3.88,1.06-5.18,2.4-.05.06,0,.17.07.16Z"/><path class="cls-26" d="M805,579.52a58.07,58.07,0,0,0,9-3.06c2.77-1,5.52-2.13,8.3-3.14a136.58,136.58,0,0,1,17.49-5.19,89.34,89.34,0,0,1,16.7-2c2.75-.06,5.53-.08,8.28.13a45.13,45.13,0,0,1,8.52,1.06c.07,0,.1-.09,0-.11a43.65,43.65,0,0,0-8-2.46,51.35,51.35,0,0,0-8.48-.71,80.91,80.91,0,0,0-16.71,1.9,114.08,114.08,0,0,0-17.56,5.66c-2.81,1.11-5.61,2.24-8.38,3.45A67,67,0,0,0,805,579.4a.07.07,0,0,0,0,.12Z"/><path class="cls-31" d="M849.27,608.42c-.09.58-.17,1.16-.25,1.74-.43,3.14-.7,6.29-.91,9.44l-14.47,4.32a134.81,134.81,0,0,1-67.59-.75l-9.9-2.68c-.75-3.54-1.6-7.7-2.47-12.07Z"/><path class="cls-27" d="M861.55,436.38s11.07-7.31,18.91.11.46,30.24-7.27,33.5S862,471.61,862,471.61Z"/><path class="cls-27" d="M712.78,457.9s-12.68-3.87-18.11,5.47,8.14,29.13,16.48,30.06,11.17-1.62,11.17-1.62Z"/><path class="cls-29" d="M862.53,403.73s2.35,31.55,2.56,57.19h0v.1c0,3.85,0,7.56-.06,11v.06c-.24,10.33-1,18.29-2.83,20.5-6.35,7.85-45,36.48-61.57,37.78s-62.88-13.19-71-19.68c-2.58-2.08-6.22-10.2-10-20.27-8-21.4-16.47-51.63-16.47-51.63-5.6-51,20.21-72.28,74.78-82S862.53,403.73,862.53,403.73Z"/><path class="cls-20" d="M843.28,433l-.12-.34a5,5,0,0,0-.64-1.4,11.36,11.36,0,0,0-1.72-1.85,20.2,20.2,0,0,0-3.53-2.44,24.4,24.4,0,0,0-8.14-2.92,19.31,19.31,0,0,0-3-.23,24,24,0,0,0-6.11.85c-2.19.57-6,1.88-6.67,4.16a2.8,2.8,0,0,0,.61,2.72,3.91,3.91,0,0,0,3.09,1.31h0c.28,0,.57,0,.87,0l.44,0c1.08,0,2.12-.17,3.12-.3l.61-.08a22.75,22.75,0,0,1,2.75-.17,14.25,14.25,0,0,1,3.46.39,26,26,0,0,1,5.51,2.38l.69.37a20.06,20.06,0,0,0,2.37,1.15,10.36,10.36,0,0,0,2.15.63,4.26,4.26,0,0,0,.61,0l.58,0,.31,0a2.74,2.74,0,0,0,.56.06,2.55,2.55,0,0,0,2.27-1.36A2.82,2.82,0,0,0,843.28,433Z"/><path class="cls-20" d="M749.39,440a5.79,5.79,0,0,0-3.7-1.18,16.84,16.84,0,0,0-4.65.89l-.5.15a27.18,27.18,0,0,0-7.07,3.31,30,30,0,0,0-5.75,4.84c-1.27,1.35-4.63,4.95-3,8.46a3.51,3.51,0,0,0,3.32,2.06h.15c2.34-.08,4-2.07,5.21-3.52.32-.39.62-.75.86-1a23.68,23.68,0,0,1,4.3-3.44,29.1,29.1,0,0,1,4.85-2.29,16.29,16.29,0,0,1,1.64-.45c1.65-.4,3.72-.89,5.06-2.56a3.62,3.62,0,0,0,.76-2.68A3.9,3.9,0,0,0,749.39,440Z"/><path class="cls-30" d="M715.9,484.52a20.26,20.26,0,0,1-11.43-9.31c-1-2-1.31-5.3,1.38-6,2.22-.63,3.58,2.18,4.81,3.54.64.71,2,0,1.52-.92-1.31-2.56-2.69-5.81-6.11-5.73s-5.65,3.49-5.55,6.71c.12,3.94,3,7.23,5.63,9.88s5.88,4.85,9.78,3.46A.86.86,0,0,0,715.9,484.52Z"/><path class="cls-30" d="M878.62,446.69c-.62-2.91-3.43-5.18-6.33-3.5-2,1.13-4.73,5.65-2.15,7.4a.55.55,0,0,0,.82-.23c.91-1.68.7-4.19,2.82-5.08,2.92-1.22,2.67,4.05,2.55,5.56a12.84,12.84,0,0,1-1.49,5.36c-1,1.75-2.62,2.65-4.22,3.75a.65.65,0,0,0,0,1c2.79,2.3,5.78-1.76,6.82-4.08A17.75,17.75,0,0,0,878.62,446.69Z"/><ellipse class="cls-32" cx="747.79" cy="494.39" rx="6.7" ry="12.53" transform="translate(187.64 1194.27) rotate(-84.8)"/><ellipse class="cls-32" cx="840.01" cy="479.81" rx="12.53" ry="6.7" transform="translate(-101.01 255.5) rotate(-16.33)"/><g class="cls-33"><path class="cls-34" d="M789.63,477.32a21.7,21.7,0,0,0-9.26,3.94,1.64,1.64,0,0,0-.52.53c-.47.85.6,1.71,1.51,2,5.77,2,12.2.66,17.9-1.56a8.15,8.15,0,0,0,3.67-2.34c.55-.73.78-1.94,0-2.46a2.13,2.13,0,0,0-1.09-.28,41.42,41.42,0,0,0-16.69,2.44Z"/></g><path class="cls-35" d="M780.23,482.56c1.42-.77,2.51-2,4-2.69a19.17,19.17,0,0,1,5.52-1.46,31.59,31.59,0,0,1,5.4-.47,9.45,9.45,0,0,1,5.17,1.69c1.71,1.05,3.95-.9,2.55-2.64-3-3.78-9.16-2.93-13.35-2.25-3.57.58-10.53,2-10.87,6.65-.06.78.76,1.61,1.56,1.17Z"/><path class="cls-36" d="M829,741.24c-10.24-10.72-27.78-81.13-29.31-87.36.12.44.24.88.38,1.31,2.34,7.59,14.81,45.1,25.83,45.49,14.12.51,25.36-43.31,23.63-57.95C853,658,839.67,752.45,829,741.24Z"/><path class="cls-28" d="M829,741.24c-10.24-10.72-27.78-81.13-29.31-87.36.12.44.24.88.38,1.31,2.34,7.59,14.81,45.1,25.83,45.49,14.12.51,25.36-43.31,23.63-57.95C853,658,839.67,752.45,829,741.24Z"/><path class="cls-19" d="M841.44,756.48a25.71,25.71,0,0,0-1.69,13.79c.35,2.36,1.19,4.68,1.15,7.09a6.8,6.8,0,0,1-2.25,5.2,8.73,8.73,0,0,1-3.82,1.53,35.36,35.36,0,0,1-9.41.69,8.38,8.38,0,0,1-3.58-.81,4.8,4.8,0,0,1-2.2-2.7,7.84,7.84,0,0,1-.29-3.78c.4-2.49,1.68-4.74,2.56-7.1,1.94-5.17,4.05-23.17-.39-34.59a56,56,0,0,1-5.27-17.88,1.27,1.27,0,0,1,.13-.69,1.22,1.22,0,0,1,1.76-.49,23.75,23.75,0,0,0,23.05,1.17.86.86,0,0,1,1.24.71,17,17,0,0,1-1.23,6.22,80.7,80.7,0,0,0-2.8,12,28.24,28.24,0,0,1,3.75,5,13,13,0,0,1,2.08,6.29C844.23,751.09,842.59,753.75,841.44,756.48Z"/><path class="cls-25" d="M841.44,756.48a25.71,25.71,0,0,0-1.69,13.79c.35,2.36,1.19,4.68,1.15,7.09a6.8,6.8,0,0,1-2.25,5.2,8.73,8.73,0,0,1-3.82,1.53,35.36,35.36,0,0,1-9.41.69,8.38,8.38,0,0,1-3.58-.81,4.8,4.8,0,0,1-2.2-2.7c3.29-.5,6.67-.68,9.58-2.23,3.56-1.89,5.85-5.59,7.07-9.44s1.51-7.9,2.08-11.89a87.28,87.28,0,0,1,3.78-15.87,13,13,0,0,1,2.08,6.29C844.23,751.09,842.59,753.75,841.44,756.48Z"/><path class="cls-28" d="M785.81,729.52l-4.85,0c-11.69-7.71-30.59-20.89-44.76-34.17a19.2,19.2,0,0,0,14.64,1.47C762.2,693.51,766,686.62,767.21,682c-.07,12.76,11,32.84,18.24,44.68h0C785.68,728.47,785.81,729.52,785.81,729.52Z"/><path class="cls-19" d="M790.71,740.9a21.1,21.1,0,0,1-8.78,4.26c-3.41.74-7,.18-10.33,1.56-7.49,3.15-11.23,13.34-20.76,11.4l-.79-.18c-3-.79-14.76-13.72,5.48-19.49,4.49-1.28,11.06-2.26,14.38-5.88a4.49,4.49,0,0,0,1.34-2.91,5.88,5.88,0,0,0-1.78-3.56c-3.37-4-16.81-12.09-11.71-12.91,1.55-.25,12.19-5,14.35-8.19a2.16,2.16,0,0,1,2.37-1,2.21,2.21,0,0,1,.81.71,80.4,80.4,0,0,1,5.64,8.07c1.18,1.88,2.32,3.79,3.46,5.7,1.68,2.78,3.4,5.63,5.31,8.26,1.69,2.33,4,4.51,4.27,7.55C794.17,736.8,792.67,739.25,790.71,740.9Z"/><path class="cls-25" d="M790.71,740.9a21.1,21.1,0,0,1-8.78,4.26c-3.41.74-7,.18-10.33,1.56-7.49,3.15-11.23,13.34-20.76,11.4a30.84,30.84,0,0,1,21.45-17.43c2.55-.52,5.21-.73,7.56-1.85a10.71,10.71,0,0,0,6-9.32c.08-5.83-4.62-11.29-4.88-16.78,1.18,1.88,2.32,3.79,3.46,5.7,1.68,2.78,3.4,5.63,5.31,8.26,1.69,2.33,4,4.51,4.27,7.55C794.17,736.8,792.67,739.25,790.71,740.9Z"/><path class="cls-37" d="M815.36,489.42c-.05.64-.11,1.35-.2,2.1a29.41,29.41,0,0,1-3.52,11.1,18.39,18.39,0,0,1-13.32,9.18,19.89,19.89,0,0,1-16.49-4.27h0a33.16,33.16,0,0,1-8.19-10.34l-.27-.53a2.11,2.11,0,0,1,2-3l1.87.11c7.36.4,20.92.33,32.15-4.87,1-.43,1.89-.91,2.8-1.42A2.11,2.11,0,0,1,815.36,489.42Z"/><path class="cls-38" d="M811.64,502.62a18.42,18.42,0,0,1-13.32,9.18,19.89,19.89,0,0,1-16.49-4.27h0s6.81-4.31,14.44-1.67C796.27,505.85,798.43,501.32,811.64,502.62Z"/><path class="cls-2" d="M808.41,495.62c-5.92,3.06-24.63,5.18-26.88,3.95s-4.25-5.85-4.25-5.85h0c7.36.4,20.92.33,32.15-4.87C809.46,494,808.41,495.62,808.41,495.62Z"/><circle class="cls-2" cx="748.86" cy="468.97" r="14.82"/><circle cx="751.16" cy="471.51" r="11.52" transform="translate(-132.8 543.51) rotate(-36.77)"/><path class="cls-2" d="M757.48,477.77a3.35,3.35,0,1,1-3.13-3.54A3.35,3.35,0,0,1,757.48,477.77Z"/><circle class="cls-2" cx="827.84" cy="456.34" r="14.82" transform="translate(-28.03 857.64) rotate(-53.99)"/><circle cx="826.37" cy="459.43" r="11.52" transform="translate(61.58 1015.35) rotate(-65.09)"/><path class="cls-2" d="M822.09,467.23a3.35,3.35,0,1,0,2-4.29A3.35,3.35,0,0,0,822.09,467.23Z"/><g class="cls-39"><path class="cls-40" d="M712.52,460.24c3.91-.25,7.23-8.46,5-9.62,4.86-.26,8.51-5.25,8.59-10.12s-2.6-9.4-5.91-13c4.39,3.54,11.39,1.48,14.94-2.89s4.5-10.26,5.07-15.87c.38-3.72-.28-8.74-4-9.31a15.56,15.56,0,0,0,25.45-17,18.06,18.06,0,0,0,10.56,15.29,16.24,16.24,0,0,0,18-3.75c2.2-2.43,3.56-6.1,2-9-1.52,7.31,3.93,15.09,11.16,17s15.29-1.7,19.53-7.85c-1.79,3.72-3.62,7.88-2.44,11.84,1.29,4.3,5.94,6.92,10.43,7.17s8.84-1.4,13-3.18a28,28,0,0,0-2,10c0,2.95.46,6.08,2.39,8.31s5.65,3.07,7.89,1.15c-1,3.17,2.93,12.11,11.66,10.57,1.91-.34,1.8-14.52,2.55-16.31,1.92-4.58,3.46-9.63,2.3-14.46s-5.92-9.09-10.77-8c4.18-4.29,4.24-11.46,1.38-16.73s-8.08-8.86-13.5-11.39c-3.21-1.5-7.68-2.39-9.73.49-3.21-12.12-16.59-20.58-28.92-18.28-4.47.84-9.21,3.55-10,8a28,28,0,0,0-24.65-8.38c-3.24.55-7,2.43-7,5.71-7.22-3.89-16.34-4.75-23.62-1s-12,12.59-9.84,20.5a23.67,23.67,0,0,0-18.51,31.78c-5.22.14-9.54,4.81-10.56,9.93s.66,10.44,3.22,15c-3.79.21-6.14,5-4.78,8.53s5.31,5.57,9.11,5.7a4.73,4.73,0,0,0-2,6.45Z"/></g><path class="cls-20" d="M701.14,455.82a17.41,17.41,0,0,0,5,4.62c2,1.06,4.66,1.24,6.43-.2,2.22-1.81,2.09-5.43.49-7.81s-4.23-3.81-6.76-5.15c5.62-.3,9.83-6.07,9.93-11.69s-3-10.87-6.83-15c5.08,4.08,13.16,1.71,17.27-3.34s5.19-11.86,5.85-18.33c.44-4.31-.33-10.11-4.61-10.76a18,18,0,0,0,29.41-19.68,20.87,20.87,0,0,0,12.2,17.67c6.94,2.94,15.7,1.25,20.75-4.34,2.54-2.81,4.11-7,2.36-10.4-1.76,8.45,4.54,17.44,12.89,19.62s17.67-2,22.57-9.07c-2.07,4.3-4.18,9.11-2.82,13.68,1.49,5,6.86,8,12,8.28s10.22-1.61,15-3.67a32.39,32.39,0,0,0-2.36,11.58c0,3.4.53,7,2.77,9.6s6.52,3.55,9.11,1.34A73.78,73.78,0,0,0,859.16,434a6.61,6.61,0,0,0,.27,4.11c1,1.85,3.55,2.4,5.48,1.61a8.35,8.35,0,0,0,4.14-4.5,15.82,15.82,0,0,0-.61-14c1.35,1.79,4.23,1.72,6.06.42s2.84-3.43,3.7-5.49c2.22-5.3,4-11.13,2.66-16.71s-6.84-10.51-12.45-9.29c4.83-5,4.91-13.25,1.59-19.33s-9.32-10.24-15.6-13.16c-3.7-1.73-8.86-2.76-11.23.57-3.72-14-19.18-23.78-33.42-21.12-5.17,1-10.64,4.1-11.5,9.27a32.3,32.3,0,0,0-28.48-9.68c-3.74.63-8,2.8-8.13,6.6-8.34-4.5-18.87-5.49-27.29-1.14S720.49,356.7,723,365.84a27.35,27.35,0,0,0-21.39,36.72c-6,.15-11,5.56-12.21,11.47s.77,12.06,3.73,17.31c-4.38.24-7.11,5.76-5.53,9.85s6.14,6.44,10.53,6.59a5.24,5.24,0,1,0,5.38,8.92Z"/><path class="cls-21" d="M676.77,428.13c-6.3-2.27-10.8-9.31-9.42-16a8.51,8.51,0,0,1,7.33-7.05,13.18,13.18,0,0,1,5.68.53c2,.59,3.9,1.82,6,2.16a1.6,1.6,0,0,0,1.54-2.65c-3.07-3.94-10.15-5.2-14.8-4.36a12.42,12.42,0,0,0-10.15,9.33c-2.07,9.27,3.93,18.83,12.87,21.58,2.26.7,3.15-2.73,1-3.51Z"/><path class="cls-21" d="M700.24,384.72c-4.56-4.27-8.14-10.94-5.84-17.25a9,9,0,0,1,6-6,9.57,9.57,0,0,1,4.42,0c1.39.31,2.44,1.19,3.78,1.58a1.71,1.71,0,0,0,2.08-2.08c-1.38-3.84-6.62-5-10.23-4.5a13.35,13.35,0,0,0-10.13,7.26,16.91,16.91,0,0,0-.71,12.82c1.55,4.52,4.85,8,8.68,10.69,1.48,1.05,3.23-1.27,1.93-2.49Z"/><path class="cls-21" d="M785.71,350.76A9.79,9.79,0,0,1,798,339a9.65,9.65,0,0,1,6.06,5.79c1.11,2.79.87,5.66,1.47,8.52a1.4,1.4,0,0,0,2.32.61c2.63-3.37,1.78-8.37-.08-11.9a14.11,14.11,0,0,0-10-7.38c-9.82-1.65-17.67,7.19-14.33,16.73a1.22,1.22,0,0,0,2.35-.65Z"/><path class="cls-21" d="M834.28,335.15c2.54-5.38,9.49-10.39,15.41-6.69a9.74,9.74,0,0,1,4.36,7.16c.34,3.17-1,6.05-1.15,9.13-.08,1.5,1.73,1.92,2.71,1.12,3.31-2.73,3.72-8.23,2.84-12.14a13.92,13.92,0,0,0-7.23-9.35c-8.47-4.1-16.16,2.15-19.35,9.76-.57,1.36,1.77,2.35,2.41,1Z"/><path class="cls-21" d="M864.13,374.89c1.76-3.73,7-4.38,10.52-3.26A13.08,13.08,0,0,1,883,380c2.58,8-3.93,13.75-10.07,17.47a1.15,1.15,0,0,0,.27,2.09c5.46,1.22,10.3-2.07,13.1-6.65a16.17,16.17,0,0,0,.54-16.13A17.09,17.09,0,0,0,874,367.65c-4.92-.56-9.74,1.76-11.12,6.69-.22.75.94,1.29,1.29.55Z"/><path class="cls-21" d="M895.3,442.31c2.12,1.95,6.46,4.86,5.21,8.2-1.16,3.08-4.26,5-6.74,6.87a1.29,1.29,0,0,0,.65,2.39c4.94.47,11.05-3.89,11.56-9,.52-5.3-5.21-9.76-10.15-9.74a.75.75,0,0,0-.53,1.27Z"/><path class="cls-21" d="M679.46,464.28c-4.62-2.24-12.23-.43-12.36-7.7,0-2.89,1.62-5.57,3.64-7.5a12.86,12.86,0,0,1,3.79-2.62c2-.82,3.29-.46,5.27-.06a.93.93,0,0,0,1-1.34c-2.27-3.82-7.78-2-10.67,0-3.65,2.49-6.83,6.11-7.49,10.61a11,11,0,0,0,4.15,10.51c3.64,2.58,10,3,12.92-.8a.77.77,0,0,0-.28-1.06Z"/><path class="cls-21" d="M728.8,362.79a10.59,10.59,0,0,0,6.92,11.94,10.36,10.36,0,0,0,7.76-.65,7.59,7.59,0,0,0,4.47-5.79,1.08,1.08,0,0,0-1.8-1.05c-2,2.19-5.49,4-8.52,3.73-3.94-.39-6.75-4.11-6.84-7.91,0-1.09-1.79-1.44-2-.27Z"/><path class="cls-21" d="M742.11,339.31c-4.49-2.32-6.6-7.95-2.76-11.92,1.78-1.84,4.58-3.68,7.23-3.29,3.2.47,5.19,4.27,6.58,6.83.31.59,1.2.18,1.05-.44-1-4-2.41-8.21-6.67-9.86-4.08-1.58-8.51.69-11.47,3.48-6.13,5.76-4.1,16.87,4.69,18.41,1.82.32,3.25-2.23,1.35-3.21Z"/><path class="cls-21" d="M830.12,357.16c-5.84,3-5.9,13.33-2.09,17.91,4.59,5.5,14.7,2.5,17.1-3.8a1.25,1.25,0,0,0-1.53-1.53c-3,1-8.78,4.93-11.71,1.94-2.55-2.59-2.61-9.74.07-12.14,1.34-1.19-.36-3.15-1.84-2.38Z"/><path class="cls-21" d="M699.17,406.43c3.71,5.36,12,5.61,16.45,1s3.41-11.46-2.44-14c-.43-.19-.91.31-.53.69,2.93,2.88,1.94,7.91-1,10.4-3.37,2.82-7.69,1.8-11.56.79-.62-.17-1.28.56-.88,1.14Z"/><path class="cls-21" d="M799.59,309.37c.4-4.56,6.9-6.47,10.67-5.54A10.58,10.58,0,0,1,815,306.6c1.18,1.17,1.77,2.72,2.87,3.94A1.26,1.26,0,0,0,820,310c1.22-5.76-5.86-10.06-10.73-10.19-5.56-.14-11.79,3.61-12.16,9.57-.09,1.62,2.36,1.59,2.5,0Z"/><g class="cls-41"><path class="cls-20" d="M660.15,390.2l.21.68c-.12-.22-.22-.43-.31-.64a7.29,7.29,0,0,1-.59-2.24Z"/></g><g class="cls-41"><path class="cls-20" d="M905.6,345.72c-6.23-3.67-17-6-24.58-3a18.55,18.55,0,0,0,3-7.13,22.73,22.73,0,0,0,2.47-14.13,24.27,24.27,0,0,0-13.17-17.93c-11.53-5.84-30.75-4.46-36.71,8.22-3.75-10.2-14.36-17.61-25.27-17.34a27,27,0,0,0-25,20.56,27.35,27.35,0,0,0-1.75-5.41.92.92,0,0,0,.36-.73c.4-7.34-3-13.69-8.78-18.1-6.54-5-14.8-5.83-22.54-3.36A28.71,28.71,0,0,0,733.07,315a18.31,18.31,0,0,0-12.34-4.1c-6.72.27-13,3.66-18.28,7.76-4.6,3.57-8.84,7.87-11.09,13.25s-2.18,12,1.28,16.66c-3.81-5.69-12.57-6.16-18.43-2.61s-9.36,9.95-12,16.27c-1.89,4.56-3.5,9.39-3.25,14.32a16.51,16.51,0,0,0,1.59,6.31,25.87,25.87,0,0,1,6.57-7.92c11-9.32,25.83-17.79,39.26-12.48-3.32-4.44-3.57-10.64-1.8-15.9s5.32-9.73,9.13-13.76c4.06-4.3,8.66-8.35,14.26-10.24s12.4-1.21,16.56,3c1.59-8.86,11-15.23,20-14.33s16.62,8.23,18.93,16.94c7.33-7,15.48-13.95,25.42-15.91s22,3,24.33,12.88A20.3,20.3,0,0,1,869,335.18c7.91,3.5,12,13.77,8.71,21.78,7.07-3.49,15.82-1.19,22.26,3.34a56.8,56.8,0,0,1,9.6,8.93,22,22,0,0,0-3-15.6,20.44,20.44,0,0,0-5.18-5.39c.28.14.57.26.85.41A18,18,0,0,1,911.12,371l1.11,1.29C919,363.49,915.21,351.39,905.6,345.72ZM757.8,292.36c-8.58.71-16.23,6.9-19.61,14.66a23.07,23.07,0,0,1,1.57-3.82,26.38,26.38,0,0,1,14.38-12.36c6.43-2.32,13.64-2.2,19.37,1.79a24,24,0,0,1,8.94,12.85C777.09,297.2,767.6,291.55,757.8,292.36ZM867.93,308.7a30.17,30.17,0,0,0-19.07-2.55c.53-.23,1.06-.44,1.61-.62a27.73,27.73,0,0,1,20.31,1.34,20.64,20.64,0,0,1,11.61,14.07,19,19,0,0,1,.38,2.52C880,316.94,874.32,311.84,867.93,308.7Z"/></g><path class="cls-26" d="M1117.36,539.08v14.68h-88.8V542.5c4.5,1.57,12.9,3.16,28.55,3.32C1087.6,546.13,1110.13,545.24,1117.36,539.08Z"/><path class="cls-42" d="M655.21,618.09l-2.27,5-6,13.34-92,203.36H537.52s54-145,75.26-203.26c5.09-13.93,8.31-22.9,8.46-23.71Z"/><g class="cls-11"><path class="cls-10" d="M621.24,612.81l34,5.28-8.3,18.33c-13.91,0-25.54.05-34.13.1C617.87,622.59,621.09,613.62,621.24,612.81Z"/></g><path class="cls-42" d="M1051.07,839.78h-17.38L941.75,636.59l-8.37-18.5,5.44-.85,28.52-4.43c.16.82,3.39,9.83,8.51,23.84C997.15,695,1051.07,839.78,1051.07,839.78Z"/><g class="cls-11"><path class="cls-10" d="M975.85,636.65l-34.1-.06-8.37-18.5,34-5.28C967.5,613.63,970.73,622.64,975.85,636.65Z"/></g><g class="cls-11"><polygon class="cls-10" points="1039.38 839.78 1033.69 839.78 941.75 636.59 933.38 618.09 938.82 617.24 951.48 623.09 1039.38 839.78"/></g><rect class="cls-10" x="601.93" y="609.28" width="77.29" height="13.8"/><rect class="cls-10" x="909.36" y="609.28" width="77.29" height="13.8"/><rect class="cls-43" x="481.12" y="593.82" width="625.33" height="15.46"/><rect class="cls-42" x="481.12" y="597.34" width="625.33" height="11.94"/><g class="cls-11"><rect class="cls-10" x="601.93" y="609.28" width="77.29" height="13.8"/></g><g class="cls-11"><rect class="cls-10" x="909.36" y="609.28" width="77.29" height="13.8"/></g><g class="cls-11"><polygon class="cls-10" points="652.94 623.08 646.91 636.42 554.89 839.78 546.66 839.78 634 623.08 652.94 623.08"/></g><polygon class="cls-44" points="1117.36 551.14 1117.36 572.47 1014.76 572.47 1014.76 554.16 1117.36 551.14"/><g class="cls-45"><path class="cls-44" d="M1117.36,560.3v12.17h-102.6V561.2c2.16,2.12,6.83,4.46,16.91,4.46C1047.16,565.66,1095.65,567.05,1117.36,560.3Z"/></g><polygon class="cls-23" points="1121.5 568.7 1121.5 593.82 1030.86 593.82 1029.8 583.93 1028.56 572.47 1121.5 568.7"/><path class="cls-28" d="M1121.5,581.26v12.56h-90.64l-1.06-9.88c.09.12,3.27,4.18,17.13,4.82C1061,589.41,1118.6,590.68,1121.5,581.26Z"/><path class="cls-46" d="M872.71,586l-.6,1.78-1.2,3.52L802,592.9l-68.93-1.64-1.81-5.3a142,142,0,0,0,31.9-4.16c15.72-4.16,31.9-4.62,38.84,2.31,6.93-6.93,23.11-6.47,38.83-2.31A142.1,142.1,0,0,0,872.71,586Z"/><polygon class="cls-47" points="871.79 593.82 732.17 593.82 732.17 590.59 734.18 590.59 871.79 590.59 871.79 593.82"/><path class="cls-2" d="M872.71,586l-.6,1.78c-8.93.39-23.9-1.32-40.08-5.48s-29.59,3.7-30,3.7v-1.85c6.93-6.93,23.11-6.47,38.83-2.31A142.1,142.1,0,0,0,872.71,586Z"/><path class="cls-2" d="M731.24,586l.61,1.78c8.93.39,23.9-1.32,40.08-5.48S801.52,586,802,586v-1.85c-6.94-6.93-23.12-6.47-38.84-2.31A142,142,0,0,1,731.24,586Z"/><path class="cls-28" d="M985.16,563.69a2.89,2.89,0,0,1-.91.15,2.62,2.62,0,0,1-2.47-1.73l-5.64-15.39h0l-2.92-8-10.33-28.21a2.63,2.63,0,0,1,4.94-1.82l11,30,2.19,6h0l.83,2.26,1.48,4,3.41,9.29A2.64,2.64,0,0,1,985.16,563.69Z"/><path class="cls-48" d="M984.25,548.52l.2,2.62-.28,0a2.26,2.26,0,0,1-.85-.14c-1.43-.47-1.69-2.19-1.87-3.41l-.09-.63-.35-2.26h0l-.9-6-3.05-20.27a2.63,2.63,0,0,1,5.21-.78c.86,5.75,2.17,14.43,3.16,21,.55,3.66,1,6.69,1.24,8.24.11.64.16,1,.18,1.1l-2.6.42Z"/><path class="cls-23" d="M1009.53,499.73l-6.49,39-1.38,8.24-.23,1.44a2.63,2.63,0,0,1-2.59,2.19,2.18,2.18,0,0,1-.44,0,2.61,2.61,0,0,1-2.16-3l.1-.57,1.37-8.24,6.63-39.87a2.63,2.63,0,1,1,5.19.86Z"/><path class="cls-49" d="M986.67,547H977l-.89-.26h0l-2.92-8h5.61l2.19,6-.9-6h5.32C986,542.4,986.45,545.43,986.67,547Z"/><polygon class="cls-49" points="1003.04 538.74 1001.66 546.98 996.34 546.98 997.71 538.74 1003.04 538.74"/><rect class="cls-19" x="974.05" y="542.54" width="35.98" height="51.28"/><g class="cls-50"><path class="cls-26" d="M1010,574.59v19.23h-36V576.08a30.07,30.07,0,0,0,18,6.36A24.07,24.07,0,0,0,1010,574.59Z"/></g><path class="cls-51" d="M1010,542.54v8a31.83,31.83,0,0,1-18,5.1,36.63,36.63,0,0,1-18-4.58v-8.49Z"/><path class="cls-52" d="M620.78,581.56,506,584.83l-7.83-3.27-38.78-83.41,1.22-2.78H589.11l26.36,71.7Z"/><path class="cls-53" d="M617.87,581.56l-114.75,3.27-7.82-3.27-35.88-83.41H587.31l25.26,68.93Z"/><rect class="cls-54" x="495.3" y="581.56" width="161.88" height="12.26"/><path class="cls-55" d="M657.18,581.56v12.26H495.3V581.56l-35.88-83.41c.61,1.1,41.44,72.81,152,69l1.14,0,5.3,14.49Z"/></g></g></g></svg>